<svg width="27" height="31" viewBox="0 0 27 31" fill="none" xmlns="http://www.w3.org/2000/svg">
<path d="M1.8 17.4C1.0268 17.4 0.399999 16.7732 0.399999 16C0.4 15.2268 1.0268 14.6 1.8 14.6L6 14.6C9.0928 14.6 11.6 12.0928 11.6 9L11.6 4.8C11.6 4.0268 12.2268 3.4 13 3.4C13.7732 3.4 14.4 4.0268 14.4 4.8L14.4 9C14.4 12.0928 16.9072 14.6 20 14.6L24.2 14.6C24.9732 14.6 25.6 15.2268 25.6 16C25.6 16.7732 24.9732 17.4 24.2 17.4L20 17.4C16.9072 17.4 14.4 19.9072 14.4 23V27.2C14.4 27.9732 13.7732 28.6 13 28.6C12.2268 28.6 11.6 27.9732 11.6 27.2L11.6 23C11.6 19.9072 9.09279 17.4 6 17.4L1.8 17.4Z" fill="#222141"/>
<path d="M3.1 8.3C2.49249 7.69249 2.49249 6.70751 3.1 6.1C3.70752 5.49249 4.69249 5.49249 5.3 6.1L8.6 9.4C11.0301 11.8301 14.9699 11.8301 17.4 9.4L20.7 6.1C21.3075 5.49249 22.2925 5.49249 22.9 6.1C23.5075 6.70751 23.5075 7.69249 22.9 8.3L19.6 11.6C17.1699 14.0301 17.1699 17.9699 19.6 20.4L22.9 23.7C23.5075 24.3075 23.5075 25.2925 22.9 25.9C22.2925 26.5075 21.3075 26.5075 20.7 25.9L17.4 22.6C14.9699 20.17 11.0301 20.1699 8.6 22.6L5.3 25.9C4.69249 26.5075 3.70751 26.5075 3.1 25.9C2.49249 25.2925 2.49249 24.3075 3.1 23.7L6.4 20.4C8.83005 17.9699 8.83005 14.0301 6.4 11.6L3.1 8.3Z" fill="#222141"/>
</svg>
