<svg width="17" height="17" viewBox="0 0 17 17" fill="none" xmlns="http://www.w3.org/2000/svg">
<path d="M0 3.5C0 2.67157 0.671573 2 1.5 2H15.5C16.3284 2 17 2.67157 17 3.5V5H0V3.5Z" fill="#222141"/>
<path d="M0 6H10H17V11H10V17H1.5C0.671573 17 0 16.3284 0 15.5V6Z" fill="#222141"/>
<path d="M4 1C4 0.447715 4.44772 0 5 0C5.55228 0 6 0.447715 6 1V2H4V1Z" fill="#222141"/>
<path d="M12 1C12 0.447715 12.4477 0 13 0C13.5523 0 14 0.447715 14 1V2H12V1Z" fill="#222141"/>
<rect x="4" y="2" width="2" height="1" fill="white"/>
<rect x="12" y="2" width="2" height="1" fill="white"/>
<path d="M11.4023 12.5C11.4023 12.2239 11.6262 12 11.9023 12H15.1781C15.6387 12 15.8543 12.57 15.509 12.8748L12.2332 15.7665C11.9104 16.0515 11.4023 15.8223 11.4023 15.3917V12.5Z" fill="#222141"/>
</svg>
