<svg width="25" height="19" viewBox="0 0 25 19" fill="none" xmlns="http://www.w3.org/2000/svg">
<g clip-path="url(#clip0_291_7308)">
<path d="M6.06486 0H18.9351C19.1974 0.0010948 19.4486 0.107892 19.6338 0.297072C19.8191 0.486252 19.9234 0.742446 19.9239 1.00971V17.9924C19.9218 18.2593 19.8166 18.5146 19.6312 18.7032C19.4458 18.8918 19.195 18.9984 18.9331 19H6.06486C5.80437 18.9962 5.55579 18.8882 5.37272 18.6993C5.18965 18.5104 5.08677 18.2558 5.08626 17.9903V1.00971C5.08643 0.877307 5.11242 0.746255 5.16271 0.624172C5.21301 0.502089 5.2866 0.391408 5.37923 0.29856C5.56003 0.110547 5.80656 0.00319358 6.06486 0ZM21.9849 2.07333L24.1455 1.65866C24.372 1.6603 24.5887 1.75285 24.7487 1.91625C24.9086 2.07965 24.9989 2.30073 25 2.53154V16.4705C24.9988 16.696 24.912 16.9122 24.7579 17.0739V17.0842C24.678 17.1662 24.5829 17.2312 24.4781 17.2753C24.3733 17.3194 24.2609 17.3419 24.1475 17.3413H22.0154C21.993 17.3413 21.9709 17.3368 21.9503 17.328C21.9297 17.3193 21.911 17.3064 21.8953 17.2902C21.8795 17.274 21.8671 17.2548 21.8588 17.2337C21.8504 17.2125 21.8462 17.1899 21.8465 17.1672V2.2392C21.8463 2.19882 21.8601 2.15967 21.8854 2.12859C21.9107 2.09751 21.9459 2.07648 21.9849 2.06918V2.07333ZM0.897217 1.65866L3.01514 2.07333C3.0541 2.08063 3.08931 2.10165 3.11461 2.13273C3.1399 2.16381 3.15366 2.20297 3.15348 2.24334V17.1713C3.15375 17.1941 3.14958 17.2167 3.14122 17.2378C3.13285 17.2589 3.12046 17.2781 3.10475 17.2943C3.08904 17.3105 3.07034 17.3234 3.04971 17.3322C3.02909 17.341 3.00697 17.3455 2.98462 17.3455H0.854492C0.741107 17.346 0.628746 17.3236 0.523958 17.2795C0.41917 17.2353 0.32405 17.1704 0.244141 17.0884V17.078C0.0882948 16.9156 0.000714211 16.6977 0 16.4705L0 2.53154C0.00106518 2.30073 0.0913696 2.07965 0.25133 1.91625C0.41129 1.75285 0.62801 1.6603 0.854492 1.65866H0.897217Z" fill="#222141"/>
</g>
<defs>
<clipPath id="clip0_291_7308">
<rect width="25" height="19" fill="white"/>
</clipPath>
</defs>
</svg>
