<svg width="60" height="54" viewBox="0 0 60 54" fill="none" xmlns="http://www.w3.org/2000/svg">
<path d="M16.1782 52.3333H14.7137V53.8915H59.2922C59.3849 53.8922 59.4768 53.8743 59.5627 53.8389C59.6485 53.8035 59.7266 53.7513 59.7924 53.6853C59.8582 53.6193 59.9104 53.5408 59.946 53.4543C59.9817 53.3678 60 53.2751 60 53.1814V16.1985C59.9995 15.9228 59.8906 15.6585 59.6973 15.4638C59.5033 15.2669 59.2402 15.1553 58.9651 15.1532H43.637V1.25251C43.6372 0.946966 43.526 0.652044 43.3246 0.424096L43.2709 0.364923C43.1557 0.248298 43.0187 0.155977 42.8678 0.0933326C42.717 0.0306882 42.5553 -0.00102924 42.3922 2.54651e-05H15.8707C15.7077 -0.000486309 15.5461 0.0314792 15.3954 0.0940928C15.2446 0.156706 15.1075 0.248739 14.992 0.364923C14.7879 0.572855 14.6633 0.847165 14.6405 1.1391V21.5635L16.1831 23.8713V1.56317H42.0896V52.353H43.6321V16.6571H58.5014V52.3333H53.942V44.8726C53.9426 44.8023 53.9295 44.7325 53.9033 44.6673C53.8771 44.6021 53.8383 44.5428 53.7893 44.4929C53.7403 44.4429 53.6819 44.4032 53.6177 44.3761C53.5534 44.3491 53.4844 44.3351 53.4148 44.3351H47.4349C47.2937 44.3351 47.1584 44.3918 47.0586 44.4926C46.9588 44.5934 46.9028 44.7301 46.9028 44.8726V52.3432H35.6752V41.771C35.6752 41.6771 35.6569 41.5841 35.6213 41.4974C35.5857 41.4106 35.5336 41.3318 35.4679 41.2654C35.4021 41.199 35.3241 41.1463 35.2382 41.1104C35.1523 41.0745 35.0603 41.056 34.9673 41.056H23.2906C23.1979 41.056 23.1061 41.0745 23.0205 41.1105C22.9349 41.1465 22.8572 41.1992 22.7919 41.2657C22.7265 41.3322 22.6748 41.411 22.6398 41.4977C22.6048 41.5845 22.5871 41.6773 22.5877 41.771V42.9002L22.7927 43.1566C22.8349 43.2068 22.874 43.2595 22.9099 43.3144C23.2299 43.7755 23.4267 44.3122 23.481 44.8726C23.545 45.4143 23.4883 45.9635 23.3151 46.4801C23.1624 46.9388 22.9144 47.3591 22.5877 47.7129V52.3432H14.6942V48.6646H16.1587V52.3333H16.1782ZM1.23087 46.2977C-0.00416683 46.421 -0.272653 45.3657 0.259438 44.4929L5.03361 38.5313L4.89692 38.3834H2.33898C1.41637 38.5313 1.06978 37.4612 1.63604 36.7117L6.77632 30.3014H5.2728C4.33066 30.3014 4.10123 29.4039 4.70166 28.536L9.39284 21.3466C9.71014 20.9422 10.0519 20.3603 10.6084 20.3603C11.0965 20.3603 11.3796 20.8535 11.6628 21.2036L16.642 28.6445C16.7735 28.8 16.8563 28.9916 16.8798 29.1948C16.9032 29.398 16.8662 29.6037 16.7736 29.7856C16.6809 29.9675 16.5367 30.1175 16.3594 30.2163C16.1821 30.3152 15.9797 30.3585 15.7779 30.3408H14.4355L19.5221 36.7117C19.6574 36.841 19.757 37.0035 19.8113 37.1834C19.8657 37.3633 19.8727 37.5544 19.8319 37.7379C19.791 37.9214 19.7036 38.091 19.5783 38.2301C19.4529 38.3692 19.2939 38.473 19.1169 38.5313H16.1684L20.6156 44.0935L21.1037 44.705C21.2014 44.8424 21.2638 45.0022 21.2852 45.17C21.3066 45.3378 21.2864 45.5083 21.2263 45.6663C21.1663 45.8242 21.0684 45.9646 20.9413 46.0748C20.8142 46.185 20.662 46.2616 20.4984 46.2977H12.4633V54H8.69966V46.2977H1.23087ZM52.8827 52.3333H47.9621V45.3953H52.8827V52.3333ZM51.7404 19.7242H55.5675C55.5968 19.7242 55.6261 19.7686 55.6261 19.8229V22.3377C55.6261 22.3821 55.5968 22.4314 55.5675 22.4314H51.7404C51.7111 22.4314 51.6818 22.387 51.6818 22.3377V19.8327C51.6818 19.7785 51.7111 19.7341 51.7404 19.7341V19.7242ZM51.7404 37.0963H55.5675C55.5968 37.0963 55.6261 37.1407 55.6261 37.1851V39.6901C55.6261 39.7394 55.5968 39.7838 55.5675 39.7838H51.7404C51.7111 39.7838 51.6818 39.7443 51.6818 39.6901V37.195C51.6818 37.1506 51.7111 37.1062 51.7404 37.1062V37.0963ZM45.2919 37.0963H49.1141C49.1483 37.0963 49.1727 37.1407 49.1727 37.1851V39.6901C49.1727 39.7394 49.1727 39.7838 49.1141 39.7838H45.287C45.2528 39.7838 45.2284 39.7443 45.2284 39.6901V37.195C45.2284 37.1506 45.2284 37.1062 45.287 37.1062L45.2919 37.0963ZM51.7404 31.3172H55.5675C55.5968 31.3172 55.6261 31.3566 55.6261 31.4108V33.9158C55.6261 33.9651 55.5968 34.0095 55.5675 34.0095H51.7404C51.7111 34.0095 51.6818 33.9701 51.6818 33.9158V31.4108C51.6818 31.3517 51.7111 31.3172 51.7404 31.3172ZM51.7404 25.5281H55.5675C55.5968 25.5281 55.6261 25.5675 55.6261 25.6218V28.107C55.6261 28.1514 55.5968 28.2007 55.5675 28.2007H51.7404C51.7111 28.2007 51.6818 28.1563 51.6818 28.107V25.6415C51.6818 25.5873 51.7111 25.5478 51.7404 25.5478V25.5281ZM45.287 19.7242H49.1092C49.1434 19.7242 49.1678 19.7686 49.1678 19.8229V22.3377C49.1678 22.3821 49.1678 22.4314 49.1092 22.4314H45.287C45.2528 22.4314 45.2284 22.387 45.2284 22.3377V19.8327C45.2284 19.7785 45.2284 19.7341 45.287 19.7341V19.7242ZM45.287 31.3073H49.1092C49.1434 31.3073 49.1678 31.3467 49.1678 31.401V33.906C49.1678 33.9553 49.1678 33.9996 49.1092 33.9996H45.287C45.2528 33.9996 45.2284 33.9602 45.2284 33.906V31.4108C45.2284 31.3517 45.2284 31.3172 45.287 31.3172V31.3073ZM45.287 25.5182H49.1092C49.1434 25.5182 49.1678 25.5577 49.1678 25.6119V28.107C49.1678 28.1514 49.1678 28.2007 49.1092 28.2007H45.287C45.2528 28.2007 45.2284 28.1563 45.2284 28.107V25.6415C45.2284 25.5873 45.2284 25.5478 45.287 25.5478V25.5182ZM34.2644 52.3333H24.0131V42.4712H34.2644V52.3333ZM19.9028 5.48829H24.0619C24.0773 5.48829 24.0926 5.49135 24.1068 5.4973C24.121 5.50324 24.1339 5.51196 24.1448 5.52295C24.1557 5.53394 24.1643 5.54699 24.1702 5.56135C24.1761 5.5757 24.1791 5.59109 24.1791 5.60663V9.81282C24.1791 9.82836 24.1761 9.84375 24.1702 9.85811C24.1643 9.87247 24.1557 9.88552 24.1448 9.89651C24.1339 9.9075 24.121 9.91621 24.1068 9.92216C24.0926 9.92811 24.0773 9.93117 24.0619 9.93117H19.9028C19.8713 9.93119 19.841 9.91889 19.8182 9.89682C19.7955 9.87476 19.7821 9.84466 19.7808 9.81282V5.61157C19.7821 5.57973 19.7955 5.54963 19.8182 5.52757C19.841 5.5055 19.8713 5.49319 19.9028 5.49322V5.48829ZM34.2009 5.48829H38.3649C38.396 5.48829 38.4258 5.50076 38.4478 5.52295C38.4697 5.54515 38.4821 5.57525 38.4821 5.60663V9.81282C38.4821 9.84421 38.4697 9.87431 38.4478 9.89651C38.4258 9.9187 38.396 9.93117 38.3649 9.93117H34.2009C34.1699 9.93117 34.1401 9.9187 34.1181 9.89651C34.0961 9.87431 34.0838 9.84421 34.0838 9.81282V5.61157C34.0838 5.58018 34.0961 5.55008 34.1181 5.52788C34.1401 5.50569 34.1699 5.49322 34.2009 5.49322V5.48829ZM27.0495 5.48829H31.2378C31.2689 5.48829 31.2987 5.50076 31.3207 5.52295C31.3426 5.54515 31.355 5.57525 31.355 5.60663V9.81282C31.355 9.84421 31.3426 9.87431 31.3207 9.89651C31.2987 9.9187 31.2689 9.93117 31.2378 9.93117H27.0495C27.0184 9.93117 26.9886 9.9187 26.9666 9.89651C26.9446 9.87431 26.9323 9.84421 26.9323 9.81282V5.61157C26.9323 5.58018 26.9446 5.55008 26.9666 5.52788C26.9886 5.50569 27.0184 5.49322 27.0495 5.49322V5.48829ZM19.9028 14.5959H24.0619C24.0773 14.5959 24.0926 14.599 24.1068 14.605C24.121 14.6109 24.1339 14.6196 24.1448 14.6306C24.1557 14.6416 24.1643 14.6546 24.1702 14.669C24.1761 14.6834 24.1791 14.6987 24.1791 14.7143V18.9205C24.1791 18.936 24.1761 18.9514 24.1702 18.9658C24.1643 18.9801 24.1557 18.9932 24.1448 19.0042C24.1339 19.0152 24.121 19.0239 24.1068 19.0298C24.0926 19.0358 24.0773 19.0388 24.0619 19.0388H19.9028C19.8713 19.0389 19.841 19.0265 19.8182 19.0045C19.7955 18.9824 19.7821 18.9523 19.7808 18.9205V14.7143C19.7821 14.6825 19.7955 14.6524 19.8182 14.6303C19.841 14.6082 19.8713 14.5959 19.9028 14.5959ZM34.2009 14.5959H38.3649C38.396 14.5959 38.4258 14.6084 38.4478 14.6306C38.4697 14.6528 38.4821 14.6829 38.4821 14.7143V18.9205C38.4821 18.9519 38.4697 18.982 38.4478 19.0042C38.4258 19.0264 38.396 19.0388 38.3649 19.0388H34.2009C34.1699 19.0388 34.1401 19.0264 34.1181 19.0042C34.0961 18.982 34.0838 18.9519 34.0838 18.9205V14.7143C34.0838 14.6829 34.0961 14.6528 34.1181 14.6306C34.1401 14.6084 34.1699 14.5959 34.2009 14.5959ZM27.0495 14.5959H31.2378C31.2689 14.5959 31.2987 14.6084 31.3207 14.6306C31.3426 14.6528 31.355 14.6829 31.355 14.7143V18.9205C31.355 18.9519 31.3426 18.982 31.3207 19.0042C31.2987 19.0264 31.2689 19.0388 31.2378 19.0388H27.0495C27.0184 19.0388 26.9886 19.0264 26.9666 19.0042C26.9446 18.982 26.9323 18.9519 26.9323 18.9205V14.7143C26.9323 14.6829 26.9446 14.6528 26.9666 14.6306C26.9886 14.6084 27.0184 14.5959 27.0495 14.5959ZM19.9028 32.8063H24.0619C24.093 32.8063 24.1228 32.8188 24.1448 32.841C24.1668 32.8632 24.1791 32.8933 24.1791 32.9247V37.1259C24.1791 37.1578 24.1669 37.1884 24.1451 37.2114C24.1233 37.2344 24.0934 37.2479 24.0619 37.2492H22.08C22.0704 37.1034 22.0509 36.9584 22.0214 36.8153C21.9006 36.1878 21.6138 35.605 21.1916 35.1289L19.7808 33.3685V32.9247C19.7821 32.8928 19.7955 32.8627 19.8182 32.8407C19.841 32.8186 19.8713 32.8063 19.9028 32.8063ZM34.2009 32.8063H38.3649C38.396 32.8063 38.4258 32.8188 38.4478 32.841C38.4697 32.8632 38.4821 32.8933 38.4821 32.9247V37.1259C38.4821 37.1578 38.4699 37.1884 38.4481 37.2114C38.4262 37.2344 38.3964 37.2479 38.3649 37.2492H34.2009C34.1694 37.2479 34.1396 37.2344 34.1178 37.2114C34.0959 37.1884 34.0838 37.1578 34.0838 37.1259V32.9247C34.0838 32.8933 34.0961 32.8632 34.1181 32.841C34.1401 32.8188 34.1699 32.8063 34.2009 32.8063ZM27.0495 32.8063H31.2378C31.2689 32.8063 31.2987 32.8188 31.3207 32.841C31.3426 32.8632 31.355 32.8933 31.355 32.9247V37.1259C31.355 37.1578 31.3428 37.1884 31.321 37.2114C31.2991 37.2344 31.2693 37.2479 31.2378 37.2492H27.0495C27.0179 37.2479 26.9881 37.2344 26.9663 37.2114C26.9445 37.1884 26.9323 37.1578 26.9323 37.1259V32.9247C26.9323 32.8933 26.9446 32.8632 26.9666 32.841C26.9886 32.8188 27.0184 32.8063 27.0495 32.8063ZM19.9028 23.7036H24.0619C24.0773 23.7036 24.0926 23.7067 24.1068 23.7126C24.121 23.7186 24.1339 23.7273 24.1448 23.7383C24.1557 23.7493 24.1643 23.7623 24.1702 23.7767C24.1761 23.791 24.1791 23.8064 24.1791 23.8219V28.0232C24.1791 28.0387 24.1761 28.0541 24.1702 28.0685C24.1643 28.0829 24.1557 28.0959 24.1448 28.1069C24.1339 28.1179 24.121 28.1266 24.1068 28.1325C24.0926 28.1385 24.0773 28.1416 24.0619 28.1416H19.9028C19.8713 28.1416 19.841 28.1293 19.8182 28.1072C19.7955 28.0851 19.7821 28.055 19.7808 28.0232V23.8219C19.7821 23.7901 19.7955 23.76 19.8182 23.7379C19.841 23.7159 19.8713 23.7036 19.9028 23.7036ZM34.2009 23.7036H38.3649C38.396 23.7036 38.4258 23.7161 38.4478 23.7383C38.4697 23.7605 38.4821 23.7906 38.4821 23.8219V28.0232C38.4821 28.0546 38.4697 28.0847 38.4478 28.1069C38.4258 28.1291 38.396 28.1416 38.3649 28.1416H34.2009C34.1699 28.1416 34.1401 28.1291 34.1181 28.1069C34.0961 28.0847 34.0838 28.0546 34.0838 28.0232V23.8219C34.0838 23.7906 34.0961 23.7605 34.1181 23.7383C34.1401 23.7161 34.1699 23.7036 34.2009 23.7036ZM27.0495 23.7036H31.2378C31.2689 23.7036 31.2987 23.7161 31.3207 23.7383C31.3426 23.7605 31.355 23.7906 31.355 23.8219V28.0232C31.355 28.0546 31.3426 28.0847 31.3207 28.1069C31.2987 28.1291 31.2689 28.1416 31.2378 28.1416H27.0495C27.0184 28.1416 26.9886 28.1291 26.9666 28.1069C26.9446 28.0847 26.9323 28.0546 26.9323 28.0232V23.8219C26.9323 23.7906 26.9446 23.7605 26.9666 23.7383C26.9886 23.7161 27.0184 23.7036 27.0495 23.7036Z" fill="#222141"/>
<rect x="0.5" y="0.5" width="59" height="16" rx="1.5" fill="white"/>
<rect x="0.5" y="0.5" width="59" height="16" rx="1.5" stroke="#222141"/>
<path d="M11.584 7.77344H10.0286C10.0002 7.57221 9.94216 7.39347 9.85456 7.23722C9.76697 7.0786 9.65452 6.94366 9.51721 6.83239C9.3799 6.72112 9.22128 6.63589 9.04135 6.5767C8.8638 6.51752 8.67085 6.48793 8.46252 6.48793C8.0861 6.48793 7.75821 6.58144 7.47885 6.76847C7.1995 6.95312 6.98288 7.22301 6.829 7.57812C6.67511 7.93087 6.59817 8.35937 6.59817 8.86364C6.59817 9.3821 6.67511 9.81771 6.829 10.1705C6.98525 10.5232 7.20305 10.7895 7.4824 10.9695C7.76176 11.1494 8.08491 11.2393 8.45187 11.2393C8.65783 11.2393 8.84841 11.2121 9.0236 11.1577C9.20116 11.1032 9.35859 11.0239 9.4959 10.9197C9.63321 10.8132 9.74685 10.6842 9.83681 10.5327C9.92914 10.3812 9.99306 10.2083 10.0286 10.0142L11.584 10.0213C11.5437 10.3551 11.4431 10.6771 11.2821 10.9872C11.1235 11.295 10.9093 11.5708 10.6394 11.8146C10.3718 12.0561 10.0522 12.2479 9.68056 12.3899C9.31124 12.5296 8.89339 12.5994 8.42701 12.5994C7.77833 12.5994 7.19831 12.4527 6.68695 12.1591C6.17795 11.8655 5.77549 11.4406 5.47956 10.8842C5.186 10.3279 5.03922 9.65436 5.03922 8.86364C5.03922 8.07055 5.18837 7.39583 5.48667 6.83949C5.78496 6.28314 6.18979 5.85937 6.70115 5.56818C7.21252 5.27462 7.7878 5.12784 8.42701 5.12784C8.84841 5.12784 9.23903 5.18703 9.59888 5.3054C9.9611 5.42377 10.2819 5.59659 10.5612 5.82386C10.8406 6.04877 11.0679 6.32457 11.2431 6.65128C11.4206 6.97798 11.5343 7.35204 11.584 7.77344ZM13.9242 5.22727V12.5H12.3866V5.22727H13.9242ZM14.6123 6.49503V5.22727H20.5854V6.49503H18.3588V12.5H16.8389V6.49503H14.6123ZM20.8429 5.22727H22.5652L24.2236 8.35938H24.2946L25.953 5.22727H27.6753L25.0226 9.92898V12.5H23.4956V9.92898L20.8429 5.22727ZM31.5435 5.22727L33.3013 10.7528H33.3688L35.1301 5.22727H36.8347L34.3276 12.5H32.346L29.8354 5.22727H31.5435ZM38.9477 5.22727V12.5H37.41V5.22727H38.9477ZM39.9128 12.5V5.22727H44.8133V6.49503H41.4504V8.22798H44.5612V9.49574H41.4504V11.2322H44.8275V12.5H39.9128ZM47.3729 12.5L45.2919 5.22727H46.9716L48.1754 10.2805H48.2358L49.5639 5.22727H51.0021L52.3267 10.2912H52.3906L53.5945 5.22727H55.2742L53.1932 12.5H51.6946L50.3097 7.74503H50.2529L48.8715 12.5H47.3729Z" fill="#222141"/>
</svg>
