<svg width="24" height="16" viewBox="0 0 24 16" fill="none" xmlns="http://www.w3.org/2000/svg">
<rect x="0.166667" y="0.166667" width="23" height="15.6667" rx="1.16667" fill="#1F72CD" stroke="#D9D9D9" stroke-width="0.333333"/>
<path fill-rule="evenodd" clip-rule="evenodd" d="M4.45277 5.66602L2.33203 10.4972H4.87086L5.1856 9.72689H5.90502L6.21976 10.4972H9.01429V9.90927L9.2633 10.4972H10.7089L10.9579 9.89684V10.4972H16.7697L17.4764 9.74689L18.1381 10.4972L21.1232 10.5034L18.9958 8.09508L21.1232 5.66602H18.1844L17.4965 6.40243L16.8556 5.66602H10.5331L9.99016 6.91298L9.43451 5.66602H6.90099V6.23392L6.61915 5.66602H4.45277ZM13.1316 6.35209H16.469L17.4898 7.48714L18.5434 6.35209H19.5642L18.0133 8.09445L19.5642 9.81672H18.4971L17.4764 8.66849L16.4173 9.81672H13.1316V6.35209ZM13.9558 7.70274V7.0699V7.0693H16.0382L16.9469 8.08137L15.998 9.09897H13.9558V8.40809H15.7765V7.70274H13.9558ZM4.94396 6.35209H6.1815L7.58819 9.62813V6.35209H8.94386L10.0304 8.70099L11.0317 6.35209H12.3806V9.81877H11.5598L11.5531 7.1023L10.3565 9.81877H9.62229L8.41898 7.1023V9.81877H6.73045L6.41034 9.04159H4.68089L4.36144 9.81809H3.45675L4.94396 6.35209ZM4.9762 8.32309L5.54598 6.9386L6.11511 8.32309H4.9762Z" fill="white"/>
</svg>
