<svg width="24" height="16" viewBox="0 0 24 16" fill="none" xmlns="http://www.w3.org/2000/svg">
<rect x="0.166667" y="0.166667" width="23" height="15.6667" rx="1.16667" fill="white" stroke="#D9D9D9" stroke-width="0.333333"/>
<path fill-rule="evenodd" clip-rule="evenodd" d="M7.08351 10.8382H5.66996L4.60997 6.79429C4.55966 6.60827 4.45283 6.44381 4.29569 6.36631C3.90354 6.17152 3.47141 6.01651 3 5.93832V5.78263H5.27711C5.59139 5.78263 5.8271 6.01651 5.86638 6.28812L6.41636 9.20513L7.82922 5.78263H9.20348L7.08351 10.8382ZM9.98919 10.8382H8.65422L9.75349 5.78263H11.0885L9.98919 10.8382ZM12.8156 7.18316C12.8549 6.91087 13.0906 6.75518 13.3656 6.75518C13.7977 6.71609 14.2684 6.79427 14.6613 6.98838L14.897 5.89989C14.5041 5.7442 14.072 5.66602 13.6798 5.66602C12.3841 5.66602 11.4413 6.36629 11.4413 7.33817C11.4413 8.07754 12.1092 8.46575 12.5806 8.69963C13.0906 8.93283 13.287 9.08852 13.2477 9.32172C13.2477 9.67151 12.8549 9.82721 12.4627 9.82721C11.9913 9.82721 11.5199 9.71061 11.0884 9.51582L10.8527 10.605C11.3242 10.7991 11.8342 10.8773 12.3056 10.8773C13.7584 10.9157 14.6613 10.2161 14.6613 9.16602C14.6613 7.84366 12.8156 7.76616 12.8156 7.18316ZM19.3333 10.8382L18.2733 5.78263H17.1348C16.8991 5.78263 16.6634 5.93832 16.5848 6.17152L14.6219 10.8382H15.9962L16.2705 10.0995H17.9591L18.1162 10.8382H19.3333ZM17.3312 7.14404L17.7234 9.0494H16.6241L17.3312 7.14404Z" fill="#172B85"/>
</svg>
