<svg width="24" height="16" viewBox="0 0 24 16" fill="none" xmlns="http://www.w3.org/2000/svg">
<rect x="0.166667" y="0.166667" width="23" height="15.6667" rx="1.16667" fill="white" stroke="#D9D9D9" stroke-width="0.333333"/>
<path d="M10 15.3333L22.6667 11.5V14.6667C22.6667 15.0349 22.3682 15.3333 22 15.3333H10Z" fill="#FD6020"/>
<path d="M10.124 6.07422C10.3679 6.07422 10.6474 6.10968 10.8564 6.25293V6.96973C10.6822 6.75482 10.4028 6.61133 10.124 6.61133C9.60164 6.64512 9.17163 7.08804 9.14844 7.61523V7.79395C9.14863 8.3668 9.60187 8.79681 10.1592 8.79688C10.4379 8.79688 10.6822 8.65338 10.8564 8.43848V9.1543C10.6126 9.26172 10.3685 9.33395 10.0898 9.33398C9.2189 9.33398 8.52169 8.5818 8.52148 7.68652C8.52148 6.75541 9.21832 6.00287 10.124 6.07422ZM15.5947 8.22363L16.4307 6.07422H17.0586L15.7686 9.33398H15.4551L14.166 6.07422H14.793L15.5947 8.22363ZM7.33691 6.00293C7.6505 6.00293 7.96411 6.14642 8.20801 6.36133L7.89453 6.79102C7.75516 6.64774 7.58047 6.54004 7.40625 6.54004C7.19738 6.50453 7.0231 6.68367 6.98828 6.89844C6.9884 7.07727 7.09331 7.14885 7.44141 7.29199C8.13827 7.57854 8.31281 7.79382 8.34766 8.22363V8.33105C8.31272 8.90404 7.85918 9.33367 7.30176 9.29785C6.88389 9.29771 6.46588 9.08312 6.25684 8.68945L6.64062 8.29492C6.74517 8.54561 6.98886 8.72461 7.26758 8.72461H7.30176C7.51082 8.72461 7.7207 8.50951 7.7207 8.25879C7.72057 8.11573 7.65033 8.00809 7.5459 7.93652C7.40662 7.86493 7.26721 7.79361 7.12793 7.75781C6.57058 7.57877 6.39657 7.32806 6.39648 6.89844V6.8623C6.43133 6.36089 6.84915 5.96716 7.33691 6.00293ZM3.71289 6.07422C4.54894 6.11003 5.21129 6.82617 5.17676 7.68555C5.17676 8.15117 4.96756 8.58194 4.61914 8.9043C4.3056 9.1549 3.92224 9.29753 3.53906 9.26172H2.66797V6.07422H3.71289ZM6.0127 9.26172H5.4209V6.07422H6.0127V9.26172ZM19.0098 6.61133H17.9297V7.32812H18.9746V7.86523H17.9297V8.72461H19.0098V9.26172H17.3369V6.07422H19.0098V6.61133ZM20.2637 6.07422C20.9605 6.07422 21.3437 6.39701 21.3438 7.00586C21.3784 7.47133 21.0645 7.86491 20.6465 7.93652L21.5879 9.26172H20.8564L20.0547 7.97266H19.9854V9.26172H19.3926V6.07422H20.2637ZM3.43457 6.61133H3.26074V8.72461H3.43457C3.71332 8.76043 4.02727 8.65272 4.23633 8.47363C4.44508 8.2588 4.54978 7.97249 4.5498 7.65039C4.54978 7.36396 4.44525 7.07717 4.23633 6.8623C4.02727 6.68325 3.71328 6.57552 3.43457 6.61133ZM19.9854 7.54297H20.1592C20.5424 7.54296 20.7168 7.36337 20.7168 7.04102C20.7166 6.75473 20.5422 6.57618 20.1592 6.57617H19.9854V7.54297Z" fill="black"/>
<path fill-rule="evenodd" clip-rule="evenodd" d="M12.634 6C11.763 6 11.0312 6.71636 11.0312 7.64763C11.0312 8.54308 11.7281 9.29525 12.634 9.33107C13.54 9.36689 14.2368 8.61471 14.2717 7.68344C14.2368 6.75218 13.54 6 12.634 6V6Z" fill="#FD6020"/>
</svg>
