<svg width="24" height="16" viewBox="0 0 24 16" fill="none" xmlns="http://www.w3.org/2000/svg">
<rect x="0.166667" y="0.166667" width="23" height="15.6667" rx="1.16667" fill="white" stroke="#D9D9D9" stroke-width="0.333333"/>
<path d="M14.7832 3.33398C17.2954 3.33416 19.3318 5.39422 19.332 7.93555C19.332 10.477 17.2955 12.5379 14.7832 12.5381C13.6567 12.5381 12.6266 12.1226 11.832 11.4365C11.0375 12.1226 10.0073 12.5381 8.88086 12.5381C6.36858 12.5379 4.33203 10.477 4.33203 7.93555C4.33226 5.39425 6.36872 3.33418 8.88086 3.33398C10.0071 3.33398 11.0376 3.74874 11.832 4.43457C12.6265 3.74872 13.6569 3.33398 14.7832 3.33398Z" fill="#ED0006"/>
<path d="M14.7832 3.33398C17.2954 3.33416 19.3318 5.39422 19.332 7.93555C19.332 10.477 17.2955 12.5379 14.7832 12.5381C13.6567 12.5381 12.6266 12.1226 11.832 11.4365C12.8096 10.5924 13.4307 9.33761 13.4307 7.93555C13.4305 6.53345 12.8097 5.27858 11.832 4.43457C12.6265 3.74872 13.6569 3.33398 14.7832 3.33398Z" fill="#F9A000"/>
<path d="M11.832 4.43555C12.8099 5.27956 13.4305 6.53426 13.4307 7.93652C13.4307 9.33876 12.8098 10.5934 11.832 11.4375C10.8547 10.5934 10.2344 9.3384 10.2344 7.93652C10.2345 6.53462 10.8546 5.27955 11.832 4.43555Z" fill="#FF5E00"/>
</svg>
