<svg width="30" height="22" viewBox="0 0 30 22" fill="none" xmlns="http://www.w3.org/2000/svg">
<rect x="2" y="6" width="22" height="15" rx="1" fill="#C7C7D7"/>
<path d="M2 7C2 6.44772 2.44772 6 3 6H23C23.5523 6 24 6.44772 24 7V10H2V7Z" fill="#9090A0"/>
<rect x="4" y="13" width="18" height="2" rx="1" fill="#FCFCFC"/>
<g clip-path="url(#clip0_3033_5978)">
<path d="M21 15C24.3137 15 27 12.3137 27 9C27 5.68629 24.3137 3 21 3C17.6863 3 15 5.68629 15 9C15 12.3137 17.6863 15 21 15Z" fill="#9090A0"/>
<path d="M18.1055 6.64941V10.9268H17.3291V7.55469L16.3008 7.89453V7.26758L18.0176 6.64941H18.1055Z" fill="#FCFCFC"/>
<path d="M22.4297 10.3174V10.9268H19.541V10.4053L20.9268 8.9082C21.0713 8.74414 21.1855 8.60156 21.2695 8.48047C21.3535 8.35938 21.4131 8.25 21.4482 8.15234C21.4854 8.05273 21.5039 7.95801 21.5039 7.86816C21.5039 7.7373 21.4805 7.62305 21.4336 7.52539C21.3867 7.42578 21.3184 7.34863 21.2285 7.29395C21.1406 7.23926 21.0322 7.21191 20.9033 7.21191C20.7607 7.21191 20.6387 7.24512 20.5371 7.31152C20.4375 7.37598 20.3613 7.46582 20.3086 7.58105C20.2578 7.69629 20.2324 7.82812 20.2324 7.97656H19.4561C19.4561 7.72461 19.5146 7.49512 19.6318 7.28809C19.749 7.0791 19.917 6.91211 20.1357 6.78711C20.3545 6.66211 20.6143 6.59961 20.915 6.59961C21.208 6.59961 21.4561 6.64844 21.6592 6.74609C21.8623 6.8418 22.0166 6.97852 22.1221 7.15625C22.2275 7.33398 22.2803 7.5459 22.2803 7.79199C22.2803 7.92871 22.2578 8.06348 22.2129 8.19629C22.168 8.3291 22.1045 8.46094 22.0225 8.5918C21.9424 8.7207 21.8467 8.85156 21.7354 8.98438C21.624 9.11719 21.5 9.25293 21.3633 9.3916L20.5312 10.3174H22.4297Z" fill="#FCFCFC"/>
<path d="M23.8154 8.45117H24.252C24.4062 8.45117 24.5332 8.4248 24.6328 8.37207C24.7344 8.31738 24.8096 8.24316 24.8584 8.14941C24.9092 8.05371 24.9346 7.94336 24.9346 7.81836C24.9346 7.69531 24.9121 7.58887 24.8672 7.49902C24.8223 7.40723 24.7539 7.33691 24.6621 7.28809C24.5723 7.2373 24.457 7.21191 24.3164 7.21191C24.2031 7.21191 24.0986 7.23438 24.0029 7.2793C23.9092 7.32422 23.834 7.38867 23.7773 7.47266C23.7227 7.55469 23.6953 7.65332 23.6953 7.76855H22.9189C22.9189 7.53809 22.9795 7.33594 23.1006 7.16211C23.2236 6.98633 23.3896 6.84863 23.5986 6.74902C23.8076 6.64941 24.041 6.59961 24.2988 6.59961C24.5801 6.59961 24.8262 6.64648 25.0371 6.74023C25.25 6.83203 25.415 6.96777 25.5322 7.14746C25.6514 7.32715 25.7109 7.5498 25.7109 7.81543C25.7109 7.94238 25.6807 8.06934 25.6201 8.19629C25.5615 8.32129 25.4746 8.43457 25.3594 8.53613C25.2461 8.63574 25.1064 8.7168 24.9404 8.7793C24.7764 8.83984 24.5879 8.87012 24.375 8.87012H23.8154V8.45117ZM23.8154 9.04883V8.63574H24.375C24.6152 8.63574 24.8232 8.66406 24.999 8.7207C25.1768 8.77539 25.3232 8.85352 25.4385 8.95508C25.5537 9.05469 25.6387 9.1709 25.6934 9.30371C25.75 9.43652 25.7783 9.5791 25.7783 9.73145C25.7783 9.93066 25.7412 10.1084 25.667 10.2646C25.5928 10.4189 25.4883 10.5498 25.3535 10.6572C25.2207 10.7646 25.0645 10.8467 24.8848 10.9033C24.7051 10.958 24.5107 10.9854 24.3018 10.9854C24.1201 10.9854 23.9434 10.9609 23.7715 10.9121C23.6016 10.8613 23.4482 10.7861 23.3115 10.6865C23.1748 10.585 23.0664 10.458 22.9863 10.3057C22.9062 10.1514 22.8662 9.97266 22.8662 9.76953H23.6426C23.6426 9.88672 23.6709 9.99121 23.7275 10.083C23.7861 10.1748 23.8662 10.2471 23.9678 10.2998C24.0713 10.3506 24.1875 10.376 24.3164 10.376C24.459 10.376 24.5811 10.3506 24.6826 10.2998C24.7861 10.2471 24.8652 10.1729 24.9199 10.0771C24.9746 9.97949 25.002 9.86328 25.002 9.72852C25.002 9.56836 24.9717 9.43848 24.9111 9.33887C24.8506 9.23926 24.7637 9.16602 24.6504 9.11914C24.5391 9.07227 24.4062 9.04883 24.252 9.04883H23.8154Z" fill="#FCFCFC"/>
</g>
<defs>
<clipPath id="clip0_3033_5978">
<rect width="12" height="12" fill="white" transform="translate(15 3)"/>
</clipPath>
</defs>
</svg>
