<svg width="85" height="85" viewBox="0 0 85 85" fill="none" xmlns="http://www.w3.org/2000/svg">
<path d="M29.0076 0C30.5091 0 31.7255 1.21053 31.7255 2.70467C31.7255 4.19881 30.5091 5.40934 29.0076 5.40934H5.43588V28.4509C5.43588 29.9451 4.21941 31.1556 2.71794 31.1556C1.21647 31.1556 0 29.9451 0 28.4509V2.70467C0 1.21053 1.21647 0 2.71794 0H29.0076ZM23.245 49.4934C24.8299 47.2314 26.9987 45.6612 30.1685 45.2946H53.7541C57.4174 45.9587 59.9963 47.9716 61.7619 51.0014V65.1196H23.245V49.4934ZM42.1733 19.8873C48.3877 19.8873 53.4274 24.9023 53.4274 31.0864C53.4274 37.2705 48.3877 42.2856 42.1733 42.2856C35.9589 42.2856 30.9192 37.2705 30.9192 31.0864C30.9262 24.8954 35.9589 19.8873 42.1733 19.8873ZM55.9924 5.40934C54.4909 5.40934 53.2745 4.19881 53.2745 2.70467C53.2745 1.21053 54.4909 0 55.9924 0H82.2821C83.7835 0 85 1.21053 85 2.70467V28.4509C85 29.9451 83.7835 31.1556 82.2821 31.1556C80.7806 31.1556 79.5641 29.9451 79.5641 28.4509V5.40934H55.9924ZM55.9924 85C54.4909 85 53.2745 83.7895 53.2745 82.2953C53.2745 80.8012 54.4909 79.5907 55.9924 79.5907H79.5641V56.5491C79.5641 55.0549 80.7806 53.8444 82.2821 53.8444C83.7835 53.8444 85 55.0549 85 56.5491V82.2953C85 83.7895 83.7835 85 82.2821 85H55.9924ZM29.0076 79.5907C30.5091 79.5907 31.7255 80.8012 31.7255 82.2953C31.7255 83.7895 30.5091 85 29.0076 85H2.71794C1.21647 85 0 83.7895 0 82.2953V56.5491C0 55.0549 1.21647 53.8444 2.71794 53.8444C4.21941 53.8444 5.43588 55.0549 5.43588 56.5491V79.5907H29.0076Z" fill="#C3C8DE"/>
</svg>
