<svg width="153" height="67" viewBox="0 0 153 67" fill="none" xmlns="http://www.w3.org/2000/svg">
<g filter="url(#filter0_d_3139_10786)">
<rect x="13.1" y="13.0996" width="126" height="40" rx="20" fill="#222141" shape-rendering="crispEdges"/>
<path d="M36.2043 35.5876C36.4045 35.8466 36.7955 35.8466 36.9956 35.5876L42.6589 28.2586C43.0187 27.793 42.4187 27.1966 41.9553 27.559L36.908 31.5064C36.727 31.6479 36.4729 31.6479 36.292 31.5064L31.2447 27.559C30.7812 27.1966 30.1813 27.793 30.541 28.2586L36.2043 35.5876Z" fill="white"/>
<rect x="28.1" y="38.0996" width="17" height="2" rx="1" fill="white"/>
<path d="M59.0378 31.1593C58.9668 30.9292 58.8688 30.7232 58.7438 30.5414C58.6216 30.3567 58.4739 30.199 58.3006 30.0684C58.1302 29.9377 57.9341 29.8397 57.7125 29.7743C57.491 29.7061 57.2495 29.6721 56.9881 29.6721C56.5194 29.6721 56.1018 29.79 55.7353 30.0257C55.3688 30.2615 55.0804 30.6081 54.8702 31.0655C54.6628 31.5201 54.5591 32.074 54.5591 32.7275C54.5591 33.3865 54.6628 33.9448 54.8702 34.4022C55.0776 34.8596 55.366 35.2076 55.7353 35.4462C56.1046 35.682 56.5336 35.7999 57.0222 35.7999C57.4654 35.7999 57.8489 35.7147 58.1728 35.5442C58.4995 35.3738 58.7509 35.1323 58.927 34.8198C59.1032 34.5044 59.1912 34.1351 59.1912 33.7118L59.5492 33.7672H57.1799V32.5314H60.7211V33.5797C60.7211 34.3269 60.562 34.9732 60.2438 35.5186C59.9256 36.0641 59.4881 36.4846 58.9313 36.78C58.3745 37.0726 57.7353 37.2189 57.0137 37.2189C56.2097 37.2189 55.5037 37.0385 54.8958 36.6777C54.2907 36.3141 53.8177 35.7985 53.4768 35.1309C53.1387 34.4604 52.9696 33.665 52.9696 32.7445C52.9696 32.04 53.0691 31.4107 53.2679 30.8567C53.4696 30.3027 53.7509 29.8326 54.1117 29.4462C54.4725 29.057 54.8958 28.7615 55.3816 28.5598C55.8674 28.3553 56.3958 28.253 56.9668 28.253C57.4498 28.253 57.9 28.324 58.3177 28.4661C58.7353 28.6053 59.106 28.8042 59.4299 29.0627C59.7566 29.3212 60.025 29.628 60.2353 29.9831C60.4455 30.3382 60.5833 30.7303 60.6486 31.1593H59.0378ZM65.0794 37.2275C64.4231 37.2275 63.8564 37.0911 63.3791 36.8184C62.9047 36.5428 62.5396 36.1536 62.2839 35.6507C62.0282 35.1451 61.9004 34.5499 61.9004 33.8652C61.9004 33.1919 62.0282 32.601 62.2839 32.0925C62.5424 31.5811 62.9032 31.1834 63.3663 30.8993C63.8294 30.6124 64.3734 30.4689 64.9984 30.4689C65.4018 30.4689 65.7825 30.5343 66.1405 30.6649C66.5013 30.7928 66.8194 30.9917 67.095 31.2615C67.3734 31.5314 67.5922 31.8752 67.7513 32.2928C67.9103 32.7076 67.9899 33.2019 67.9899 33.7757V34.2488H62.6248V33.209H66.5112C66.5084 32.9135 66.4444 32.6507 66.3194 32.4206C66.1944 32.1877 66.0197 32.0044 65.7953 31.8709C65.5737 31.7374 65.3152 31.6706 65.0197 31.6706C64.7044 31.6706 64.4274 31.7473 64.1888 31.9007C63.9501 32.0513 63.764 32.2502 63.6305 32.4973C63.4998 32.7417 63.4331 33.0101 63.4302 33.3027V34.2104C63.4302 34.5911 63.4998 34.9178 63.639 35.1905C63.7782 35.4604 63.9728 35.6678 64.2228 35.8127C64.4728 35.9547 64.7655 36.0257 65.1007 36.0257C65.3251 36.0257 65.5282 35.9945 65.7101 35.932C65.8919 35.8667 66.0495 35.7715 66.1831 35.6465C66.3166 35.5215 66.4174 35.3667 66.4856 35.182L67.926 35.3439C67.8351 35.7246 67.6618 36.057 67.4061 36.3411C67.1532 36.6223 66.8294 36.8411 66.4345 36.9973C66.0396 37.1507 65.5879 37.2275 65.0794 37.2275ZM72.5634 30.5542V31.7473H68.8006V30.5542H72.5634ZM69.7296 28.986H71.2722V35.1309C71.2722 35.3382 71.3035 35.4973 71.366 35.6081C71.4313 35.7161 71.5165 35.79 71.6216 35.8297C71.7268 35.8695 71.8432 35.8894 71.9711 35.8894C72.0677 35.8894 72.1557 35.8823 72.2353 35.8681C72.3177 35.8539 72.3802 35.8411 72.4228 35.8297L72.6827 37.0357C72.6003 37.0641 72.4824 37.0953 72.329 37.1294C72.1785 37.1635 71.9938 37.1834 71.775 37.1891C71.3887 37.2005 71.0407 37.1422 70.731 37.0144C70.4214 36.8837 70.1756 36.682 69.9938 36.4093C69.8148 36.1365 69.7268 35.7956 69.7296 35.3865V28.986ZM80.0986 30.5542V31.7473H76.3358V30.5542H80.0986ZM77.2647 28.986H78.8074V35.1309C78.8074 35.3382 78.8386 35.4973 78.9011 35.6081C78.9665 35.7161 79.0517 35.79 79.1568 35.8297C79.2619 35.8695 79.3784 35.8894 79.5062 35.8894C79.6028 35.8894 79.6909 35.8823 79.7704 35.8681C79.8528 35.8539 79.9153 35.8411 79.9579 35.8297L80.2179 37.0357C80.1355 37.0641 80.0176 37.0953 79.8642 37.1294C79.7136 37.1635 79.529 37.1834 79.3102 37.1891C78.9238 37.2005 78.5758 37.1422 78.2662 37.0144C77.9565 36.8837 77.7108 36.682 77.529 36.4093C77.35 36.1365 77.2619 35.7956 77.2647 35.3865V28.986ZM83.0719 33.2644V37.0996H81.5293V28.3723H83.0378V31.6664H83.1145C83.2679 31.2971 83.5052 31.0059 83.8262 30.7928C84.15 30.5769 84.562 30.4689 85.062 30.4689C85.5165 30.4689 85.9128 30.5641 86.2509 30.7544C86.589 30.9448 86.8503 31.2232 87.035 31.5897C87.2225 31.9561 87.3162 32.4036 87.3162 32.932V37.0996H85.7736V33.1706C85.7736 32.7303 85.66 32.388 85.4327 32.1436C85.2083 31.8965 84.8929 31.7729 84.4867 31.7729C84.214 31.7729 83.9696 31.8326 83.7537 31.9519C83.5407 32.0684 83.3731 32.2374 83.2509 32.459C83.1316 32.6806 83.0719 32.949 83.0719 33.2644ZM91.7864 37.2275C91.1302 37.2275 90.5634 37.0911 90.0861 36.8184C89.6117 36.5428 89.2466 36.1536 88.991 35.6507C88.7353 35.1451 88.6074 34.5499 88.6074 33.8652C88.6074 33.1919 88.7353 32.601 88.991 32.0925C89.2495 31.5811 89.6103 31.1834 90.0733 30.8993C90.5364 30.6124 91.0804 30.4689 91.7054 30.4689C92.1089 30.4689 92.4895 30.5343 92.8475 30.6649C93.2083 30.7928 93.5265 30.9917 93.802 31.2615C94.0804 31.5314 94.2992 31.8752 94.4583 32.2928C94.6174 32.7076 94.6969 33.2019 94.6969 33.7757V34.2488H89.3319V33.209H93.2182C93.2154 32.9135 93.1515 32.6507 93.0265 32.4206C92.9015 32.1877 92.7268 32.0044 92.5023 31.8709C92.2807 31.7374 92.0222 31.6706 91.7268 31.6706C91.4114 31.6706 91.1344 31.7473 90.8958 31.9007C90.6571 32.0513 90.4711 32.2502 90.3375 32.4973C90.2069 32.7417 90.1401 33.0101 90.1373 33.3027V34.2104C90.1373 34.5911 90.2069 34.9178 90.3461 35.1905C90.4853 35.4604 90.6799 35.6678 90.9299 35.8127C91.1799 35.9547 91.4725 36.0257 91.8077 36.0257C92.0321 36.0257 92.2353 35.9945 92.4171 35.932C92.5989 35.8667 92.7566 35.7715 92.8901 35.6465C93.0236 35.5215 93.1245 35.3667 93.1927 35.182L94.633 35.3439C94.5421 35.7246 94.3688 36.057 94.1131 36.3411C93.8603 36.6223 93.5364 36.8411 93.1415 36.9973C92.7466 37.1507 92.2949 37.2275 91.7864 37.2275ZM100.167 37.0996H98.4799L101.552 28.3723H103.504L106.581 37.0996H104.893L102.562 30.1621H102.494L100.167 37.0996ZM100.223 33.6777H104.825V34.9476H100.223V33.6777ZM107.662 39.5542V30.5542H109.179V31.6365H109.269C109.348 31.4775 109.46 31.3084 109.605 31.1294C109.75 30.9476 109.946 30.7928 110.193 30.6649C110.441 30.5343 110.756 30.4689 111.139 30.4689C111.645 30.4689 112.101 30.5982 112.507 30.8567C112.916 31.1124 113.24 31.4917 113.479 31.9945C113.72 32.4945 113.841 33.1081 113.841 33.8354C113.841 34.5542 113.723 35.165 113.487 35.6678C113.252 36.1706 112.931 36.5542 112.524 36.8184C112.118 37.0826 111.658 37.2147 111.144 37.2147C110.769 37.2147 110.458 37.1522 110.21 37.0272C109.963 36.9022 109.764 36.7516 109.614 36.5755C109.466 36.3965 109.351 36.2275 109.269 36.0684H109.205V39.5542H107.662ZM109.175 33.8269C109.175 34.2502 109.235 34.6209 109.354 34.9391C109.476 35.2573 109.651 35.5059 109.878 35.6848C110.108 35.861 110.387 35.949 110.713 35.949C111.054 35.949 111.34 35.8581 111.57 35.6763C111.8 35.4917 111.973 35.2402 112.09 34.9221C112.209 34.601 112.269 34.236 112.269 33.8269C112.269 33.4206 112.21 33.0598 112.094 32.7445C111.977 32.4292 111.804 32.182 111.574 32.003C111.344 31.824 111.057 31.7346 110.713 31.7346C110.384 31.7346 110.104 31.8212 109.874 31.9945C109.644 32.1678 109.469 32.4107 109.35 32.7232C109.233 33.0357 109.175 33.4036 109.175 33.8269ZM115.162 39.5542V30.5542H116.679V31.6365H116.769C116.848 31.4775 116.96 31.3084 117.105 31.1294C117.25 30.9476 117.446 30.7928 117.693 30.6649C117.941 30.5343 118.256 30.4689 118.639 30.4689C119.145 30.4689 119.601 30.5982 120.007 30.8567C120.416 31.1124 120.74 31.4917 120.979 31.9945C121.22 32.4945 121.341 33.1081 121.341 33.8354C121.341 34.5542 121.223 35.165 120.987 35.6678C120.752 36.1706 120.431 36.5542 120.024 36.8184C119.618 37.0826 119.158 37.2147 118.644 37.2147C118.269 37.2147 117.958 37.1522 117.71 37.0272C117.463 36.9022 117.264 36.7516 117.114 36.5755C116.966 36.3965 116.851 36.2275 116.769 36.0684H116.705V39.5542H115.162ZM116.675 33.8269C116.675 34.2502 116.735 34.6209 116.854 34.9391C116.976 35.2573 117.151 35.5059 117.378 35.6848C117.608 35.861 117.887 35.949 118.213 35.949C118.554 35.949 118.84 35.8581 119.07 35.6763C119.3 35.4917 119.473 35.2402 119.59 34.9221C119.709 34.601 119.769 34.236 119.769 33.8269C119.769 33.4206 119.71 33.0598 119.594 32.7445C119.477 32.4292 119.304 32.182 119.074 32.003C118.844 31.824 118.557 31.7346 118.213 31.7346C117.884 31.7346 117.604 31.8212 117.374 31.9945C117.144 32.1678 116.969 32.4107 116.85 32.7232C116.733 33.0357 116.675 33.4036 116.675 33.8269Z" fill="white"/>
</g>
<defs>
<filter id="filter0_d_3139_10786" x="-2.47955e-05" y="-0.000391006" width="152.2" height="66.2" filterUnits="userSpaceOnUse" color-interpolation-filters="sRGB">
<feFlood flood-opacity="0" result="BackgroundImageFix"/>
<feColorMatrix in="SourceAlpha" type="matrix" values="0 0 0 0 0 0 0 0 0 0 0 0 0 0 0 0 0 0 127 0" result="hardAlpha"/>
<feOffset/>
<feGaussianBlur stdDeviation="6.55"/>
<feComposite in2="hardAlpha" operator="out"/>
<feColorMatrix type="matrix" values="0 0 0 0 1 0 0 0 0 1 0 0 0 0 1 0 0 0 1 0"/>
<feBlend mode="normal" in2="BackgroundImageFix" result="effect1_dropShadow_3139_10786"/>
<feBlend mode="normal" in="SourceGraphic" in2="effect1_dropShadow_3139_10786" result="shape"/>
</filter>
</defs>
</svg>
