<svg width="11" height="10" viewBox="0 0 11 10" fill="none" xmlns="http://www.w3.org/2000/svg">
<path d="M5.86008 1.78565C5.79921 1.85136 5.73833 1.91799 5.66314 1.9974L5.45634 2.21736L5.24149 2.0047C5.17793 1.94172 5.11347 1.87692 5.05081 1.81394C4.38656 1.14767 3.88613 0.645679 2.85574 0.631989C2.81545 0.631076 2.77248 0.631989 2.72772 0.633814C2.1512 0.654806 1.61945 0.871118 1.23092 1.24076C0.84777 1.60585 0.603376 2.12335 0.595319 2.75312C0.594423 2.79236 0.595319 2.83344 0.597109 2.87816C0.658879 4.63694 2.30966 6.1712 3.67844 7.4426C3.94253 7.68812 4.19588 7.92359 4.43848 8.16181L5.44649 9.1521L6.71322 7.87066C6.91733 7.66439 7.1483 7.43895 7.39538 7.19799C7.81524 6.78728 8.28254 6.33184 8.71761 5.87274C9.03004 5.54326 9.32636 5.21195 9.57792 4.89341C9.825 4.58127 10.0273 4.28464 10.1571 4.01995C10.3702 3.5855 10.4373 3.15106 10.3917 2.7449C10.3469 2.34422 10.192 1.97002 9.96017 1.65057C9.72473 1.32656 9.41141 1.05822 9.05242 0.874768C8.63883 0.664846 8.16527 0.565361 7.68095 0.621949C6.84572 0.720521 6.40079 1.20152 5.86008 1.78565ZM5.44023 1.35485C6.05793 0.687664 6.57089 0.140953 7.61292 0.0195633C8.2145 -0.0507151 8.80355 0.0715875 9.31651 0.334447C9.75964 0.560798 10.1464 0.891197 10.4364 1.29005C10.7292 1.69347 10.9252 2.16716 10.9825 2.67645C11.0407 3.19304 10.9565 3.7434 10.6871 4.29103C10.5349 4.60043 10.3093 4.93266 10.0398 5.2731C9.77576 5.60715 9.4678 5.95215 9.14463 6.29259C8.7015 6.76081 8.23062 7.22081 7.80628 7.63518C7.55831 7.87705 7.32645 8.1034 7.13129 8.30054L5.65777 9.79099L5.45097 10L5.24149 9.79464L4.024 8.599C3.80109 8.38086 3.54327 8.14082 3.2756 7.89165C1.82445 6.54176 0.0725125 4.9144 0.00179043 2.89915C0 2.84986 0 2.79875 0 2.74582C0.0107426 1.93716 0.327649 1.26906 0.824494 0.796276C1.31686 0.328058 1.98559 0.0542461 2.70534 0.0277776C2.75458 0.0259522 2.8065 0.0250395 2.86111 0.0259522C4.11799 0.0432936 4.69272 0.604608 5.44023 1.35485Z" fill="#222141"/>
</svg>
