<svg width="99" height="65" viewBox="0 0 99 65" fill="none" xmlns="http://www.w3.org/2000/svg">
<path fill-rule="evenodd" clip-rule="evenodd" d="M94.5351 0H4.46486C2.01481 0 0 2.01206 0 4.45877V60.5412C0 62.9879 2.01481 65 4.46486 65H94.5351C96.9852 65 99 62.9879 99 60.5412V4.45877C99 2.01206 96.9852 0 94.5351 0ZM87.6204 9.88186H28.501C27.6517 9.88186 26.9574 10.5776 26.9574 11.4233V19.6094C26.9574 20.4552 27.6535 21.1511 28.501 21.1511H87.6204C88.4673 21.1511 89.1642 20.4575 89.1642 19.6094V11.4233C89.1642 10.5753 88.4691 9.88186 87.6204 9.88186ZM88.2386 54.4159C88.2943 54.4159 88.3495 54.4049 88.4009 54.3836C88.4524 54.3623 88.4991 54.331 88.5385 54.2917C88.5779 54.2523 88.6091 54.2056 88.6303 54.1542C88.6516 54.1027 88.6625 54.0476 88.6624 53.992C88.6624 53.6948 88.5219 52.9684 88.4816 52.7263C88.2674 51.4358 87.9787 50.1459 87.6109 49.2996C86.4674 46.6762 81.2428 46.4036 78.1663 45.2108V42.9643C80.2161 42.8666 82.7675 42.7071 84.1916 41.0133C82.63 40.4261 81.9103 38.5818 81.8107 35.8254C81.7369 33.7767 82.1605 33.1348 81.4613 31.1119C80.0755 27.1075 74.9511 25.7385 72.0968 28.0815C69.8586 27.8442 67.6031 28.9968 67.1164 32.4437C66.7533 35.0173 67.5221 36.632 66.7107 39.0026C66.3619 40.0214 65.754 40.803 64.8032 41.2597C66.2587 42.6509 69.3172 42.8282 71.2253 42.9296V45.2108C67.7628 46.4383 62.738 46.2518 61.4146 49.2469C61.0292 50.1189 60.7255 51.4507 60.5023 52.8012C60.467 53.02 60.3324 53.7217 60.3324 53.992C60.3324 54.0477 60.3434 54.1028 60.3647 54.1542C60.386 54.2056 60.4173 54.2524 60.4567 54.2917C60.4961 54.3311 60.5429 54.3623 60.5944 54.3836C60.6459 54.4049 60.7011 54.4159 60.7568 54.4159H88.2386ZM51.8068 34.762C54.4386 34.762 54.4386 29.9634 51.8068 29.9634H12.1903C9.55737 29.9634 9.55988 34.762 12.1903 34.762H51.8068ZM22.4817 44.5688C25.1135 44.5688 25.1135 39.7698 22.4817 39.7698H12.1898C9.55853 39.7698 9.5591 44.5688 12.1898 44.5688H22.4817ZM51.8068 44.5688C54.4386 44.5688 54.4386 39.7698 51.8068 39.7698H30.1198C27.4885 39.7698 27.4891 44.5688 30.1198 44.5688H51.8068ZM51.8062 54.3954C54.4386 54.3954 54.438 49.5964 51.8062 49.5964H12.1472C9.51656 49.5964 9.51714 54.3954 12.1472 54.3954H51.8062ZM20.272 9.88186H11.379C10.5303 9.88186 9.83522 10.5776 9.83522 11.4233V19.6094C9.83522 20.4552 10.5321 21.1511 11.379 21.1511H20.272C21.1193 21.1511 21.8162 20.4575 21.8162 19.6094V11.4233C21.8162 10.5753 21.1212 9.88186 20.272 9.88186Z" fill="#C3C8DE"/>
</svg>
