<svg width="54" height="84" viewBox="0 0 54 84" fill="none" xmlns="http://www.w3.org/2000/svg">
<g clip-path="url(#clip0_3139_10776)">
<g filter="url(#filter0_d_3139_10776)">
<path d="M41.9024 0H8.09756C2.52083 0 -2 4.61326 -2 10.304V73.696C-2 79.3867 2.52083 84 8.09756 84H41.9024C47.4792 84 52 79.3867 52 73.696V10.304C52 4.61326 47.4792 0 41.9024 0Z" fill="#222141"/>
</g>
<path d="M34.6582 8.96094H15.3411C13.2801 8.96094 11.6094 10.6658 11.6094 12.7689C11.6094 14.872 13.2801 16.5769 15.3411 16.5769H34.6582C36.7191 16.5769 38.3899 14.872 38.3899 12.7689C38.3899 10.6658 36.7191 8.96094 34.6582 8.96094Z" fill="white"/>
<mask id="mask0_3139_10776" style="mask-type:luminance" maskUnits="userSpaceOnUse" x="11" y="38" width="28" height="19">
<path d="M38.4873 38.9766H11.5137V56.5897H38.4873V38.9766Z" fill="white"/>
</mask>
<g mask="url(#mask0_3139_10776)">
<path fill-rule="evenodd" clip-rule="evenodd" d="M12.2512 38.9766H13.8537C14.2598 38.9766 14.5912 39.326 14.5912 39.7292V49.5337H22.7857L25.1213 41.1471H34.3079C36.6062 41.1471 38.4874 43.0713 38.4874 45.4121V49.677H38.4831C38.4852 49.7039 38.4874 49.7308 38.4874 49.7599V56.5897H35.4099V53.3842H14.5912V56.4441H11.5137V39.7292C11.5137 39.3148 11.8451 38.9766 12.2512 38.9766ZM19.2932 41.2994C21.1855 41.2994 22.7199 42.8652 22.7199 44.7961C22.7199 46.727 21.1855 48.2927 19.2932 48.2927C17.401 48.2927 15.8666 46.727 15.8666 44.7961C15.8666 42.8652 17.401 41.2994 19.2932 41.2994Z" fill="white"/>
</g>
</g>
<defs>
<filter id="filter0_d_3139_10776" x="-43" y="-41" width="136" height="166" filterUnits="userSpaceOnUse" color-interpolation-filters="sRGB">
<feFlood flood-opacity="0" result="BackgroundImageFix"/>
<feColorMatrix in="SourceAlpha" type="matrix" values="0 0 0 0 0 0 0 0 0 0 0 0 0 0 0 0 0 0 127 0" result="hardAlpha"/>
<feOffset/>
<feGaussianBlur stdDeviation="20.5"/>
<feComposite in2="hardAlpha" operator="out"/>
<feColorMatrix type="matrix" values="0 0 0 0 1 0 0 0 0 1 0 0 0 0 1 0 0 0 1 0"/>
<feBlend mode="normal" in2="BackgroundImageFix" result="effect1_dropShadow_3139_10776"/>
<feBlend mode="normal" in="SourceGraphic" in2="effect1_dropShadow_3139_10776" result="shape"/>
</filter>
<clipPath id="clip0_3139_10776">
<rect width="54" height="84" fill="white"/>
</clipPath>
</defs>
</svg>
