<svg width="697" height="125" viewBox="0 0 697 125" fill="none" xmlns="http://www.w3.org/2000/svg">
<g filter="url(#filter0_d_3139_10775)">
<g clip-path="url(#clip0_3139_10775)">
<g filter="url(#filter1_d_3139_10775)">
<path d="M62.1024 21.1992H28.2975C22.7208 21.1992 18.2 25.8125 18.2 31.5032V94.8952C18.2 100.586 22.7208 105.199 28.2975 105.199H62.1024C67.6791 105.199 72.2 100.586 72.2 94.8952V31.5032C72.2 25.8125 67.6791 21.1992 62.1024 21.1992Z" fill="#222141"/>
</g>
<path d="M54.8581 30.1602H35.541C33.4801 30.1602 31.8093 31.8651 31.8093 33.9682C31.8093 36.0713 33.4801 37.7762 35.541 37.7762H54.8581C56.9191 37.7762 58.5898 36.0713 58.5898 33.9682C58.5898 31.8651 56.9191 30.1602 54.8581 30.1602Z" fill="white"/>
<mask id="mask0_3139_10775" style="mask-type:luminance" maskUnits="userSpaceOnUse" x="31" y="60" width="28" height="18">
<path d="M58.6873 60.1758H31.7136V77.7889H58.6873V60.1758Z" fill="white"/>
</mask>
<g mask="url(#mask0_3139_10775)">
<path fill-rule="evenodd" clip-rule="evenodd" d="M32.4512 60.1758H34.0536C34.4597 60.1758 34.7912 60.5252 34.7912 60.9284V70.7329H42.9857L45.3213 62.3463H54.5079C56.8062 62.3463 58.6874 64.2705 58.6874 66.6113V70.8763H58.683C58.6852 70.9031 58.6874 70.93 58.6874 70.9591V77.7889H55.6098V74.5835H34.7912V77.6433H31.7136V60.9284C31.7136 60.514 32.0451 60.1758 32.4512 60.1758ZM39.4931 62.4987C41.3854 62.4987 42.9198 64.0644 42.9198 65.9953C42.9198 67.9262 41.3854 69.4919 39.4931 69.4919C37.6009 69.4919 36.0666 67.9262 36.0666 65.9953C36.0666 64.0644 37.6009 62.4987 39.4931 62.4987Z" fill="white"/>
</g>
</g>
<path d="M102.256 45.1992H95.811V27.0174H102.31C104.138 27.0174 105.713 27.3814 107.033 28.1094C108.352 28.8314 109.367 29.8701 110.078 31.2255C110.794 32.5808 111.152 34.2025 111.152 36.0906C111.152 37.9845 110.794 39.6121 110.078 40.9734C109.367 42.3346 108.346 43.3793 107.015 44.1072C105.689 44.8352 104.103 45.1992 102.256 45.1992ZM99.6551 41.9055H102.096C103.233 41.9055 104.189 41.7043 104.964 41.3018C105.745 40.8935 106.331 40.2631 106.722 39.4109C107.118 38.5527 107.317 37.4459 107.317 36.0906C107.317 34.747 107.118 33.6491 106.722 32.7969C106.331 31.9446 105.748 31.3172 104.973 30.9148C104.198 30.5123 103.242 30.3111 102.105 30.3111H99.6551V41.9055ZM118.84 45.4656C117.461 45.4656 116.268 45.1726 115.262 44.5866C114.262 43.9948 113.489 43.1721 112.945 42.1186C112.4 41.0592 112.128 39.8311 112.128 38.4343C112.128 37.0257 112.4 35.7946 112.945 34.7411C113.489 33.6817 114.262 32.859 115.262 32.2731C116.268 31.6812 117.461 31.3853 118.84 31.3853C120.219 31.3853 121.408 31.6812 122.409 32.2731C123.415 32.859 124.19 33.6817 124.735 34.7411C125.279 35.7946 125.551 37.0257 125.551 38.4343C125.551 39.8311 125.279 41.0592 124.735 42.1186C124.19 43.1721 123.415 43.9948 122.409 44.5866C121.408 45.1726 120.219 45.4656 118.84 45.4656ZM118.857 42.5359C119.485 42.5359 120.009 42.3583 120.429 42.0032C120.849 41.6422 121.166 41.1509 121.379 40.5295C121.598 39.908 121.707 39.2008 121.707 38.4077C121.707 37.6146 121.598 36.9073 121.379 36.2859C121.166 35.6644 120.849 35.1732 120.429 34.8121C120.009 34.4511 119.485 34.2706 118.857 34.2706C118.224 34.2706 117.691 34.4511 117.259 34.8121C116.833 35.1732 116.511 35.6644 116.292 36.2859C116.079 36.9073 115.972 37.6146 115.972 38.4077C115.972 39.2008 116.079 39.908 116.292 40.5295C116.511 41.1509 116.833 41.6422 117.259 42.0032C117.691 42.3583 118.224 42.5359 118.857 42.5359ZM129.109 45.1992L125.398 31.5629H129.224L131.337 40.7248H131.461L133.663 31.5629H137.418L139.656 40.6715H139.771L141.848 31.5629H145.666L141.964 45.1992H137.96L135.616 36.6232H135.447L133.104 45.1992H129.109ZM150.215 37.3157V45.1992H146.433V31.5629H150.038V33.9688H150.198C150.499 33.1757 151.005 32.5483 151.716 32.0866C152.426 31.6191 153.287 31.3853 154.299 31.3853C155.246 31.3853 156.072 31.5924 156.776 32.0067C157.48 32.421 158.028 33.0129 158.418 33.7823C158.809 34.5458 159.004 35.4573 159.004 36.5167V45.1992H155.222V37.1914C155.228 36.3569 155.015 35.7058 154.583 35.2383C154.151 34.7648 153.556 34.5281 152.799 34.5281C152.29 34.5281 151.84 34.6375 151.449 34.8565C151.065 35.0755 150.763 35.3951 150.544 35.8153C150.331 36.2296 150.221 36.7298 150.215 37.3157ZM164.517 27.0174V45.1992H160.735V27.0174H164.517ZM172.458 45.4656C171.079 45.4656 169.886 45.1726 168.88 44.5866C167.88 43.9948 167.107 43.1721 166.563 42.1186C166.018 41.0592 165.746 39.8311 165.746 38.4343C165.746 37.0257 166.018 35.7946 166.563 34.7411C167.107 33.6817 167.88 32.859 168.88 32.2731C169.886 31.6812 171.079 31.3853 172.458 31.3853C173.837 31.3853 175.026 31.6812 176.027 32.2731C177.033 32.859 177.808 33.6817 178.353 34.7411C178.897 35.7946 179.169 37.0257 179.169 38.4343C179.169 39.8311 178.897 41.0592 178.353 42.1186C177.808 43.1721 177.033 43.9948 176.027 44.5866C175.026 45.1726 173.837 45.4656 172.458 45.4656ZM172.476 42.5359C173.103 42.5359 173.627 42.3583 174.047 42.0032C174.467 41.6422 174.784 41.1509 174.997 40.5295C175.216 39.908 175.325 39.2008 175.325 38.4077C175.325 37.6146 175.216 36.9073 174.997 36.2859C174.784 35.6644 174.467 35.1732 174.047 34.8121C173.627 34.4511 173.103 34.2706 172.476 34.2706C171.842 34.2706 171.31 34.4511 170.878 34.8121C170.451 35.1732 170.129 35.6644 169.91 36.2859C169.697 36.9073 169.59 37.6146 169.59 38.4077C169.59 39.2008 169.697 39.908 169.91 40.5295C170.129 41.1509 170.451 41.6422 170.878 42.0032C171.31 42.3583 171.842 42.5359 172.476 42.5359ZM184.267 45.4567C183.397 45.4567 182.622 45.3058 181.941 45.0039C181.26 44.6961 180.722 44.2434 180.325 43.6456C179.935 43.0419 179.739 42.2902 179.739 41.3906C179.739 40.633 179.878 39.9968 180.157 39.4819C180.435 38.967 180.814 38.5527 181.293 38.239C181.772 37.9253 182.317 37.6886 182.927 37.5288C183.542 37.369 184.187 37.2565 184.862 37.1914C185.655 37.1085 186.294 37.0316 186.78 36.9606C187.265 36.8836 187.617 36.7712 187.836 36.6232C188.055 36.4753 188.164 36.2563 188.164 35.9663V35.913C188.164 35.3507 187.987 34.9157 187.632 34.608C187.283 34.3002 186.785 34.1463 186.14 34.1463C185.46 34.1463 184.918 34.2972 184.516 34.5991C184.113 34.895 183.847 35.2679 183.717 35.7177L180.219 35.4336C180.396 34.605 180.746 33.8888 181.266 33.2852C181.787 32.6755 182.459 32.208 183.282 31.8825C184.11 31.551 185.069 31.3853 186.158 31.3853C186.916 31.3853 187.641 31.4741 188.333 31.6516C189.032 31.8292 189.65 32.1044 190.189 32.4773C190.733 32.8501 191.162 33.3295 191.476 33.9155C191.79 34.4955 191.946 35.1909 191.946 36.0018V45.1992H188.36V43.3082H188.253C188.034 43.7344 187.741 44.1102 187.374 44.4357C187.007 44.7553 186.566 45.0069 186.052 45.1903C185.537 45.3679 184.942 45.4567 184.267 45.4567ZM185.35 42.8466C185.907 42.8466 186.398 42.7371 186.824 42.5181C187.25 42.2932 187.584 41.9914 187.827 41.6126C188.07 41.2338 188.191 40.8047 188.191 40.3253V38.8782C188.073 38.9551 187.91 39.0262 187.703 39.0913C187.502 39.1504 187.274 39.2067 187.019 39.2599C186.765 39.3073 186.51 39.3517 186.256 39.3931C186.001 39.4286 185.77 39.4612 185.563 39.4908C185.119 39.5559 184.732 39.6594 184.4 39.8015C184.069 39.9435 183.811 40.1359 183.628 40.3786C183.444 40.6153 183.353 40.9112 183.353 41.2663C183.353 41.7812 183.539 42.1748 183.912 42.4471C184.291 42.7134 184.77 42.8466 185.35 42.8466ZM198.655 45.4212C197.62 45.4212 196.682 45.1548 195.841 44.6222C195.007 44.0836 194.344 43.2934 193.853 42.2518C193.367 41.2042 193.125 39.9199 193.125 38.3988C193.125 36.8363 193.376 35.5372 193.879 34.5014C194.382 33.4598 195.051 32.6815 195.886 32.1665C196.726 31.6457 197.646 31.3853 198.647 31.3853C199.41 31.3853 200.046 31.5155 200.555 31.7759C201.07 32.0304 201.485 32.35 201.798 32.7347C202.118 33.1135 202.36 33.4864 202.526 33.8533H202.642V27.0174H206.415V45.1992H202.686V43.0153H202.526C202.349 43.3941 202.097 43.7699 201.772 44.1428C201.452 44.5097 201.035 44.8145 200.52 45.0572C200.011 45.2998 199.389 45.4212 198.655 45.4212ZM199.854 42.4116C200.464 42.4116 200.978 42.2459 201.399 41.9144C201.825 41.5771 202.15 41.1065 202.375 40.5028C202.606 39.8991 202.721 39.1919 202.721 38.381C202.721 37.5702 202.609 36.8659 202.384 36.2681C202.159 35.6703 201.834 35.2087 201.408 34.8832C200.981 34.5576 200.464 34.3949 199.854 34.3949C199.232 34.3949 198.709 34.5636 198.283 34.9009C197.856 35.2383 197.534 35.7058 197.315 36.3036C197.096 36.9014 196.986 37.5939 196.986 38.381C196.986 39.1741 197.096 39.8755 197.315 40.4851C197.54 41.0888 197.862 41.5623 198.283 41.9055C198.709 42.2429 199.232 42.4116 199.854 42.4116ZM220.063 31.5629V34.4038H211.851V31.5629H220.063ZM213.716 28.2958H217.498V41.0089C217.498 41.3581 217.551 41.6303 217.658 41.8256C217.764 42.015 217.912 42.1482 218.101 42.2251C218.297 42.3021 218.522 42.3406 218.776 42.3406C218.954 42.3406 219.131 42.3258 219.309 42.2962C219.486 42.2607 219.623 42.234 219.717 42.2163L220.312 45.0305C220.123 45.0897 219.856 45.1578 219.513 45.2347C219.17 45.3176 218.752 45.3679 218.261 45.3857C217.35 45.4212 216.551 45.2998 215.864 45.0217C215.184 44.7435 214.654 44.3114 214.275 43.7255C213.896 43.1396 213.71 42.3997 213.716 41.506V28.2958ZM225.352 37.3157V45.1992H221.57V27.0174H225.245V33.9688H225.405C225.713 33.1638 226.21 32.5335 226.897 32.0778C227.583 31.6161 228.444 31.3853 229.48 31.3853C230.427 31.3853 231.253 31.5924 231.957 32.0067C232.667 32.4151 233.218 33.004 233.608 33.7734C234.005 34.5369 234.2 35.4513 234.194 36.5167V45.1992H230.412V37.1914C230.418 36.351 230.205 35.697 229.773 35.2294C229.347 34.7618 228.749 34.5281 227.98 34.5281C227.465 34.5281 227.009 34.6375 226.613 34.8565C226.222 35.0755 225.914 35.3951 225.689 35.8153C225.47 36.2296 225.358 36.7298 225.352 37.3157ZM242.135 45.4656C240.732 45.4656 239.525 45.1815 238.513 44.6133C237.507 44.0392 236.731 43.2283 236.187 42.1808C235.642 41.1272 235.37 39.8814 235.37 38.4432C235.37 37.0405 235.642 35.8094 236.187 34.75C236.731 33.6906 237.498 32.8649 238.486 32.2731C239.481 31.6812 240.647 31.3853 241.984 31.3853C242.884 31.3853 243.721 31.5303 244.497 31.8203C245.278 32.1044 245.958 32.5335 246.539 33.1076C247.124 33.6817 247.58 34.4038 247.906 35.2738C248.231 36.1379 248.394 37.15 248.394 38.31V39.3487H236.879V37.005H244.834C244.834 36.4605 244.716 35.9781 244.479 35.5579C244.242 35.1377 243.914 34.8092 243.493 34.5724C243.079 34.3298 242.597 34.2085 242.046 34.2085C241.472 34.2085 240.963 34.3416 240.519 34.608C240.081 34.8684 239.738 35.2205 239.49 35.6644C239.241 36.1024 239.114 36.5907 239.108 37.1293V39.3576C239.108 40.0323 239.232 40.6153 239.481 41.1065C239.735 41.5978 240.093 41.9766 240.555 42.2429C241.016 42.5092 241.564 42.6424 242.197 42.6424C242.617 42.6424 243.002 42.5832 243.351 42.4648C243.701 42.3465 243.999 42.1689 244.248 41.9322C244.497 41.6954 244.686 41.4054 244.816 41.0621L248.314 41.293C248.137 42.1334 247.773 42.8673 247.222 43.4947C246.678 44.1161 245.973 44.6014 245.109 44.9506C244.251 45.2939 243.26 45.4656 242.135 45.4656ZM257.353 45.1992H253.234L259.51 27.0174H264.464L270.732 45.1992H266.613L262.058 31.1722H261.916L257.353 45.1992ZM257.096 38.0526H266.826V41.0533H257.096V38.0526ZM271.599 50.3129V31.5629H275.328V33.8533H275.497C275.662 33.4864 275.902 33.1135 276.216 32.7347C276.535 32.35 276.95 32.0304 277.459 31.7759C277.974 31.5155 278.613 31.3853 279.376 31.3853C280.371 31.3853 281.288 31.6457 282.128 32.1665C282.969 32.6815 283.641 33.4598 284.144 34.5014C284.647 35.5372 284.898 36.8363 284.898 38.3988C284.898 39.9199 284.653 41.2042 284.161 42.2518C283.676 43.2934 283.013 44.0836 282.173 44.6222C281.338 45.1548 280.403 45.4212 279.367 45.4212C278.634 45.4212 278.009 45.2998 277.494 45.0572C276.985 44.8145 276.568 44.5097 276.242 44.1428C275.917 43.7699 275.668 43.3941 275.497 43.0153H275.381V50.3129H271.599ZM275.301 38.381C275.301 39.1919 275.414 39.8991 275.639 40.5028C275.864 41.1065 276.189 41.5771 276.615 41.9144C277.041 42.2459 277.559 42.4116 278.169 42.4116C278.784 42.4116 279.305 42.2429 279.731 41.9055C280.158 41.5623 280.48 41.0888 280.699 40.4851C280.924 39.8755 281.036 39.1741 281.036 38.381C281.036 37.5939 280.927 36.9014 280.708 36.3036C280.489 35.7058 280.166 35.2383 279.74 34.9009C279.314 34.5636 278.79 34.3949 278.169 34.3949C277.553 34.3949 277.033 34.5576 276.606 34.8832C276.186 35.2087 275.864 35.6703 275.639 36.2681C275.414 36.8659 275.301 37.5702 275.301 38.381ZM286.17 50.3129V31.5629H289.898V33.8533H290.067C290.233 33.4864 290.472 33.1135 290.786 32.7347C291.106 32.35 291.52 32.0304 292.029 31.7759C292.544 31.5155 293.183 31.3853 293.947 31.3853C294.941 31.3853 295.858 31.6457 296.699 32.1665C297.539 32.6815 298.211 33.4598 298.714 34.5014C299.217 35.5372 299.469 36.8363 299.469 38.3988C299.469 39.9199 299.223 41.2042 298.732 42.2518C298.246 43.2934 297.584 44.0836 296.743 44.6222C295.909 45.1548 294.973 45.4212 293.938 45.4212C293.204 45.4212 292.579 45.2998 292.065 45.0572C291.556 44.8145 291.138 44.5097 290.813 44.1428C290.487 43.7699 290.239 43.3941 290.067 43.0153H289.952V50.3129H286.17ZM289.872 38.381C289.872 39.1919 289.984 39.8991 290.209 40.5028C290.434 41.1065 290.759 41.5771 291.186 41.9144C291.612 42.2459 292.13 42.4116 292.739 42.4116C293.355 42.4116 293.876 42.2429 294.302 41.9055C294.728 41.5623 295.05 41.0888 295.269 40.4851C295.494 39.8755 295.607 39.1741 295.607 38.381C295.607 37.5939 295.497 36.9014 295.278 36.3036C295.059 35.7058 294.737 35.2383 294.311 34.9009C293.884 34.5636 293.361 34.3949 292.739 34.3949C292.124 34.3949 291.603 34.5576 291.177 34.8832C290.757 35.2087 290.434 35.6703 290.209 36.2681C289.984 36.8659 289.872 37.5702 289.872 38.381ZM312.529 31.5629V34.4038H304.317V31.5629H312.529ZM306.182 28.2958H309.964V41.0089C309.964 41.3581 310.017 41.6303 310.123 41.8256C310.23 42.015 310.378 42.1482 310.567 42.2251C310.763 42.3021 310.987 42.3406 311.242 42.3406C311.42 42.3406 311.597 42.3258 311.775 42.2962C311.952 42.2607 312.088 42.234 312.183 42.2163L312.778 45.0305C312.588 45.0897 312.322 45.1578 311.979 45.2347C311.636 45.3176 311.218 45.3679 310.727 45.3857C309.816 45.4212 309.017 45.2998 308.33 45.0217C307.649 44.7435 307.12 44.3114 306.741 43.7255C306.362 43.1396 306.176 42.3997 306.182 41.506V28.2958ZM319.758 45.4656C318.379 45.4656 317.186 45.1726 316.18 44.5866C315.18 43.9948 314.407 43.1721 313.863 42.1186C313.318 41.0592 313.046 39.8311 313.046 38.4343C313.046 37.0257 313.318 35.7946 313.863 34.7411C314.407 33.6817 315.18 32.859 316.18 32.2731C317.186 31.6812 318.379 31.3853 319.758 31.3853C321.137 31.3853 322.326 31.6812 323.327 32.2731C324.333 32.859 325.108 33.6817 325.652 34.7411C326.197 35.7946 326.469 37.0257 326.469 38.4343C326.469 39.8311 326.197 41.0592 325.652 42.1186C325.108 43.1721 324.333 43.9948 323.327 44.5866C322.326 45.1726 321.137 45.4656 319.758 45.4656ZM319.775 42.5359C320.403 42.5359 320.927 42.3583 321.347 42.0032C321.767 41.6422 322.084 41.1509 322.297 40.5295C322.516 39.908 322.625 39.2008 322.625 38.4077C322.625 37.6146 322.516 36.9073 322.297 36.2859C322.084 35.6644 321.767 35.1732 321.347 34.8121C320.927 34.4511 320.403 34.2706 319.775 34.2706C319.142 34.2706 318.609 34.4511 318.177 34.8121C317.751 35.1732 317.429 35.6644 317.21 36.2859C316.997 36.9073 316.89 37.6146 316.89 38.4077C316.89 39.2008 316.997 39.908 317.21 40.5295C317.429 41.1509 317.751 41.6422 318.177 42.0032C318.609 42.3583 319.142 42.5359 319.775 42.5359ZM338.358 50.5969C337.133 50.5969 336.082 50.4283 335.206 50.0909C334.336 49.7595 333.644 49.3067 333.129 48.7326C332.614 48.1585 332.28 47.5134 332.126 46.7972L335.624 46.3267C335.73 46.599 335.899 46.8535 336.13 47.0902C336.361 47.3269 336.665 47.5163 337.044 47.6584C337.429 47.8063 337.896 47.8803 338.447 47.8803C339.269 47.8803 339.947 47.6791 340.48 47.2766C341.018 46.8801 341.288 46.2143 341.288 45.2791V42.7844H341.128C340.962 43.1632 340.714 43.5213 340.382 43.8587C340.051 44.196 339.625 44.4712 339.104 44.6843C338.583 44.8974 337.961 45.0039 337.239 45.0039C336.216 45.0039 335.283 44.7672 334.443 44.2937C333.608 43.8143 332.943 43.0833 332.445 42.1009C331.954 41.1125 331.709 39.8636 331.709 38.3544C331.709 36.8097 331.96 35.5194 332.463 34.4837C332.966 33.4479 333.635 32.6726 334.47 32.1577C335.31 31.6428 336.23 31.3853 337.231 31.3853C337.994 31.3853 338.633 31.5155 339.148 31.7759C339.663 32.0304 340.077 32.35 340.391 32.7347C340.711 33.1135 340.956 33.4864 341.128 33.8533H341.27V31.5629H345.025V45.3324C345.025 46.4924 344.741 47.4631 344.173 48.2443C343.605 49.0256 342.818 49.6115 341.812 50.0021C340.811 50.3987 339.66 50.5969 338.358 50.5969ZM338.438 42.163C339.048 42.163 339.562 42.0121 339.983 41.7102C340.409 41.4025 340.734 40.9645 340.959 40.3963C341.19 39.8222 341.305 39.1357 341.305 38.3366C341.305 37.5376 341.193 36.8452 340.968 36.2592C340.743 35.6674 340.418 35.2087 339.992 34.8832C339.565 34.5576 339.048 34.3949 338.438 34.3949C337.816 34.3949 337.293 34.5636 336.867 34.9009C336.44 35.2324 336.118 35.694 335.899 36.2859C335.68 36.8777 335.57 37.5613 335.57 38.3366C335.57 39.1238 335.68 39.8045 335.899 40.3786C336.124 40.9467 336.446 41.3877 336.867 41.7013C337.293 42.0091 337.816 42.163 338.438 42.163ZM350.673 45.4567C349.803 45.4567 349.028 45.3058 348.347 45.0039C347.667 44.6961 347.128 44.2434 346.732 43.6456C346.341 43.0419 346.146 42.2902 346.146 41.3906C346.146 40.633 346.285 39.9968 346.563 39.4819C346.841 38.967 347.22 38.5527 347.699 38.239C348.179 37.9253 348.723 37.6886 349.333 37.5288C349.948 37.369 350.593 37.2565 351.268 37.1914C352.061 37.1085 352.7 37.0316 353.186 36.9606C353.671 36.8836 354.023 36.7712 354.242 36.6232C354.461 36.4753 354.571 36.2563 354.571 35.9663V35.913C354.571 35.3507 354.393 34.9157 354.038 34.608C353.689 34.3002 353.192 34.1463 352.547 34.1463C351.866 34.1463 351.324 34.2972 350.922 34.5991C350.519 34.895 350.253 35.2679 350.123 35.7177L346.625 35.4336C346.803 34.605 347.152 33.8888 347.673 33.2852C348.193 32.6755 348.865 32.208 349.688 31.8825C350.517 31.551 351.475 31.3853 352.564 31.3853C353.322 31.3853 354.047 31.4741 354.739 31.6516C355.438 31.8292 356.056 32.1044 356.595 32.4773C357.139 32.8501 357.568 33.3295 357.882 33.9155C358.196 34.4955 358.353 35.1909 358.353 36.0018V45.1992H354.766V43.3082H354.66C354.441 43.7344 354.148 44.1102 353.781 44.4357C353.414 44.7553 352.973 45.0069 352.458 45.1903C351.943 45.3679 351.348 45.4567 350.673 45.4567ZM351.756 42.8466C352.313 42.8466 352.804 42.7371 353.23 42.5181C353.656 42.2932 353.991 41.9914 354.233 41.6126C354.476 41.2338 354.597 40.8047 354.597 40.3253V38.8782C354.479 38.9551 354.316 39.0262 354.109 39.0913C353.908 39.1504 353.68 39.2067 353.425 39.2599C353.171 39.3073 352.916 39.3517 352.662 39.3931C352.408 39.4286 352.177 39.4612 351.97 39.4908C351.526 39.5559 351.138 39.6594 350.807 39.8015C350.475 39.9435 350.218 40.1359 350.034 40.3786C349.851 40.6153 349.759 40.9112 349.759 41.2663C349.759 41.7812 349.945 42.1748 350.318 42.4471C350.697 42.7134 351.176 42.8466 351.756 42.8466ZM360.037 45.1992V31.5629H363.819V45.1992H360.037ZM361.937 29.805C361.374 29.805 360.892 29.6186 360.49 29.2457C360.093 28.867 359.895 28.4142 359.895 27.8874C359.895 27.3666 360.093 26.9197 360.49 26.5469C360.892 26.1681 361.374 25.9787 361.937 25.9787C362.499 25.9787 362.978 26.1681 363.375 26.5469C363.777 26.9197 363.979 27.3666 363.979 27.8874C363.979 28.4142 363.777 28.867 363.375 29.2457C362.978 29.6186 362.499 29.805 361.937 29.805ZM369.38 37.3157V45.1992H365.598V31.5629H369.203V33.9688H369.363C369.664 33.1757 370.17 32.5483 370.881 32.0866C371.591 31.6191 372.452 31.3853 373.464 31.3853C374.411 31.3853 375.237 31.5924 375.941 32.0067C376.645 32.421 377.193 33.0129 377.583 33.7823C377.974 34.5458 378.169 35.4573 378.169 36.5167V45.1992H374.387V37.1914C374.393 36.3569 374.18 35.7058 373.748 35.2383C373.316 34.7648 372.721 34.5281 371.964 34.5281C371.455 34.5281 371.005 34.6375 370.614 34.8565C370.23 35.0755 369.928 35.3951 369.709 35.8153C369.496 36.2296 369.386 36.7298 369.38 37.3157ZM388.325 45.4567C387.455 45.4567 386.679 45.3058 385.999 45.0039C385.318 44.6961 384.78 44.2434 384.383 43.6456C383.992 43.0419 383.797 42.2902 383.797 41.3906C383.797 40.633 383.936 39.9968 384.214 39.4819C384.492 38.967 384.871 38.5527 385.351 38.239C385.83 37.9253 386.375 37.6886 386.984 37.5288C387.6 37.369 388.245 37.2565 388.92 37.1914C389.713 37.1085 390.352 37.0316 390.837 36.9606C391.322 36.8836 391.675 36.7712 391.894 36.6232C392.113 36.4753 392.222 36.2563 392.222 35.9663V35.913C392.222 35.3507 392.045 34.9157 391.689 34.608C391.34 34.3002 390.843 34.1463 390.198 34.1463C389.517 34.1463 388.976 34.2972 388.573 34.5991C388.171 34.895 387.905 35.2679 387.774 35.7177L384.276 35.4336C384.454 34.605 384.803 33.8888 385.324 33.2852C385.845 32.6755 386.517 32.208 387.339 31.8825C388.168 31.551 389.127 31.3853 390.216 31.3853C390.973 31.3853 391.698 31.4741 392.391 31.6516C393.089 31.8292 393.708 32.1044 394.246 32.4773C394.791 32.8501 395.22 33.3295 395.534 33.9155C395.847 34.4955 396.004 35.1909 396.004 36.0018V45.1992H392.417V43.3082H392.311C392.092 43.7344 391.799 44.1102 391.432 44.4357C391.065 44.7553 390.624 45.0069 390.109 45.1903C389.594 45.3679 388.999 45.4567 388.325 45.4567ZM389.408 42.8466C389.964 42.8466 390.455 42.7371 390.882 42.5181C391.308 42.2932 391.642 41.9914 391.885 41.6126C392.127 41.2338 392.249 40.8047 392.249 40.3253V38.8782C392.13 38.9551 391.968 39.0262 391.76 39.0913C391.559 39.1504 391.331 39.2067 391.077 39.2599C390.822 39.3073 390.568 39.3517 390.313 39.3931C390.059 39.4286 389.828 39.4612 389.621 39.4908C389.177 39.5559 388.789 39.6594 388.458 39.8015C388.126 39.9435 387.869 40.1359 387.686 40.3786C387.502 40.6153 387.41 40.9112 387.41 41.2663C387.41 41.7812 387.597 42.1748 387.97 42.4471C388.348 42.7134 388.828 42.8466 389.408 42.8466ZM403.849 45.4656C402.453 45.4656 401.251 45.1696 400.245 44.5778C399.245 43.98 398.475 43.1514 397.937 42.092C397.404 41.0326 397.138 39.8133 397.138 38.4343C397.138 37.0375 397.407 35.8124 397.946 34.7589C398.49 33.6995 399.263 32.8738 400.263 32.282C401.263 31.6842 402.453 31.3853 403.832 31.3853C405.021 31.3853 406.063 31.6013 406.957 32.0334C407.85 32.4654 408.558 33.0721 409.078 33.8533C409.599 34.6346 409.886 35.552 409.94 36.6055H406.371C406.27 35.9248 406.004 35.3774 405.572 34.9631C405.146 34.5429 404.586 34.3327 403.894 34.3327C403.308 34.3327 402.796 34.4925 402.358 34.8121C401.926 35.1258 401.589 35.5845 401.346 36.1882C401.103 36.7919 400.982 37.5228 400.982 38.381C400.982 39.2511 401.1 39.9909 401.337 40.6005C401.58 41.2101 401.92 41.6747 402.358 41.9943C402.796 42.3139 403.308 42.4737 403.894 42.4737C404.326 42.4737 404.714 42.3849 405.057 42.2074C405.406 42.0298 405.693 41.7724 405.918 41.435C406.149 41.0917 406.3 40.6804 406.371 40.201H409.94C409.88 41.2427 409.596 42.16 409.087 42.9531C408.584 43.7403 407.889 44.3558 407.001 44.7997C406.113 45.2436 405.063 45.4656 403.849 45.4656ZM417.272 45.4656C415.875 45.4656 414.674 45.1696 413.668 44.5778C412.668 43.98 411.898 43.1514 411.36 42.092C410.827 41.0326 410.561 39.8133 410.561 38.4343C410.561 37.0375 410.83 35.8124 411.368 34.7589C411.913 33.6995 412.685 32.8738 413.686 32.282C414.686 31.6842 415.875 31.3853 417.255 31.3853C418.444 31.3853 419.486 31.6013 420.38 32.0334C421.273 32.4654 421.98 33.0721 422.501 33.8533C423.022 34.6346 423.309 35.552 423.362 36.6055H419.794C419.693 35.9248 419.427 35.3774 418.995 34.9631C418.568 34.5429 418.009 34.3327 417.317 34.3327C416.731 34.3327 416.219 34.4925 415.781 34.8121C415.349 35.1258 415.011 35.5845 414.769 36.1882C414.526 36.7919 414.405 37.5228 414.405 38.381C414.405 39.2511 414.523 39.9909 414.76 40.6005C415.002 41.2101 415.343 41.6747 415.781 41.9943C416.219 42.3139 416.731 42.4737 417.317 42.4737C417.749 42.4737 418.136 42.3849 418.48 42.2074C418.829 42.0298 419.116 41.7724 419.341 41.435C419.572 41.0917 419.723 40.6804 419.794 40.201H423.362C423.303 41.2427 423.019 42.16 422.51 42.9531C422.007 43.7403 421.312 44.3558 420.424 44.7997C419.536 45.2436 418.486 45.4656 417.272 45.4656ZM430.748 45.4656C429.346 45.4656 428.138 45.1815 427.126 44.6133C426.12 44.0392 425.345 43.2283 424.8 42.1808C424.256 41.1272 423.983 39.8814 423.983 38.4432C423.983 37.0405 424.256 35.8094 424.8 34.75C425.345 33.6906 426.111 32.8649 427.1 32.2731C428.094 31.6812 429.26 31.3853 430.597 31.3853C431.497 31.3853 432.335 31.5303 433.11 31.8203C433.891 32.1044 434.572 32.5335 435.152 33.1076C435.738 33.6817 436.193 34.4038 436.519 35.2738C436.844 36.1379 437.007 37.15 437.007 38.31V39.3487H425.493V37.005H433.447C433.447 36.4605 433.329 35.9781 433.092 35.5579C432.855 35.1377 432.527 34.8092 432.107 34.5724C431.692 34.3298 431.21 34.2085 430.66 34.2085C430.086 34.2085 429.577 34.3416 429.133 34.608C428.695 34.8684 428.351 35.2205 428.103 35.6644C427.854 36.1024 427.727 36.5907 427.721 37.1293V39.3576C427.721 40.0323 427.845 40.6153 428.094 41.1065C428.348 41.5978 428.706 41.9766 429.168 42.2429C429.63 42.5092 430.177 42.6424 430.811 42.6424C431.231 42.6424 431.615 42.5832 431.965 42.4648C432.314 42.3465 432.613 42.1689 432.861 41.9322C433.11 41.6954 433.299 41.4054 433.429 41.0621L436.927 41.293C436.75 42.1334 436.386 42.8673 435.835 43.4947C435.291 44.1161 434.587 44.6014 433.722 44.9506C432.864 45.2939 431.873 45.4656 430.748 45.4656ZM449.571 35.4513L446.109 35.6644C446.05 35.3685 445.922 35.1022 445.727 34.8654C445.532 34.6228 445.274 34.4304 444.955 34.2884C444.641 34.1404 444.265 34.0664 443.827 34.0664C443.241 34.0664 442.747 34.1907 442.345 34.4393C441.942 34.6819 441.741 35.0075 441.741 35.4158C441.741 35.7414 441.871 36.0166 442.132 36.2415C442.392 36.4664 442.839 36.6469 443.472 36.783L445.94 37.2802C447.266 37.5524 448.254 37.9904 448.905 38.5941C449.556 39.1978 449.882 39.9909 449.882 40.9734C449.882 41.8671 449.619 42.6513 449.092 43.326C448.571 44.0007 447.855 44.5275 446.943 44.9062C446.038 45.2791 444.993 45.4656 443.809 45.4656C442.004 45.4656 440.566 45.0897 439.495 44.3381C438.429 43.5805 437.805 42.5507 437.622 41.2486L441.341 41.0533C441.454 41.6037 441.726 42.0239 442.158 42.3139C442.59 42.598 443.144 42.7401 443.818 42.7401C444.481 42.7401 445.014 42.6128 445.416 42.3583C445.825 42.0979 446.032 41.7635 446.038 41.3551C446.032 41.0118 445.887 40.7307 445.603 40.5117C445.319 40.2868 444.881 40.1152 444.289 39.9968L441.927 39.5263C440.596 39.2599 439.604 38.7983 438.953 38.1413C438.308 37.4844 437.986 36.6469 437.986 35.6289C437.986 34.753 438.222 33.9983 438.696 33.3651C439.175 32.7318 439.847 32.2435 440.711 31.9002C441.581 31.5569 442.599 31.3853 443.765 31.3853C445.487 31.3853 446.843 31.7493 447.831 32.4773C448.825 33.2053 449.405 34.1966 449.571 35.4513ZM462.359 35.4513L458.897 35.6644C458.838 35.3685 458.71 35.1022 458.515 34.8654C458.32 34.6228 458.062 34.4304 457.743 34.2884C457.429 34.1404 457.053 34.0664 456.615 34.0664C456.029 34.0664 455.535 34.1907 455.133 34.4393C454.73 34.6819 454.529 35.0075 454.529 35.4158C454.529 35.7414 454.659 36.0166 454.92 36.2415C455.18 36.4664 455.627 36.6469 456.26 36.783L458.728 37.2802C460.054 37.5524 461.042 37.9904 461.693 38.5941C462.344 39.1978 462.67 39.9909 462.67 40.9734C462.67 41.8671 462.407 42.6513 461.88 43.326C461.359 44.0007 460.643 44.5275 459.731 44.9062C458.826 45.2791 457.781 45.4656 456.598 45.4656C454.792 45.4656 453.354 45.0897 452.283 44.3381C451.218 43.5805 450.593 42.5507 450.41 41.2486L454.13 41.0533C454.242 41.6037 454.514 42.0239 454.946 42.3139C455.378 42.598 455.932 42.7401 456.606 42.7401C457.269 42.7401 457.802 42.6128 458.204 42.3583C458.613 42.0979 458.82 41.7635 458.826 41.3551C458.82 41.0118 458.675 40.7307 458.391 40.5117C458.107 40.2868 457.669 40.1152 457.077 39.9968L454.715 39.5263C453.384 39.2599 452.392 38.7983 451.741 38.1413C451.096 37.4844 450.774 36.6469 450.774 35.6289C450.774 34.753 451.01 33.9983 451.484 33.3651C451.963 32.7318 452.635 32.2435 453.499 31.9002C454.369 31.5569 455.387 31.3853 456.553 31.3853C458.275 31.3853 459.631 31.7493 460.619 32.4773C461.614 33.2053 462.194 34.1966 462.359 35.4513ZM475.591 31.5629V34.4038H467.379V31.5629H475.591ZM469.243 28.2958H473.025V41.0089C473.025 41.3581 473.078 41.6303 473.185 41.8256C473.291 42.015 473.439 42.1482 473.629 42.2251C473.824 42.3021 474.049 42.3406 474.304 42.3406C474.481 42.3406 474.659 42.3258 474.836 42.2962C475.014 42.2607 475.15 42.234 475.245 42.2163L475.839 45.0305C475.65 45.0897 475.384 45.1578 475.04 45.2347C474.697 45.3176 474.28 45.3679 473.789 45.3857C472.877 45.4212 472.078 45.2998 471.392 45.0217C470.711 44.7435 470.181 44.3114 469.802 43.7255C469.424 43.1396 469.237 42.3997 469.243 41.506V28.2958ZM482.819 45.4656C481.44 45.4656 480.248 45.1726 479.241 44.5866C478.241 43.9948 477.469 43.1721 476.924 42.1186C476.38 41.0592 476.107 39.8311 476.107 38.4343C476.107 37.0257 476.38 35.7946 476.924 34.7411C477.469 33.6817 478.241 32.859 479.241 32.2731C480.248 31.6812 481.44 31.3853 482.819 31.3853C484.198 31.3853 485.388 31.6812 486.388 32.2731C487.394 32.859 488.17 33.6817 488.714 34.7411C489.259 35.7946 489.531 37.0257 489.531 38.4343C489.531 39.8311 489.259 41.0592 488.714 42.1186C488.17 43.1721 487.394 43.9948 486.388 44.5866C485.388 45.1726 484.198 45.4656 482.819 45.4656ZM482.837 42.5359C483.464 42.5359 483.988 42.3583 484.408 42.0032C484.828 41.6422 485.145 41.1509 485.358 40.5295C485.577 39.908 485.687 39.2008 485.687 38.4077C485.687 37.6146 485.577 36.9073 485.358 36.2859C485.145 35.6644 484.828 35.1732 484.408 34.8121C483.988 34.4511 483.464 34.2706 482.837 34.2706C482.204 34.2706 481.671 34.4511 481.239 34.8121C480.813 35.1732 480.49 35.6644 480.271 36.2859C480.058 36.9073 479.952 37.6146 479.952 38.4077C479.952 39.2008 480.058 39.908 480.271 40.5295C480.49 41.1509 480.813 41.6422 481.239 42.0032C481.671 42.3583 482.204 42.5359 482.837 42.5359ZM501.437 45.4656C500.058 45.4656 498.866 45.1726 497.86 44.5866C496.859 43.9948 496.087 43.1721 495.542 42.1186C494.998 41.0592 494.726 39.8311 494.726 38.4343C494.726 37.0257 494.998 35.7946 495.542 34.7411C496.087 33.6817 496.859 32.859 497.86 32.2731C498.866 31.6812 500.058 31.3853 501.437 31.3853C502.816 31.3853 504.006 31.6812 505.006 32.2731C506.012 32.859 506.788 33.6817 507.332 34.7411C507.877 35.7946 508.149 37.0257 508.149 38.4343C508.149 39.8311 507.877 41.0592 507.332 42.1186C506.788 43.1721 506.012 43.9948 505.006 44.5866C504.006 45.1726 502.816 45.4656 501.437 45.4656ZM501.455 42.5359C502.082 42.5359 502.606 42.3583 503.026 42.0032C503.447 41.6422 503.763 41.1509 503.976 40.5295C504.195 39.908 504.305 39.2008 504.305 38.4077C504.305 37.6146 504.195 36.9073 503.976 36.2859C503.763 35.6644 503.447 35.1732 503.026 34.8121C502.606 34.4511 502.082 34.2706 501.455 34.2706C500.822 34.2706 500.289 34.4511 499.857 34.8121C499.431 35.1732 499.108 35.6644 498.889 36.2859C498.676 36.9073 498.57 37.6146 498.57 38.4077C498.57 39.2008 498.676 39.908 498.889 40.5295C499.108 41.1509 499.431 41.6422 499.857 42.0032C500.289 42.3583 500.822 42.5359 501.455 42.5359ZM518.103 39.3931V31.5629H521.885V45.1992H518.254V42.7223H518.112C517.804 43.5213 517.292 44.1635 516.576 44.6488C515.866 45.1341 514.998 45.3768 513.975 45.3768C513.063 45.3768 512.261 45.1696 511.569 44.7553C510.876 44.341 510.335 43.7521 509.944 42.9886C509.559 42.2251 509.364 41.3107 509.358 40.2454V31.5629H513.14V39.5707C513.146 40.3756 513.362 41.0118 513.788 41.4794C514.214 41.947 514.785 42.1808 515.502 42.1808C515.957 42.1808 516.383 42.0772 516.78 41.87C517.177 41.657 517.496 41.3433 517.739 40.929C517.987 40.5147 518.109 40.0027 518.103 39.3931ZM523.66 45.1992V31.5629H527.326V33.9421H527.468C527.717 33.0958 528.134 32.4566 528.72 32.0245C529.306 31.5865 529.981 31.3675 530.744 31.3675C530.934 31.3675 531.138 31.3794 531.357 31.4031C531.576 31.4267 531.768 31.4593 531.934 31.5007V34.8565C531.756 34.8033 531.511 34.7559 531.197 34.7145C530.883 34.6731 530.596 34.6523 530.336 34.6523C529.78 34.6523 529.283 34.7737 528.845 35.0163C528.412 35.2531 528.069 35.5845 527.815 36.0107C527.566 36.4368 527.442 36.928 527.442 37.4844V45.1992H523.66ZM537.247 27.0174H541.987L546.994 39.2333H547.207L552.215 27.0174H556.955V45.1992H553.227V33.3651H553.076L548.37 45.1104H545.831L541.126 33.3207H540.975V45.1992H537.247V27.0174ZM562.69 45.4567C561.82 45.4567 561.045 45.3058 560.364 45.0039C559.683 44.6961 559.145 44.2434 558.748 43.6456C558.358 43.0419 558.162 42.2902 558.162 41.3906C558.162 40.633 558.301 39.9968 558.58 39.4819C558.858 38.967 559.236 38.5527 559.716 38.239C560.195 37.9253 560.74 37.6886 561.349 37.5288C561.965 37.369 562.61 37.2565 563.285 37.1914C564.078 37.1085 564.717 37.0316 565.202 36.9606C565.688 36.8836 566.04 36.7712 566.259 36.6232C566.478 36.4753 566.587 36.2563 566.587 35.9663V35.913C566.587 35.3507 566.41 34.9157 566.055 34.608C565.705 34.3002 565.208 34.1463 564.563 34.1463C563.883 34.1463 563.341 34.2972 562.939 34.5991C562.536 34.895 562.27 35.2679 562.14 35.7177L558.642 35.4336C558.819 34.605 559.168 33.8888 559.689 33.2852C560.21 32.6755 560.882 32.208 561.705 31.8825C562.533 31.551 563.492 31.3853 564.581 31.3853C565.339 31.3853 566.064 31.4741 566.756 31.6516C567.454 31.8292 568.073 32.1044 568.611 32.4773C569.156 32.8501 569.585 33.3295 569.899 33.9155C570.212 34.4955 570.369 35.1909 570.369 36.0018V45.1992H566.783V43.3082H566.676C566.457 43.7344 566.164 44.1102 565.797 44.4357C565.43 44.7553 564.989 45.0069 564.474 45.1903C563.959 45.3679 563.365 45.4567 562.69 45.4567ZM563.773 42.8466C564.329 42.8466 564.821 42.7371 565.247 42.5181C565.673 42.2932 566.007 41.9914 566.25 41.6126C566.493 41.2338 566.614 40.8047 566.614 40.3253V38.8782C566.496 38.9551 566.333 39.0262 566.126 39.0913C565.924 39.1504 565.697 39.2067 565.442 39.2599C565.188 39.3073 564.933 39.3517 564.679 39.3931C564.424 39.4286 564.193 39.4612 563.986 39.4908C563.542 39.5559 563.155 39.6594 562.823 39.8015C562.492 39.9435 562.234 40.1359 562.051 40.3786C561.867 40.6153 561.776 40.9112 561.776 41.2663C561.776 41.7812 561.962 42.1748 562.335 42.4471C562.714 42.7134 563.193 42.8466 563.773 42.8466ZM572.053 45.1992V31.5629H575.72V33.9421H575.862C576.111 33.0958 576.528 32.4566 577.114 32.0245C577.7 31.5865 578.374 31.3675 579.138 31.3675C579.327 31.3675 579.532 31.3794 579.751 31.4031C579.969 31.4267 580.162 31.4593 580.328 31.5007V34.8565C580.15 34.8033 579.904 34.7559 579.591 34.7145C579.277 34.6731 578.99 34.6523 578.73 34.6523C578.173 34.6523 577.676 34.7737 577.238 35.0163C576.806 35.2531 576.463 35.5845 576.208 36.0107C575.96 36.4368 575.835 36.928 575.835 37.4844V45.1992H572.053ZM584.46 41.2752L584.469 36.7386H585.019L589.387 31.5629H593.728L587.86 38.4165H586.963L584.46 41.2752ZM581.033 45.1992V27.0174H584.815V45.1992H581.033ZM589.556 45.1992L585.543 39.2599L588.064 36.5877L593.986 45.1992H589.556ZM599.987 45.4656C598.584 45.4656 597.377 45.1815 596.365 44.6133C595.358 44.0392 594.583 43.2283 594.039 42.1808C593.494 41.1272 593.222 39.8814 593.222 38.4432C593.222 37.0405 593.494 35.8094 594.039 34.75C594.583 33.6906 595.349 32.8649 596.338 32.2731C597.332 31.6812 598.498 31.3853 599.836 31.3853C600.735 31.3853 601.573 31.5303 602.348 31.8203C603.129 32.1044 603.81 32.5335 604.39 33.1076C604.976 33.6817 605.432 34.4038 605.757 35.2738C606.083 36.1379 606.246 37.15 606.246 38.31V39.3487H594.731V37.005H602.686C602.686 36.4605 602.567 35.9781 602.33 35.5579C602.094 35.1377 601.765 34.8092 601.345 34.5724C600.931 34.3298 600.448 34.2085 599.898 34.2085C599.324 34.2085 598.815 34.3416 598.371 34.608C597.933 34.8684 597.59 35.2205 597.341 35.6644C597.092 36.1024 596.965 36.5907 596.959 37.1293V39.3576C596.959 40.0323 597.084 40.6153 597.332 41.1065C597.587 41.5978 597.945 41.9766 598.406 42.2429C598.868 42.5092 599.416 42.6424 600.049 42.6424C600.469 42.6424 600.854 42.5832 601.203 42.4648C601.552 42.3465 601.851 42.1689 602.1 41.9322C602.348 41.6954 602.538 41.4054 602.668 41.0621L606.166 41.293C605.988 42.1334 605.624 42.8673 605.074 43.4947C604.529 44.1161 603.825 44.6014 602.961 44.9506C602.103 45.2939 601.111 45.4656 599.987 45.4656ZM614.717 31.5629V34.4038H606.505V31.5629H614.717ZM608.369 28.2958H612.151V41.0089C612.151 41.3581 612.204 41.6303 612.311 41.8256C612.417 42.015 612.565 42.1482 612.755 42.2251C612.95 42.3021 613.175 42.3406 613.429 42.3406C613.607 42.3406 613.785 42.3258 613.962 42.2962C614.14 42.2607 614.276 42.234 614.371 42.2163L614.965 45.0305C614.776 45.0897 614.51 45.1578 614.166 45.2347C613.823 45.3176 613.406 45.3679 612.915 45.3857C612.003 45.4212 611.204 45.2998 610.518 45.0217C609.837 44.7435 609.307 44.3114 608.928 43.7255C608.55 43.1396 608.363 42.3997 608.369 41.506V28.2958ZM615.93 50.3129V31.5629H619.659V33.8533H619.828C619.993 33.4864 620.233 33.1135 620.547 32.7347C620.866 32.35 621.281 32.0304 621.79 31.7759C622.305 31.5155 622.944 31.3853 623.707 31.3853C624.702 31.3853 625.619 31.6457 626.459 32.1665C627.3 32.6815 627.972 33.4598 628.475 34.5014C628.978 35.5372 629.229 36.8363 629.229 38.3988C629.229 39.9199 628.984 41.2042 628.493 42.2518C628.007 43.2934 627.344 44.0836 626.504 44.6222C625.669 45.1548 624.734 45.4212 623.698 45.4212C622.965 45.4212 622.34 45.2998 621.825 45.0572C621.316 44.8145 620.899 44.5097 620.573 44.1428C620.248 43.7699 619.999 43.3941 619.828 43.0153H619.712V50.3129H615.93ZM619.632 38.381C619.632 39.1919 619.745 39.8991 619.97 40.5028C620.195 41.1065 620.52 41.5771 620.946 41.9144C621.372 42.2459 621.89 42.4116 622.5 42.4116C623.116 42.4116 623.636 42.2429 624.062 41.9055C624.489 41.5623 624.811 41.0888 625.03 40.4851C625.255 39.8755 625.368 39.1741 625.368 38.381C625.368 37.5939 625.258 36.9014 625.039 36.3036C624.82 35.7058 624.497 35.2383 624.071 34.9009C623.645 34.5636 623.121 34.3949 622.5 34.3949C621.884 34.3949 621.364 34.5576 620.937 34.8832C620.517 35.2087 620.195 35.6703 619.97 36.2681C619.745 36.8659 619.632 37.5702 619.632 38.381ZM634.283 27.0174V45.1992H630.501V27.0174H634.283ZM639.951 45.4567C639.081 45.4567 638.305 45.3058 637.625 45.0039C636.944 44.6961 636.405 44.2434 636.009 43.6456C635.618 43.0419 635.423 42.2902 635.423 41.3906C635.423 40.633 635.562 39.9968 635.84 39.4819C636.118 38.967 636.497 38.5527 636.977 38.239C637.456 37.9253 638.001 37.6886 638.61 37.5288C639.226 37.369 639.871 37.2565 640.546 37.1914C641.339 37.1085 641.978 37.0316 642.463 36.9606C642.948 36.8836 643.301 36.7712 643.52 36.6232C643.739 36.4753 643.848 36.2563 643.848 35.9663V35.913C643.848 35.3507 643.671 34.9157 643.315 34.608C642.966 34.3002 642.469 34.1463 641.824 34.1463C641.143 34.1463 640.602 34.2972 640.199 34.5991C639.797 34.895 639.53 35.2679 639.4 35.7177L635.902 35.4336C636.08 34.605 636.429 33.8888 636.95 33.2852C637.471 32.6755 638.143 32.208 638.965 31.8825C639.794 31.551 640.753 31.3853 641.842 31.3853C642.599 31.3853 643.324 31.4741 644.017 31.6516C644.715 31.8292 645.334 32.1044 645.872 32.4773C646.417 32.8501 646.846 33.3295 647.16 33.9155C647.473 34.4955 647.63 35.1909 647.63 36.0018V45.1992H644.043V43.3082H643.937C643.718 43.7344 643.425 44.1102 643.058 44.4357C642.691 44.7553 642.25 45.0069 641.735 45.1903C641.22 45.3679 640.625 45.4567 639.951 45.4567ZM641.034 42.8466C641.59 42.8466 642.081 42.7371 642.508 42.5181C642.934 42.2932 643.268 41.9914 643.511 41.6126C643.753 41.2338 643.875 40.8047 643.875 40.3253V38.8782C643.756 38.9551 643.594 39.0262 643.386 39.0913C643.185 39.1504 642.957 39.2067 642.703 39.2599C642.448 39.3073 642.194 39.3517 641.939 39.3931C641.685 39.4286 641.454 39.4612 641.247 39.4908C640.803 39.5559 640.415 39.6594 640.084 39.8015C639.752 39.9435 639.495 40.1359 639.312 40.3786C639.128 40.6153 639.036 40.9112 639.036 41.2663C639.036 41.7812 639.223 42.1748 639.596 42.4471C639.974 42.7134 640.454 42.8466 641.034 42.8466ZM655.475 45.4656C654.079 45.4656 652.877 45.1696 651.871 44.5778C650.871 43.98 650.101 43.1514 649.563 42.092C649.03 41.0326 648.764 39.8133 648.764 38.4343C648.764 37.0375 649.033 35.8124 649.572 34.7589C650.116 33.6995 650.889 32.8738 651.889 32.282C652.889 31.6842 654.079 31.3853 655.458 31.3853C656.647 31.3853 657.689 31.6013 658.583 32.0334C659.476 32.4654 660.184 33.0721 660.704 33.8533C661.225 34.6346 661.512 35.552 661.566 36.6055H657.997C657.896 35.9248 657.63 35.3774 657.198 34.9631C656.772 34.5429 656.212 34.3327 655.52 34.3327C654.934 34.3327 654.422 34.4925 653.984 34.8121C653.552 35.1258 653.214 35.5845 652.972 36.1882C652.729 36.7919 652.608 37.5228 652.608 38.381C652.608 39.2511 652.726 39.9909 652.963 40.6005C653.206 41.2101 653.546 41.6747 653.984 41.9943C654.422 42.3139 654.934 42.4737 655.52 42.4737C655.952 42.4737 656.339 42.3849 656.683 42.2074C657.032 42.0298 657.319 41.7724 657.544 41.435C657.775 41.0917 657.926 40.6804 657.997 40.201H661.566C661.506 41.2427 661.222 42.16 660.713 42.9531C660.21 43.7403 659.515 44.3558 658.627 44.7997C657.739 45.2436 656.689 45.4656 655.475 45.4656ZM668.952 45.4656C667.549 45.4656 666.341 45.1815 665.329 44.6133C664.323 44.0392 663.548 43.2283 663.003 42.1808C662.459 41.1272 662.187 39.8814 662.187 38.4432C662.187 37.0405 662.459 35.8094 663.003 34.75C663.548 33.6906 664.314 32.8649 665.303 32.2731C666.297 31.6812 667.463 31.3853 668.801 31.3853C669.7 31.3853 670.538 31.5303 671.313 31.8203C672.094 32.1044 672.775 32.5335 673.355 33.1076C673.941 33.6817 674.397 34.4038 674.722 35.2738C675.048 36.1379 675.21 37.15 675.21 38.31V39.3487H663.696V37.005H671.65C671.65 36.4605 671.532 35.9781 671.295 35.5579C671.059 35.1377 670.73 34.8092 670.31 34.5724C669.896 34.3298 669.413 34.2085 668.863 34.2085C668.289 34.2085 667.78 34.3416 667.336 34.608C666.898 34.8684 666.554 35.2205 666.306 35.6644C666.057 36.1024 665.93 36.5907 665.924 37.1293V39.3576C665.924 40.0323 666.048 40.6153 666.297 41.1065C666.552 41.5978 666.91 41.9766 667.371 42.2429C667.833 42.5092 668.38 42.6424 669.014 42.6424C669.434 42.6424 669.819 42.5832 670.168 42.4648C670.517 42.3465 670.816 42.1689 671.064 41.9322C671.313 41.6954 671.502 41.4054 671.633 41.0621L675.13 41.293C674.953 42.1334 674.589 42.8673 674.039 43.4947C673.494 44.1161 672.79 44.6014 671.926 44.9506C671.067 45.2939 670.076 45.4656 668.952 45.4656Z" fill="#222141"/>
<g filter="url(#filter2_d_3139_10775)">
<rect x="94.2" y="61.1992" width="126" height="40" rx="20" fill="#222141" shape-rendering="crispEdges"/>
<path d="M117.304 83.6872C117.504 83.9462 117.895 83.9462 118.096 83.6872L123.759 76.3582C124.119 75.8926 123.519 75.2962 123.055 75.6586L118.008 79.606C117.827 79.7475 117.573 79.7475 117.392 79.606L112.345 75.6586C111.881 75.2962 111.281 75.8926 111.641 76.3582L117.304 83.6872Z" fill="white"/>
<rect x="109.2" y="86.1992" width="17" height="2" rx="1" fill="white"/>
<path d="M140.138 79.2589C140.067 79.0288 139.969 78.8228 139.844 78.641C139.722 78.4563 139.574 78.2987 139.401 78.168C139.23 78.0373 139.034 77.9393 138.813 77.8739C138.591 77.8058 138.349 77.7717 138.088 77.7717C137.619 77.7717 137.202 77.8896 136.835 78.1254C136.469 78.3612 136.18 78.7077 135.97 79.1651C135.763 79.6197 135.659 80.1737 135.659 80.8271C135.659 81.4862 135.763 82.0444 135.97 82.5018C136.178 82.9592 136.466 83.3072 136.835 83.5458C137.205 83.7816 137.634 83.8995 138.122 83.8995C138.565 83.8995 138.949 83.8143 139.273 83.6438C139.599 83.4734 139.851 83.2319 140.027 82.9194C140.203 82.604 140.291 82.2347 140.291 81.8114L140.649 81.8668H138.28V80.631H141.821V81.6793C141.821 82.4265 141.662 83.0728 141.344 83.6183C141.026 84.1637 140.588 84.5842 140.031 84.8796C139.474 85.1722 138.835 85.3185 138.114 85.3185C137.31 85.3185 136.604 85.1381 135.996 84.7773C135.391 84.4137 134.918 83.8981 134.577 83.2305C134.239 82.56 134.07 81.7646 134.07 80.8441C134.07 80.1396 134.169 79.5103 134.368 78.9563C134.57 78.4023 134.851 77.9322 135.212 77.5458C135.572 77.1566 135.996 76.8612 136.482 76.6594C136.967 76.4549 137.496 76.3526 138.067 76.3526C138.55 76.3526 139 76.4237 139.418 76.5657C139.835 76.7049 140.206 76.9038 140.53 77.1623C140.857 77.4208 141.125 77.7276 141.335 78.0827C141.545 78.4379 141.683 78.8299 141.749 79.2589H140.138ZM146.179 85.3271C145.523 85.3271 144.956 85.1907 144.479 84.918C144.005 84.6424 143.64 84.2532 143.384 83.7504C143.128 83.2447 143 82.6495 143 81.9648C143 81.2915 143.128 80.7006 143.384 80.1921C143.642 79.6808 144.003 79.283 144.466 78.9989C144.929 78.712 145.473 78.5685 146.098 78.5685C146.502 78.5685 146.882 78.6339 147.24 78.7646C147.601 78.8924 147.919 79.0913 148.195 79.3612C148.473 79.631 148.692 79.9748 148.851 80.3924C149.01 80.8072 149.09 81.3015 149.09 81.8754V82.3484H143.725V81.3086H147.611C147.608 81.0131 147.544 80.7504 147.419 80.5202C147.294 80.2873 147.12 80.104 146.895 79.9705C146.674 79.837 146.415 79.7702 146.12 79.7702C145.804 79.7702 145.527 79.8469 145.289 80.0004C145.05 80.1509 144.864 80.3498 144.73 80.5969C144.6 80.8413 144.533 81.1097 144.53 81.4023V82.31C144.53 82.6907 144.6 83.0174 144.739 83.2901C144.878 83.56 145.073 83.7674 145.323 83.9123C145.573 84.0543 145.865 84.1254 146.201 84.1254C146.425 84.1254 146.628 84.0941 146.81 84.0316C146.992 83.9663 147.15 83.8711 147.283 83.7461C147.417 83.6211 147.517 83.4663 147.586 83.2816L149.026 83.4435C148.935 83.8242 148.762 84.1566 148.506 84.4407C148.253 84.7219 147.929 84.9407 147.534 85.0969C147.14 85.2504 146.688 85.3271 146.179 85.3271ZM153.663 78.6538V79.8469H149.901V78.6538H153.663ZM150.83 77.0856H152.372V83.2305C152.372 83.4379 152.403 83.5969 152.466 83.7077C152.531 83.8157 152.616 83.8896 152.722 83.9293C152.827 83.9691 152.943 83.989 153.071 83.989C153.168 83.989 153.256 83.9819 153.335 83.9677C153.418 83.9535 153.48 83.9407 153.523 83.9293L153.783 85.1353C153.7 85.1637 153.582 85.195 153.429 85.229C153.278 85.2631 153.094 85.283 152.875 85.2887C152.489 85.3001 152.141 85.2418 151.831 85.114C151.521 84.9833 151.276 84.7816 151.094 84.5089C150.915 84.2362 150.827 83.8952 150.83 83.4862V77.0856ZM161.199 78.6538V79.8469H157.436V78.6538H161.199ZM158.365 77.0856H159.907V83.2305C159.907 83.4379 159.939 83.5969 160.001 83.7077C160.066 83.8157 160.152 83.8896 160.257 83.9293C160.362 83.9691 160.478 83.989 160.606 83.989C160.703 83.989 160.791 83.9819 160.87 83.9677C160.953 83.9535 161.015 83.9407 161.058 83.9293L161.318 85.1353C161.235 85.1637 161.118 85.195 160.964 85.229C160.814 85.2631 160.629 85.283 160.41 85.2887C160.024 85.3001 159.676 85.2418 159.366 85.114C159.056 84.9833 158.811 84.7816 158.629 84.5089C158.45 84.2362 158.362 83.8952 158.365 83.4862V77.0856ZM164.172 81.364V85.1992H162.629V76.4719H164.138V79.766H164.215C164.368 79.3967 164.605 79.1055 164.926 78.8924C165.25 78.6765 165.662 78.5685 166.162 78.5685C166.616 78.5685 167.013 78.6637 167.351 78.854C167.689 79.0444 167.95 79.3228 168.135 79.6893C168.322 80.0558 168.416 80.5032 168.416 81.0316V85.1992H166.874V81.2702C166.874 80.8299 166.76 80.4876 166.533 80.2433C166.308 79.9961 165.993 79.8725 165.587 79.8725C165.314 79.8725 165.07 79.9322 164.854 80.0515C164.641 80.168 164.473 80.337 164.351 80.5586C164.232 80.7802 164.172 81.0487 164.172 81.364ZM172.886 85.3271C172.23 85.3271 171.663 85.1907 171.186 84.918C170.712 84.6424 170.347 84.2532 170.091 83.7504C169.835 83.2447 169.707 82.6495 169.707 81.9648C169.707 81.2915 169.835 80.7006 170.091 80.1921C170.349 79.6808 170.71 79.283 171.173 78.9989C171.636 78.712 172.18 78.5685 172.805 78.5685C173.209 78.5685 173.59 78.6339 173.947 78.7646C174.308 78.8924 174.626 79.0913 174.902 79.3612C175.18 79.631 175.399 79.9748 175.558 80.3924C175.717 80.8072 175.797 81.3015 175.797 81.8754V82.3484H170.432V81.3086H174.318C174.315 81.0131 174.251 80.7504 174.126 80.5202C174.001 80.2873 173.827 80.104 173.602 79.9705C173.381 79.837 173.122 79.7702 172.827 79.7702C172.511 79.7702 172.234 79.8469 171.996 80.0004C171.757 80.1509 171.571 80.3498 171.438 80.5969C171.307 80.8413 171.24 81.1097 171.237 81.4023V82.31C171.237 82.6907 171.307 83.0174 171.446 83.2901C171.585 83.56 171.78 83.7674 172.03 83.9123C172.28 84.0543 172.572 84.1254 172.908 84.1254C173.132 84.1254 173.335 84.0941 173.517 84.0316C173.699 83.9663 173.857 83.8711 173.99 83.7461C174.124 83.6211 174.224 83.4663 174.293 83.2816L175.733 83.4435C175.642 83.8242 175.469 84.1566 175.213 84.4407C174.96 84.7219 174.636 84.9407 174.241 85.0969C173.847 85.2504 173.395 85.3271 172.886 85.3271ZM181.267 85.1992H179.58L182.652 76.4719H184.604L187.681 85.1992H185.993L183.662 78.2617H183.594L181.267 85.1992ZM181.323 81.7773H185.925V83.0472H181.323V81.7773ZM188.762 87.6538V78.6538H190.279V79.7362H190.369C190.448 79.5771 190.56 79.408 190.705 79.229C190.85 79.0472 191.046 78.8924 191.293 78.7646C191.541 78.6339 191.856 78.5685 192.239 78.5685C192.745 78.5685 193.201 78.6978 193.607 78.9563C194.016 79.212 194.34 79.5913 194.579 80.0941C194.82 80.5941 194.941 81.2077 194.941 81.935C194.941 82.6538 194.823 83.2646 194.587 83.7674C194.352 84.2702 194.031 84.6538 193.624 84.918C193.218 85.1822 192.758 85.3143 192.244 85.3143C191.869 85.3143 191.558 85.2518 191.31 85.1268C191.063 85.0018 190.864 84.8512 190.714 84.6751C190.566 84.4961 190.451 84.3271 190.369 84.168H190.305V87.6538H188.762ZM190.275 81.9265C190.275 82.3498 190.335 82.7205 190.454 83.0387C190.576 83.3569 190.751 83.6055 190.978 83.7844C191.208 83.9606 191.487 84.0487 191.813 84.0487C192.154 84.0487 192.44 83.9577 192.67 83.7759C192.9 83.5913 193.073 83.3398 193.19 83.0217C193.309 82.7006 193.369 82.3356 193.369 81.9265C193.369 81.5202 193.31 81.1594 193.194 80.8441C193.077 80.5288 192.904 80.2816 192.674 80.1026C192.444 79.9237 192.157 79.8342 191.813 79.8342C191.484 79.8342 191.204 79.9208 190.974 80.0941C190.744 80.2674 190.569 80.5103 190.45 80.8228C190.333 81.1353 190.275 81.5032 190.275 81.9265ZM196.262 87.6538V78.6538H197.779V79.7362H197.869C197.948 79.5771 198.06 79.408 198.205 79.229C198.35 79.0472 198.546 78.8924 198.793 78.7646C199.041 78.6339 199.356 78.5685 199.739 78.5685C200.245 78.5685 200.701 78.6978 201.107 78.9563C201.516 79.212 201.84 79.5913 202.079 80.0941C202.32 80.5941 202.441 81.2077 202.441 81.935C202.441 82.6538 202.323 83.2646 202.087 83.7674C201.852 84.2702 201.531 84.6538 201.124 84.918C200.718 85.1822 200.258 85.3143 199.744 85.3143C199.369 85.3143 199.058 85.2518 198.81 85.1268C198.563 85.0018 198.364 84.8512 198.214 84.6751C198.066 84.4961 197.951 84.3271 197.869 84.168H197.805V87.6538H196.262ZM197.775 81.9265C197.775 82.3498 197.835 82.7205 197.954 83.0387C198.076 83.3569 198.251 83.6055 198.478 83.7844C198.708 83.9606 198.987 84.0487 199.313 84.0487C199.654 84.0487 199.94 83.9577 200.17 83.7759C200.4 83.5913 200.573 83.3398 200.69 83.0217C200.809 82.7006 200.869 82.3356 200.869 81.9265C200.869 81.5202 200.81 81.1594 200.694 80.8441C200.577 80.5288 200.404 80.2816 200.174 80.1026C199.944 79.9237 199.657 79.8342 199.313 79.8342C198.984 79.8342 198.704 79.9208 198.474 80.0941C198.244 80.2674 198.069 80.5103 197.95 80.8228C197.833 81.1353 197.775 81.5032 197.775 81.9265Z" fill="white"/>
</g>
</g>
<defs>
<filter id="filter0_d_3139_10775" x="-4.95911e-05" y="-0.000782013" width="696.4" height="124.4" filterUnits="userSpaceOnUse" color-interpolation-filters="sRGB">
<feFlood flood-opacity="0" result="BackgroundImageFix"/>
<feColorMatrix in="SourceAlpha" type="matrix" values="0 0 0 0 0 0 0 0 0 0 0 0 0 0 0 0 0 0 127 0" result="hardAlpha"/>
<feOffset dy="-1"/>
<feGaussianBlur stdDeviation="10.1"/>
<feComposite in2="hardAlpha" operator="out"/>
<feColorMatrix type="matrix" values="0 0 0 0 1 0 0 0 0 1 0 0 0 0 1 0 0 0 1 0"/>
<feBlend mode="normal" in2="BackgroundImageFix" result="effect1_dropShadow_3139_10775"/>
<feBlend mode="normal" in="SourceGraphic" in2="effect1_dropShadow_3139_10775" result="shape"/>
</filter>
<filter id="filter1_d_3139_10775" x="-22.8" y="-19.8008" width="136" height="166" filterUnits="userSpaceOnUse" color-interpolation-filters="sRGB">
<feFlood flood-opacity="0" result="BackgroundImageFix"/>
<feColorMatrix in="SourceAlpha" type="matrix" values="0 0 0 0 0 0 0 0 0 0 0 0 0 0 0 0 0 0 127 0" result="hardAlpha"/>
<feOffset/>
<feGaussianBlur stdDeviation="20.5"/>
<feComposite in2="hardAlpha" operator="out"/>
<feColorMatrix type="matrix" values="0 0 0 0 1 0 0 0 0 1 0 0 0 0 1 0 0 0 1 0"/>
<feBlend mode="normal" in2="BackgroundImageFix" result="effect1_dropShadow_3139_10775"/>
<feBlend mode="normal" in="SourceGraphic" in2="effect1_dropShadow_3139_10775" result="shape"/>
</filter>
<filter id="filter2_d_3139_10775" x="81.1" y="48.0992" width="152.2" height="66.2" filterUnits="userSpaceOnUse" color-interpolation-filters="sRGB">
<feFlood flood-opacity="0" result="BackgroundImageFix"/>
<feColorMatrix in="SourceAlpha" type="matrix" values="0 0 0 0 0 0 0 0 0 0 0 0 0 0 0 0 0 0 127 0" result="hardAlpha"/>
<feOffset/>
<feGaussianBlur stdDeviation="6.55"/>
<feComposite in2="hardAlpha" operator="out"/>
<feColorMatrix type="matrix" values="0 0 0 0 1 0 0 0 0 1 0 0 0 0 1 0 0 0 1 0"/>
<feBlend mode="normal" in2="BackgroundImageFix" result="effect1_dropShadow_3139_10775"/>
<feBlend mode="normal" in="SourceGraphic" in2="effect1_dropShadow_3139_10775" result="shape"/>
</filter>
<clipPath id="clip0_3139_10775">
<rect width="54" height="84" fill="white" transform="translate(20.2 21.1992)"/>
</clipPath>
</defs>
</svg>
