<svg width="24" height="27" viewBox="0 0 24 27" fill="none" xmlns="http://www.w3.org/2000/svg">
<g clip-path="url(#clip0_2888_9790)">
<path fill-rule="evenodd" clip-rule="evenodd" d="M11.5665 20.4761C10.9698 22.8676 10.2468 25.0163 8.03897 26.9998C12.2598 25.906 15.519 23.6949 17.9105 20.4761H11.5665ZM18.6314 0H5.36813C2.41557 0 0 2.44753 0 5.43867V15.0372C0 18.0286 2.41557 20.4761 5.36813 20.4761H18.6314C21.5842 20.4761 24 18.0286 24 15.0372V5.43867C24 2.44753 21.5842 0 18.6314 0ZM5.68672 7.71614C6.90101 7.71614 7.88607 8.71414 7.88607 9.94438C7.88607 11.1746 6.90101 12.1726 5.68672 12.1726C4.47221 12.1726 3.48738 11.1746 3.48738 9.94438C3.48738 8.71392 4.47221 7.71614 5.68672 7.71614ZM18.3133 7.71614C19.5278 7.71614 20.5126 8.71414 20.5126 9.94438C20.5126 11.1746 19.5278 12.1726 18.3133 12.1726C17.0988 12.1726 16.1139 11.1746 16.1139 9.94438C16.1141 8.71392 17.099 7.71614 18.3133 7.71614ZM12 7.71614C13.2143 7.71614 14.1996 8.71414 14.1996 9.94438C14.1996 11.1746 13.2143 12.1726 12 12.1726C10.7855 12.1726 9.80065 11.1746 9.80065 9.94438C9.80065 8.71392 10.7855 7.71614 12 7.71614Z" fill="#222141"/>
</g>
<defs>
<clipPath id="clip0_2888_9790">
<rect width="24" height="27" fill="white"/>
</clipPath>
</defs>
</svg>
