<svg width="60" height="60" viewBox="0 0 60 60" fill="none" xmlns="http://www.w3.org/2000/svg">
<path fill-rule="evenodd" clip-rule="evenodd" d="M36.2549 17.749C41.9434 11.6064 42.9053 17.1875 47.0898 18.3594C47.5977 18.501 47.9736 18.5352 47.9395 18.7744C47.5732 21.1816 46.7871 21.6357 45.9131 21.6602C44.9463 21.6846 44.1553 21.6699 43.5742 21.9482C42.832 22.2998 42.2998 22.7539 41.9043 23.2861L35.957 20.249C36.1426 19.5459 36.25 18.7158 36.2549 17.749ZM14.3457 11.1914L27.5293 24.3799C30.8691 24.3604 33.7939 24.0723 35.2588 21.8359L41.2842 24.4434C40.1221 27.5342 41.4453 32.0117 37.3145 34.1602L48.8086 45.6543C52.3486 41.4111 54.4727 35.9521 54.4727 30C54.4727 16.4893 43.5107 5.52734 30 5.52734C24.043 5.52734 18.584 7.65625 14.3457 11.1914ZM44.7217 49.5459L35.8496 40.6738C35.8984 41.5479 35.9961 42.4463 36.1133 43.3105L36.8018 43.2373C38.042 43.1055 38.0273 44.2334 37.4414 44.9561H33.7793C33.6035 42.6807 33.2568 40.2637 33.1152 37.9395L29.7852 34.6143C29.2285 34.4971 28.6328 34.3018 27.9297 34.0332C26.9141 33.6475 22.7148 31.1377 21.5771 32.1582C20.9375 32.7344 22.6465 35.0391 18.4229 39.126L18.4961 43.1689H19.209C20.293 43.1689 20.2344 44.2529 19.8389 44.9561H17.7539C16.3672 44.9561 16.6553 45.1025 16.6406 43.6426L16.6064 40.498L16.3818 38.5498C16.3867 37.3877 17.2168 36.1523 16.4209 33.3887C15.8936 31.5576 15.9375 30.1025 14.5605 29.8975C13.2812 32.4756 12.0605 34.834 10.9863 37.5342C10.9131 37.7148 10.8154 37.8906 10.7275 38.0664C9.50195 40.8838 8.98926 38.7695 9.67773 37.0947L10.1367 35.9766C10.7227 33.6182 12.3779 29.1846 13.9355 27.5391C15.5469 25.835 17.6172 25.0439 19.8438 24.6777L10.4541 15.2783C7.36328 19.375 5.52734 24.4727 5.52734 30C5.52734 43.5107 16.4893 54.4727 30 54.4727C35.5273 54.4727 40.625 52.6367 44.7217 49.5459ZM30 0C46.5674 0 60 13.4326 60 30C60 46.5674 46.5674 60 30 60C13.4326 60 0 46.5674 0 30C0 13.4326 13.4326 0 30 0Z" fill="#222141"/>
</svg>
