<svg width="30" height="32" viewBox="0 0 30 32" fill="none" xmlns="http://www.w3.org/2000/svg">
<path fill-rule="evenodd" clip-rule="evenodd" d="M20.4302 10.9635C20.7498 10.7596 21.0914 10.591 21.4488 10.4609C22.192 10.3326 22.9457 10.2716 23.7003 10.2786C24.7903 10.2552 25.8698 10.3464 25.9809 10.5625C26.0777 10.7535 26.1189 10.9671 26.1 11.1797C26.0828 11.3928 26.0148 11.5989 25.9015 11.7813C25.6158 12.2552 25.1078 12.6068 24.6104 12.9349C24.113 13.263 23.6606 13.5755 23.7373 13.8073C23.7724 13.8534 23.8154 13.893 23.8643 13.9245C23.9728 14.0078 24.1289 14.1068 24.2903 14.2057C24.8913 14.5547 25.4332 14.994 25.8962 15.5078C26.3465 16.0362 26.7278 16.618 27.0313 17.2396C27.1318 17.4375 27.2297 17.6432 27.3223 17.8542C27.4149 18.0651 27.5181 18.3073 27.608 18.5391L27.6292 18.612C27.6577 18.8577 27.7321 19.0961 27.8488 19.3151C27.8938 19.3854 27.9388 19.4219 27.9811 19.4219H28.5102H28.7192C29.2061 19.388 29.4786 19.3698 29.7775 20.0911C29.9797 20.7004 30.0597 21.3425 30.013 21.9818C29.992 22.6733 29.8663 23.358 29.64 24.013C29.5806 24.3324 29.4115 24.622 29.1611 24.8333C28.8818 25.0455 28.5426 25.1674 28.1901 25.1823H27.5683C27.3196 25.1823 27.1027 25.1823 26.9413 25.1823C26.7799 25.1823 26.7535 25.1562 26.7349 25.1641C26.7164 25.1719 26.7349 25.1823 26.7005 25.2344C26.5165 25.4871 26.3121 25.7248 26.0894 25.9453C25.8433 26.2057 25.5602 26.4661 25.2957 26.7266C25.0311 26.987 24.7877 27.1849 24.5787 27.3594L24.449 27.4635C24.3127 27.548 24.1875 27.6486 24.076 27.763C24.1158 27.9556 24.1836 28.1415 24.2771 28.3151C24.3353 28.4557 24.3723 28.5391 24.3829 28.5755C24.5231 28.9115 24.6633 29.2396 24.7903 29.526C25.002 30.0078 25.2348 30.5182 25.3195 30.6849V30.7031C25.4914 31.1354 25.4544 31.4635 25.211 31.7005C25.0768 31.8071 24.9208 31.8839 24.7537 31.9257C24.5866 31.9675 24.4123 31.9733 24.2427 31.9427H22.1896C21.9044 31.9625 21.6198 31.8981 21.372 31.7578C21.1073 31.6006 20.8799 31.3892 20.7053 31.138L20.6868 31.1068C20.5987 30.9496 20.5192 30.7879 20.4487 30.6224C20.245 30.1823 19.9963 29.6302 19.7952 29.7109C18.4471 30.2485 17.0152 30.5542 15.562 30.6146C13.9246 30.6431 12.2938 30.4038 10.7362 29.9062C10.207 29.8359 10.1118 30.0521 9.94246 30.3932C9.89483 30.4896 9.84721 30.5911 9.77842 30.7188C9.73609 30.8047 9.72286 30.8385 9.70434 30.8698C9.46623 31.3698 9.23605 31.8568 8.5217 31.9974H8.44233L5.79659 31.9792H5.77013C5.61872 31.9707 5.47084 31.9308 5.33623 31.862C5.19234 31.7899 5.0742 31.6763 4.99758 31.5365C4.75946 31.1094 4.91821 30.7891 5.0796 30.4635L5.14309 30.3359L6.07704 28.3229L6.09556 28.2891C6.18214 28.1707 6.22167 28.0253 6.20668 27.8802C6.16829 27.7568 6.08795 27.6501 5.97915 27.5781C5.7913 27.4479 5.61139 27.3177 5.45 27.1771C5.28861 27.0365 5.09812 26.888 4.92085 26.7396C4.355 26.2288 3.85397 25.6526 3.42866 25.0234C3.00264 24.4089 2.6552 23.7451 2.39417 23.0469C2.19599 22.5079 2.05934 21.9489 1.98673 21.3802C1.98673 21.25 1.96027 21.1198 1.95498 20.987C1.52764 20.7826 1.14931 20.4912 0.845071 20.1321C0.540832 19.7729 0.317634 19.3542 0.190276 18.9036C-0.103401 17.9245 -0.0742977 16.7083 0.372832 15.3542L1.11893 15.5885C0.72736 16.7891 0.69032 17.849 0.944311 18.6823C1.10749 19.2582 1.46838 19.7607 1.96556 20.1042C1.96556 19.9896 1.98938 19.8724 2.0079 19.7578C2.20042 18.512 2.67513 17.3247 3.39691 16.2839C4.70778 14.365 6.60434 12.9058 8.81273 12.1172C9.57283 12.7891 10.459 13.3084 11.4214 13.6458C10.931 13.7564 10.4478 13.8955 9.97421 14.0625H9.95304C9.7577 14.1206 9.58578 14.2376 9.46144 14.3968C9.33711 14.5561 9.26661 14.7498 9.25986 14.9505C9.24128 15.2349 9.3362 15.5152 9.52443 15.7318C9.65603 15.8878 9.83427 15.9989 10.0338 16.0494C10.2333 16.0999 10.4439 16.0872 10.6356 16.013C11.7413 15.6352 12.9048 15.4476 14.0751 15.4583C15.2547 15.4803 16.4249 15.6706 17.5489 16.0234C17.7428 16.0914 17.9534 16.0976 18.151 16.041C18.3486 15.9845 18.523 15.8681 18.6496 15.7083C18.7387 15.5984 18.806 15.473 18.848 15.3385C18.89 15.2065 18.9062 15.0677 18.8956 14.9297C18.8813 14.7275 18.8029 14.5348 18.6714 14.3787C18.5399 14.2227 18.362 14.1112 18.1628 14.0599C17.6733 13.9115 17.1812 13.7839 16.6864 13.6849C18.1769 13.1693 19.4763 12.226 20.4169 10.9766L20.4302 10.9635ZM14.083 1.88146e-06C14.9139 -0.000634257 15.7368 0.160049 16.5045 0.472852C17.2722 0.785654 17.9697 1.24443 18.557 1.82292C19.145 2.40119 19.6115 3.08786 19.9298 3.84369C20.2481 4.59952 20.4119 5.40968 20.4119 6.22787C20.4119 7.04605 20.2481 7.85621 19.9298 8.61204C19.6115 9.36787 19.145 10.0545 18.557 10.6328C17.9696 11.2123 17.2719 11.6721 16.5037 11.9858C15.7355 12.2995 14.912 12.461 14.0804 12.461C13.2487 12.461 12.4252 12.2995 11.6571 11.9858C10.8889 11.6721 10.1912 11.2123 9.6038 10.6328L9.56676 10.5938C8.69439 9.71764 8.10413 8.60758 7.86995 7.40269C7.63578 6.1978 7.7681 4.95168 8.25034 3.8205C8.73258 2.68932 9.54329 1.72338 10.5809 1.04376C11.6184 0.364135 12.8367 0.00104816 14.083 1.88146e-06ZM14.9032 3.75521V8.46615H13.6518V5.29948C13.3203 5.55372 12.9352 5.73169 12.5247 5.82031V4.83333C13.1888 4.59115 13.5433 4.39323 13.8793 3.75521H14.9032ZM17.586 2.78125C16.6564 1.88086 15.4038 1.37724 14.0997 1.37948C12.7955 1.38173 11.5447 1.88968 10.6183 2.79327C9.69198 3.69686 9.16463 4.92332 9.15053 6.20694C9.13643 7.49056 9.63673 8.72796 10.543 9.65104L10.5774 9.68229C11.0376 10.1353 11.5839 10.4946 12.1852 10.7398C12.7865 10.985 13.4309 11.1111 14.0817 11.1111C14.7325 11.1111 15.377 10.985 15.9782 10.7398C16.5795 10.4946 17.1258 10.1353 17.586 9.68229C18.5142 8.76687 19.0355 7.52639 19.0355 6.23307C19.0355 4.93976 18.5142 3.69928 17.586 2.78386V2.78125ZM23.0971 17.8073C23.3465 17.8052 23.5927 17.8638 23.8136 17.978C24.0345 18.0921 24.2233 18.2583 24.3632 18.4616C24.503 18.665 24.5897 18.8992 24.6154 19.1435C24.641 19.3877 24.605 19.6345 24.5104 19.8617C24.4157 20.0889 24.2655 20.2896 24.0731 20.4459C23.8806 20.6022 23.6519 20.7092 23.4072 20.7574C23.1626 20.8056 22.9097 20.7936 22.6709 20.7223C22.4321 20.6511 22.215 20.5228 22.0388 20.349C21.8282 20.1413 21.6847 19.877 21.6262 19.5894C21.5676 19.3017 21.5967 19.0034 21.7097 18.7319C21.8228 18.4605 22.0147 18.2279 22.2615 18.0634C22.5083 17.8989 22.799 17.8098 23.0971 17.8073Z" fill="#F3DFFC"/>
</svg>
