<svg width="265" height="86" viewBox="0 0 265 86" fill="none" xmlns="http://www.w3.org/2000/svg">
<rect y="58" width="10" height="28" fill="#222141"/>
<rect x="13" y="46" width="11" height="40" fill="#222141"/>
<rect x="27" y="63" width="11" height="23" fill="#222141"/>
<rect x="41" y="74" width="12" height="12" fill="#222141"/>
<rect x="56" y="66" width="10" height="20" fill="#222141"/>
<rect x="69" y="41" width="10" height="45" fill="#222141"/>
<rect x="82" y="20" width="10" height="66" fill="#222141"/>
<rect x="95" y="6" width="10" height="80" fill="#222141"/>
<rect x="108" y="13" width="10" height="73" fill="#222141"/>
<rect x="121" width="10" height="86" fill="#222141"/>
<rect x="134" y="6" width="10" height="80" fill="#222141"/>
<rect x="147" y="27" width="10" height="59" fill="#222141"/>
<rect x="160" y="20" width="10" height="66" fill="#222141"/>
<rect x="173" y="34" width="10" height="52" fill="#222141"/>
<rect x="186" y="58" width="10" height="28" fill="#222141"/>
<rect x="199" y="66" width="10" height="20" fill="#222141"/>
<rect x="212" y="64" width="12" height="22" fill="#222141"/>
<rect x="227" y="74" width="11" height="12" fill="#222141"/>
<rect x="241" y="74" width="11" height="12" fill="#222141"/>
<rect x="255" y="70" width="10" height="16" fill="#222141"/>
</svg>
