<svg width="50" height="54" viewBox="0 0 50 54" fill="none" xmlns="http://www.w3.org/2000/svg">
<path d="M28.75 37.4961L15.3278 30.3433L12.0114 34.493C16.9056 37.1237 21.3268 39.5383 26.223 42.1711L28.75 37.4961ZM19.8651 21.9806C20.3672 21.9806 20.7749 22.3941 20.7749 22.9046C20.7749 23.4152 20.3672 23.8297 19.8651 23.8297C19.3631 23.8297 18.9564 23.4152 18.9564 22.9046C18.9564 22.3941 19.3631 21.9806 19.8651 21.9806ZM39.11 22.9436C39.612 22.9436 40.0187 23.3571 40.0187 23.8677C40.0187 24.3782 39.612 24.7928 39.11 24.7928C38.6068 24.7928 38.2002 24.3782 38.2002 23.8677C38.2002 23.3571 38.6068 22.9436 39.11 22.9436ZM46.8537 7.27623C47.4118 7.27623 47.8641 7.73614 47.8641 8.30469C47.8641 8.87219 47.4118 9.3321 46.8537 9.3321C46.2956 9.3321 45.8434 8.87219 45.8434 8.30469C45.8434 7.73614 46.2956 7.27623 46.8537 7.27623ZM18.4295 8.3184C19.0882 8.3184 19.6214 8.86164 19.6214 9.53146C19.6214 10.2013 19.0882 10.7435 18.4295 10.7435C17.7707 10.7435 17.2365 10.2013 17.2365 9.53146C17.2365 8.86164 17.7707 8.3184 18.4295 8.3184ZM14.8558 17.8024C15.5996 17.8024 16.2023 18.4153 16.2023 19.1716C16.2023 19.9268 15.5996 20.5397 14.8558 20.5397C14.1131 20.5397 13.5104 19.9268 13.5104 19.1716C13.5104 18.4153 14.1131 17.8024 14.8558 17.8024ZM24.0519 0L25.8174 3.07694L29.2293 2.78581L27.0508 5.39968L28.3517 8.64329L25.2261 7.32686L22.6618 9.55467L22.8911 6.10326L19.9222 4.26363L23.3651 3.48516L24.0519 0ZM36.2998 17.0134C36.8019 17.0134 37.2095 17.4269 37.2095 17.9385C37.2095 18.449 36.8019 18.8625 36.2998 18.8625C35.7977 18.8625 35.39 18.449 35.39 17.9385C35.39 17.4269 35.7977 17.0134 36.2998 17.0134ZM44.8807 21.0333L44.751 20.9964C45.0498 19.9184 44.9149 18.8636 44.3454 17.8319C43.777 16.7993 42.9627 16.1315 41.9035 15.8278L41.9398 15.6959C43 15.9997 44.0363 15.8626 45.0519 15.2813C46.0674 14.7012 46.7251 13.8742 47.0218 12.8004L47.1525 12.8373C46.8537 13.9153 46.9886 14.9691 47.5571 16.0018C48.1266 17.0345 48.9409 17.7022 50 18.006L49.9637 18.1378C48.9035 17.834 47.8662 17.9712 46.8517 18.5492C45.8361 19.1283 45.1795 19.9564 44.8807 21.0333ZM38.5062 10.6559H38.3382C38.3382 9.26459 37.8268 8.04731 36.8029 7.00725C35.7801 5.96613 34.583 5.4461 33.2137 5.4461V5.27521C34.583 5.27521 35.7801 4.75518 36.8029 3.71195C37.8268 2.66872 38.3382 1.4525 38.3382 0.0643447H38.5062C38.5062 1.45672 39.0176 2.67294 40.0415 3.71406C41.0654 4.75518 42.2614 5.27521 43.6307 5.27521V5.4461C42.2614 5.4461 41.0654 5.96613 40.0415 7.00725C39.0176 8.04731 38.5062 9.26459 38.5062 10.6559ZM7.14419 13.5082L6.99481 13.5873C6.35996 12.3542 5.35166 11.5177 3.96992 11.0789C2.58817 10.6401 1.29149 10.7435 0.0778008 11.389L0 11.2382C1.21369 10.5916 2.03527 9.56627 2.46577 8.16018C2.89627 6.75303 2.79461 5.43344 2.16183 4.20456L2.31017 4.12545C2.94606 5.35855 3.95436 6.19503 5.3361 6.63384C6.7168 7.07265 8.01452 6.96927 9.22718 6.32372L9.30498 6.47456C8.09232 7.12011 7.26971 8.14647 6.83817 9.55045C6.40664 10.9555 6.5083 12.2751 7.14419 13.5082ZM30.2282 30.3391C30.1723 30.4575 30.0841 30.5571 29.9741 30.6261C29.8642 30.6951 29.7371 30.7306 29.6079 30.7283C29.4959 30.8074 29.3589 30.8517 29.2127 30.8486C29.1629 30.8475 29.1151 30.8412 29.0685 30.8296C28.9014 30.8872 28.7188 30.876 28.5597 30.7983C28.4007 30.7206 28.278 30.5826 28.2178 30.414C26.6712 26.0638 24.2542 22.3413 21.2624 19.2749C18.0197 15.9491 14.0996 13.389 9.87967 11.6242C9.53527 11.4808 9.37137 11.08 9.51245 10.7297C9.65456 10.3795 10.0488 10.2129 10.3921 10.3563C14.7739 12.1886 18.8465 14.8499 22.2189 18.3077C24.388 20.5312 26.2676 23.085 27.7552 25.9584L25.3724 10.3859C25.3154 10.0114 25.5674 9.6612 25.9346 9.60424C26.1111 9.5765 26.2912 9.62114 26.4353 9.72834C26.5795 9.83554 26.6759 9.99654 26.7033 10.176L29.055 25.5364C29.3465 24.0438 29.7562 22.5734 30.2645 21.1378C31.4035 17.9195 33.0322 14.8742 34.9222 12.1169C34.9727 12.0427 35.0371 11.9793 35.1117 11.9305C35.1863 11.8817 35.2697 11.8483 35.357 11.8323C35.4443 11.8164 35.5339 11.8181 35.6206 11.8374C35.7072 11.8567 35.7893 11.8933 35.862 11.9449C36.1691 12.1612 36.2438 12.5894 36.0311 12.9006C34.1992 15.5746 32.6255 18.5134 31.5332 21.5998C30.806 23.6535 30.2894 25.7769 30.0488 27.9341C31.11 26.3159 32.6971 24.4046 34.7178 22.6588C36.8112 20.8498 39.3807 19.2064 42.3257 18.2349C42.6805 18.1178 43.0612 18.315 43.1763 18.6758C43.2037 18.7615 43.2143 18.8519 43.2073 18.9418C43.2003 19.0317 43.176 19.1193 43.1358 19.1996C43.0955 19.2799 43.0401 19.3514 42.9726 19.4099C42.9052 19.4685 42.8271 19.5129 42.7427 19.5408C39.9824 20.4521 37.5654 21.9996 35.5902 23.7063C32.8932 26.0364 31.029 28.644 30.2282 30.3391ZM19.499 27.5628L16.3071 29.1313L29.4803 36.1818L42.6556 29.1176L39.7614 27.6429C40.1898 27.3223 40.6234 27.0132 41.0571 26.7147L43.4886 27.7779L47.4025 24.0111L46.1224 23.3213C46.4523 23.0797 46.7635 22.8413 47.0498 22.6019L49.0996 23.7031C49.1452 23.7284 49.1878 23.7601 49.2261 23.8002C49.2739 23.8494 49.3117 23.9078 49.3373 23.9719C49.3629 24.036 49.3757 24.1046 49.3752 24.1738C49.3746 24.243 49.3606 24.3114 49.3339 24.3751C49.3073 24.4388 49.2685 24.4965 49.2199 24.5449L44.5716 29.1882L49.0737 34.667C49.1614 34.7745 49.2037 34.9129 49.1915 35.052C49.1793 35.1912 49.1134 35.3197 49.0083 35.4096C48.9751 35.4371 48.9398 35.4613 48.9025 35.4793L44.861 37.6522V45.7966C44.8608 45.9009 44.8303 46.0029 44.7733 46.0896C44.7162 46.1763 44.6352 46.2439 44.5405 46.2839L29.9284 53.826C29.8801 53.8807 29.8209 53.9246 29.7547 53.9546C29.6886 53.9845 29.617 54 29.5446 54C29.3413 54 29.166 53.8819 29.0809 53.7089L14.4409 46.267C14.3549 46.2234 14.2825 46.1563 14.2319 46.0732C14.1814 45.9901 14.1546 45.8943 14.1546 45.7966L14.1525 37.6923L10.0353 35.4793C9.99792 35.4613 9.96369 35.4371 9.9305 35.4096C9.87825 35.3653 9.8351 35.3108 9.80354 35.2495C9.77197 35.1881 9.7526 35.1211 9.74653 35.0521C9.74047 34.9832 9.74782 34.9137 9.76817 34.8476C9.78852 34.7815 9.82147 34.7202 9.86514 34.667L14.251 29.3307L9.16286 24.4278C8.97407 24.2094 8.99689 23.8772 9.21162 23.6852C9.24378 23.6578 9.27593 23.6335 9.3112 23.6156L11.6846 22.2496C12.001 22.5565 12.3039 22.8181 12.5695 23.0238L10.9357 23.9521L15.2293 27.9573L19.0228 26.0902C19.1784 26.5881 19.3382 27.0849 19.499 27.5628ZM43.6494 30.4667L30.527 37.1522L33.4191 42.2207L47.2448 34.8991L43.6494 30.4667Z" fill="#222141"/>
</svg>
