<svg width="45" height="45" viewBox="0 0 45 45" fill="none" xmlns="http://www.w3.org/2000/svg">
<rect width="45" height="45" fill="#E9F4F0"/>
<g clip-path="url(#clip0_3003_7863)">
<rect x="9" y="9" width="27" height="27" rx="13.5" fill="#4FA78B"/>
<path d="M16.2032 36.3518H15.6417V36.9578H32.7345C32.77 36.9581 32.8053 36.9511 32.8382 36.9374C32.8711 36.9236 32.9011 36.9033 32.9263 36.8776C32.9515 36.852 32.9715 36.8214 32.9852 36.7878C32.9989 36.7542 33.0059 36.7181 33.0059 36.6817V22.2994C33.0057 22.1922 32.964 22.0894 32.8898 22.0137C32.8154 21.9371 32.7145 21.8937 32.6091 21.8929H26.7318V16.4871C26.7319 16.3683 26.6892 16.2536 26.612 16.1649L26.5914 16.1419C26.5472 16.0966 26.4947 16.0607 26.4369 16.0363C26.379 16.0119 26.317 15.9996 26.2545 16H16.0853C16.0228 15.9998 15.9609 16.0122 15.9031 16.0366C15.8453 16.0609 15.7927 16.0967 15.7484 16.1419C15.6701 16.2228 15.6224 16.3295 15.6136 16.443V24.3858L16.2051 25.2833V16.6079H26.1385V36.3595H26.7299V22.4778H32.4313V36.3518H30.6831V33.4505C30.6833 33.4231 30.6783 33.396 30.6682 33.3706C30.6582 33.3453 30.6433 33.3222 30.6245 33.3028C30.6057 33.2833 30.5833 33.2679 30.5587 33.2574C30.5341 33.2469 30.5076 33.2414 30.4809 33.2414H28.188C28.1339 33.2414 28.082 33.2635 28.0438 33.3027C28.0055 33.3419 27.984 33.395 27.984 33.4505V36.3557H23.679V32.2443C23.679 32.2078 23.672 32.1716 23.6583 32.1379C23.6447 32.1041 23.6247 32.0735 23.5995 32.0477C23.5743 32.0218 23.5444 32.0014 23.5114 31.9874C23.4785 31.9734 23.4432 31.9662 23.4076 31.9662H18.9304C18.8948 31.9662 18.8596 31.9734 18.8268 31.9874C18.794 32.0014 18.7642 32.0219 18.7391 32.0478C18.7141 32.0736 18.6942 32.1043 18.6808 32.138C18.6674 32.1717 18.6606 32.2079 18.6608 32.2443V32.6834L18.7395 32.7831C18.7556 32.8026 18.7706 32.8231 18.7844 32.8445C18.9071 33.0238 18.9825 33.2325 19.0034 33.4505C19.0279 33.6611 19.0062 33.8747 18.9397 34.0756C18.8812 34.254 18.7861 34.4174 18.6608 34.555V36.3557H15.6342V34.9251H16.1957V36.3518H16.2032ZM10.472 34.0047C9.9984 34.0526 9.89546 33.6422 10.0995 33.3028L11.93 30.9844L11.8776 30.9269H10.8968C10.5431 30.9844 10.4102 30.5683 10.6273 30.2768L12.5983 27.7839H12.0218C11.6605 27.7839 11.5725 27.4349 11.8028 27.0974L13.6015 24.3014C13.7232 24.1442 13.8542 23.9179 14.0676 23.9179C14.2548 23.9179 14.3633 24.1097 14.4719 24.2458L16.3811 27.1395C16.4315 27.2 16.4632 27.2745 16.4722 27.3535C16.4812 27.4326 16.467 27.5126 16.4315 27.5833C16.396 27.654 16.3407 27.7124 16.2727 27.7508C16.2047 27.7893 16.1271 27.8061 16.0498 27.7992H15.535L17.4854 30.2768C17.5372 30.327 17.5755 30.3903 17.5963 30.4602C17.6171 30.5302 17.6198 30.6045 17.6042 30.6759C17.5885 30.7472 17.555 30.8132 17.5069 30.8673C17.4589 30.9214 17.3979 30.9617 17.33 30.9844H16.1995L17.9047 33.1475L18.0918 33.3853C18.1293 33.4387 18.1532 33.5009 18.1614 33.5661C18.1696 33.6314 18.1619 33.6977 18.1388 33.7591C18.1158 33.8205 18.0783 33.8751 18.0296 33.918C17.9808 33.9609 17.9225 33.9906 17.8597 34.0047H14.7788V37H13.3357V34.0047H10.472ZM30.2769 36.3518H28.3902V33.6537H30.2769V36.3518ZM29.8389 23.6705H31.3063C31.3176 23.6705 31.3288 23.6878 31.3288 23.7089V24.6869C31.3288 24.7041 31.3176 24.7233 31.3063 24.7233H29.8389C29.8277 24.7233 29.8164 24.7061 29.8164 24.6869V23.7127C29.8164 23.6916 29.8277 23.6744 29.8389 23.6744V23.6705ZM29.8389 30.4264H31.3063C31.3176 30.4264 31.3288 30.4436 31.3288 30.4609V31.435C31.3288 31.4542 31.3176 31.4715 31.3063 31.4715H29.8389C29.8277 31.4715 29.8164 31.4561 29.8164 31.435V30.4647C29.8164 30.4475 29.8277 30.4302 29.8389 30.4302V30.4264ZM27.3663 30.4264H28.8319C28.845 30.4264 28.8544 30.4436 28.8544 30.4609V31.435C28.8544 31.4542 28.8544 31.4715 28.8319 31.4715H27.3645C27.3513 31.4715 27.342 31.4561 27.342 31.435V30.4647C27.342 30.4475 27.342 30.4302 27.3645 30.4302L27.3663 30.4264ZM29.8389 28.1789H31.3063C31.3176 28.1789 31.3288 28.1942 31.3288 28.2153V29.1895C31.3288 29.2087 31.3176 29.2259 31.3063 29.2259H29.8389C29.8277 29.2259 29.8164 29.2106 29.8164 29.1895V28.2153C29.8164 28.1923 29.8277 28.1789 29.8389 28.1789ZM29.8389 25.9276H31.3063C31.3176 25.9276 31.3288 25.9429 31.3288 25.964V26.9305C31.3288 26.9478 31.3176 26.967 31.3063 26.967H29.8389C29.8277 26.967 29.8164 26.9497 29.8164 26.9305V25.9717C29.8164 25.9506 29.8277 25.9353 29.8389 25.9353V25.9276ZM27.3645 23.6705H28.83C28.8431 23.6705 28.8525 23.6878 28.8525 23.7089V24.6869C28.8525 24.7041 28.8525 24.7233 28.83 24.7233H27.3645C27.3513 24.7233 27.342 24.7061 27.342 24.6869V23.7127C27.342 23.6916 27.342 23.6744 27.3645 23.6744V23.6705ZM27.3645 28.1751H28.83C28.8431 28.1751 28.8525 28.1904 28.8525 28.2115V29.1857C28.8525 29.2048 28.8525 29.2221 28.83 29.2221H27.3645C27.3513 29.2221 27.342 29.2067 27.342 29.1857V28.2153C27.342 28.1923 27.342 28.1789 27.3645 28.1789V28.1751ZM27.3645 25.9238H28.83C28.8431 25.9238 28.8525 25.9391 28.8525 25.9602V26.9305C28.8525 26.9478 28.8525 26.967 28.83 26.967H27.3645C27.3513 26.967 27.342 26.9497 27.342 26.9305V25.9717C27.342 25.9506 27.342 25.9353 27.3645 25.9353V25.9238ZM23.1381 36.3518H19.2074V32.5166H23.1381V36.3518ZM17.6314 18.1343H19.2261C19.232 18.1343 19.2378 18.1355 19.2433 18.1378C19.2487 18.1402 19.2537 18.1435 19.2579 18.1478C19.262 18.1521 19.2653 18.1572 19.2676 18.1627C19.2699 18.1683 19.271 18.1743 19.271 18.1804V19.8161C19.271 19.8221 19.2699 19.8281 19.2676 19.8337C19.2653 19.8393 19.262 19.8444 19.2579 19.8486C19.2537 19.8529 19.2487 19.8563 19.2433 19.8586C19.2378 19.8609 19.232 19.8621 19.2261 19.8621H17.6314C17.6193 19.8621 17.6077 19.8573 17.5989 19.8488C17.5902 19.8402 17.5851 19.8285 17.5846 19.8161V18.1823C17.5851 18.1699 17.5902 18.1582 17.5989 18.1496C17.6077 18.141 17.6193 18.1362 17.6314 18.1363V18.1343ZM23.1137 18.1343H24.7103C24.7222 18.1343 24.7337 18.1392 24.7421 18.1478C24.7505 18.1564 24.7552 18.1682 24.7552 18.1804V19.8161C24.7552 19.8283 24.7505 19.84 24.7421 19.8486C24.7337 19.8573 24.7222 19.8621 24.7103 19.8621H23.1137C23.1018 19.8621 23.0904 19.8573 23.082 19.8486C23.0735 19.84 23.0688 19.8283 23.0688 19.8161V18.1823C23.0688 18.1701 23.0735 18.1584 23.082 18.1497C23.0904 18.1411 23.1018 18.1363 23.1137 18.1363V18.1343ZM20.3716 18.1343H21.9776C21.9895 18.1343 22.0009 18.1392 22.0093 18.1478C22.0178 18.1564 22.0225 18.1682 22.0225 18.1804V19.8161C22.0225 19.8283 22.0178 19.84 22.0093 19.8486C22.0009 19.8573 21.9895 19.8621 21.9776 19.8621H20.3716C20.3597 19.8621 20.3483 19.8573 20.3398 19.8486C20.3314 19.84 20.3267 19.8283 20.3267 19.8161V18.1823C20.3267 18.1701 20.3314 18.1584 20.3398 18.1497C20.3483 18.1411 20.3597 18.1363 20.3716 18.1363V18.1343ZM17.6314 21.6762H19.2261C19.232 21.6762 19.2378 21.6774 19.2433 21.6797C19.2487 21.682 19.2537 21.6854 19.2579 21.6897C19.262 21.694 19.2653 21.699 19.2676 21.7046C19.2699 21.7102 19.271 21.7162 19.271 21.7222V23.358C19.271 23.364 19.2699 23.37 19.2676 23.3756C19.2653 23.3812 19.262 23.3862 19.2579 23.3905C19.2537 23.3948 19.2487 23.3982 19.2433 23.4005C19.2378 23.4028 19.232 23.404 19.2261 23.404H17.6314C17.6193 23.404 17.6077 23.3992 17.5989 23.3906C17.5902 23.3821 17.5851 23.3703 17.5846 23.358V21.7222C17.5851 21.7098 17.5902 21.6981 17.5989 21.6896C17.6077 21.681 17.6193 21.6762 17.6314 21.6762ZM23.1137 21.6762H24.7103C24.7222 21.6762 24.7337 21.6811 24.7421 21.6897C24.7505 21.6983 24.7552 21.71 24.7552 21.7222V23.358C24.7552 23.3702 24.7505 23.3819 24.7421 23.3905C24.7337 23.3991 24.7222 23.404 24.7103 23.404H23.1137C23.1018 23.404 23.0904 23.3991 23.082 23.3905C23.0735 23.3819 23.0688 23.3702 23.0688 23.358V21.7222C23.0688 21.71 23.0735 21.6983 23.082 21.6897C23.0904 21.6811 23.1018 21.6762 23.1137 21.6762ZM20.3716 21.6762H21.9776C21.9895 21.6762 22.0009 21.6811 22.0093 21.6897C22.0178 21.6983 22.0225 21.71 22.0225 21.7222V23.358C22.0225 23.3702 22.0178 23.3819 22.0093 23.3905C22.0009 23.3991 21.9895 23.404 21.9776 23.404H20.3716C20.3597 23.404 20.3483 23.3991 20.3398 23.3905C20.3314 23.3819 20.3267 23.3702 20.3267 23.358V21.7222C20.3267 21.71 20.3314 21.6983 20.3398 21.6897C20.3483 21.6811 20.3597 21.6762 20.3716 21.6762ZM17.6314 28.758H19.2261C19.238 28.758 19.2494 28.7629 19.2579 28.7715C19.2663 28.7801 19.271 28.7918 19.271 28.804V30.4379C19.271 30.4503 19.2664 30.4622 19.258 30.4711C19.2496 30.48 19.2382 30.4853 19.2261 30.4858H18.4662C18.4625 30.4291 18.455 30.3727 18.4437 30.3171C18.3974 30.073 18.2874 29.8464 18.1255 29.6612L17.5846 28.9766V28.804C17.5851 28.7917 17.5902 28.78 17.5989 28.7714C17.6077 28.7628 17.6193 28.758 17.6314 28.758ZM23.1137 28.758H24.7103C24.7222 28.758 24.7337 28.7629 24.7421 28.7715C24.7505 28.7801 24.7552 28.7918 24.7552 28.804V30.4379C24.7552 30.4503 24.7506 30.4622 24.7422 30.4711C24.7338 30.48 24.7224 30.4853 24.7103 30.4858H23.1137C23.1016 30.4853 23.0902 30.48 23.0818 30.4711C23.0735 30.4622 23.0688 30.4503 23.0688 30.4379V28.804C23.0688 28.7918 23.0735 28.7801 23.082 28.7715C23.0904 28.7629 23.1018 28.758 23.1137 28.758ZM20.3716 28.758H21.9776C21.9895 28.758 22.0009 28.7629 22.0093 28.7715C22.0178 28.7801 22.0225 28.7918 22.0225 28.804V30.4379C22.0225 30.4503 22.0178 30.4622 22.0095 30.4711C22.0011 30.48 21.9897 30.4853 21.9776 30.4858H20.3716C20.3595 30.4853 20.3481 30.48 20.3397 30.4711C20.3314 30.4622 20.3267 30.4503 20.3267 30.4379V28.804C20.3267 28.7918 20.3314 28.7801 20.3398 28.7715C20.3483 28.7629 20.3597 28.758 20.3716 28.758ZM17.6314 25.2181H19.2261C19.232 25.2181 19.2378 25.2193 19.2433 25.2216C19.2487 25.2239 19.2537 25.2273 19.2579 25.2316C19.262 25.2358 19.2653 25.2409 19.2676 25.2465C19.2699 25.2521 19.271 25.2581 19.271 25.2641V26.8979C19.271 26.904 19.2699 26.9099 19.2676 26.9155C19.2653 26.9211 19.262 26.9262 19.2579 26.9305C19.2537 26.9347 19.2487 26.9381 19.2433 26.9404C19.2378 26.9428 19.232 26.9439 19.2261 26.9439H17.6314C17.6193 26.944 17.6077 26.9392 17.5989 26.9306C17.5902 26.922 17.5851 26.9103 17.5846 26.8979V25.2641C17.5851 25.2517 17.5902 25.24 17.5989 25.2314C17.6077 25.2228 17.6193 25.2181 17.6314 25.2181ZM23.1137 25.2181H24.7103C24.7222 25.2181 24.7337 25.2229 24.7421 25.2316C24.7505 25.2402 24.7552 25.2519 24.7552 25.2641V26.8979C24.7552 26.9101 24.7505 26.9218 24.7421 26.9305C24.7337 26.9391 24.7222 26.9439 24.7103 26.9439H23.1137C23.1018 26.9439 23.0904 26.9391 23.082 26.9305C23.0735 26.9218 23.0688 26.9101 23.0688 26.8979V25.2641C23.0688 25.2519 23.0735 25.2402 23.082 25.2316C23.0904 25.2229 23.1018 25.2181 23.1137 25.2181ZM20.3716 25.2181H21.9776C21.9895 25.2181 22.0009 25.2229 22.0093 25.2316C22.0178 25.2402 22.0225 25.2519 22.0225 25.2641V26.8979C22.0225 26.9101 22.0178 26.9218 22.0093 26.9305C22.0009 26.9391 21.9895 26.9439 21.9776 26.9439H20.3716C20.3597 26.9439 20.3483 26.9391 20.3398 26.9305C20.3314 26.9218 20.3267 26.9101 20.3267 26.8979V25.2641C20.3267 25.2519 20.3314 25.2402 20.3398 25.2316C20.3483 25.2229 20.3597 25.2181 20.3716 25.2181Z" fill="white"/>
</g>
<defs>
<clipPath id="clip0_3003_7863">
<rect x="9" y="9" width="27" height="27" rx="13.5" fill="white"/>
</clipPath>
</defs>
</svg>
