<svg width="45" height="45" viewBox="0 0 45 45" fill="none" xmlns="http://www.w3.org/2000/svg">
<rect width="45" height="45" fill="#F5EAF3"/>
<path d="M17.1993 32.3518H16.6378V32.9578H33.7306C33.7661 32.9581 33.8014 32.9511 33.8343 32.9374C33.8672 32.9236 33.8972 32.9033 33.9224 32.8776C33.9476 32.852 33.9676 32.8214 33.9813 32.7878C33.995 32.7542 34.002 32.7181 34.002 32.6817V18.2994C34.0018 18.1922 33.96 18.0894 33.8859 18.0137C33.8115 17.9371 33.7106 17.8937 33.6052 17.8929H27.7279V12.4871C27.728 12.3683 27.6853 12.2536 27.6081 12.1649L27.5875 12.1419C27.5433 12.0966 27.4908 12.0607 27.433 12.0363C27.3751 12.0119 27.3131 11.9996 27.2506 12H17.0814C17.0189 11.9998 16.957 12.0122 16.8992 12.0366C16.8413 12.0609 16.7888 12.0967 16.7445 12.1419C16.6662 12.2228 16.6185 12.3295 16.6097 12.443V20.3858L17.2012 21.2833V12.6079H27.1346V32.3595H27.726V18.4778H33.4274V32.3518H31.6791V29.4505C31.6794 29.4231 31.6743 29.396 31.6643 29.3706C31.6543 29.3453 31.6394 29.3222 31.6206 29.3028C31.6018 29.2833 31.5794 29.2679 31.5548 29.2574C31.5301 29.2469 31.5037 29.2414 31.477 29.2414H29.1841C29.13 29.2414 29.0781 29.2635 29.0398 29.3027C29.0016 29.3419 28.9801 29.395 28.9801 29.4505V32.3557H24.6751V28.2443C24.6751 28.2078 24.6681 28.1716 24.6544 28.1379C24.6408 28.1041 24.6208 28.0735 24.5956 28.0477C24.5704 28.0218 24.5405 28.0014 24.5075 27.9874C24.4746 27.9734 24.4393 27.9662 24.4037 27.9662H19.9265C19.8909 27.9662 19.8557 27.9734 19.8229 27.9874C19.7901 28.0014 19.7603 28.0219 19.7352 28.0478C19.7102 28.0736 19.6903 28.1043 19.6769 28.138C19.6635 28.1717 19.6567 28.2079 19.6569 28.2443V28.6834L19.7355 28.7831C19.7517 28.8026 19.7667 28.8231 19.7805 28.8445C19.9032 29.0238 19.9786 29.2325 19.9995 29.4505C20.024 29.6611 20.0023 29.8747 19.9358 30.0756C19.8773 30.254 19.7822 30.4174 19.6569 30.555V32.3557H16.6303V30.9251H17.1918V32.3518H17.1993ZM11.468 30.0047C10.9945 30.0526 10.8916 29.6422 11.0956 29.3028L12.9261 26.9844L12.8737 26.9269H11.8929C11.5392 26.9844 11.4063 26.5683 11.6234 26.2768L13.5943 23.7839H13.0179C12.6566 23.7839 12.5686 23.4349 12.7989 23.0974L14.5976 20.3014C14.7193 20.1442 14.8503 19.9179 15.0637 19.9179C15.2508 19.9179 15.3594 20.1097 15.468 20.2458L17.3771 23.1395C17.4276 23.2 17.4593 23.2745 17.4683 23.3535C17.4773 23.4326 17.4631 23.5126 17.4276 23.5833C17.3921 23.654 17.3368 23.7124 17.2688 23.7508C17.2008 23.7893 17.1232 23.8061 17.0458 23.7992H16.5311L18.4815 26.2768C18.5333 26.327 18.5716 26.3903 18.5924 26.4602C18.6132 26.5302 18.6159 26.6045 18.6003 26.6759C18.5846 26.7472 18.5511 26.8132 18.503 26.8673C18.455 26.9214 18.394 26.9617 18.3261 26.9844H17.1956L18.9007 29.1475L19.0879 29.3853C19.1254 29.4387 19.1493 29.5009 19.1575 29.5661C19.1657 29.6314 19.158 29.6977 19.1349 29.7591C19.1119 29.8205 19.0744 29.8751 19.0256 29.918C18.9769 29.9609 18.9186 29.9906 18.8558 30.0047H15.7749V33H14.3318V30.0047H11.468ZM31.273 32.3518H29.3863V29.6537H31.273V32.3518ZM30.835 19.6705H32.3024C32.3137 19.6705 32.3249 19.6878 32.3249 19.7089V20.6869C32.3249 20.7041 32.3137 20.7233 32.3024 20.7233H30.835C30.8238 20.7233 30.8125 20.7061 30.8125 20.6869V19.7127C30.8125 19.6916 30.8238 19.6744 30.835 19.6744V19.6705ZM30.835 26.4264H32.3024C32.3137 26.4264 32.3249 26.4436 32.3249 26.4609V27.435C32.3249 27.4542 32.3137 27.4715 32.3024 27.4715H30.835C30.8238 27.4715 30.8125 27.4561 30.8125 27.435V26.4647C30.8125 26.4475 30.8238 26.4302 30.835 26.4302V26.4264ZM28.3624 26.4264H29.828C29.8411 26.4264 29.8505 26.4436 29.8505 26.4609V27.435C29.8505 27.4542 29.8505 27.4715 29.828 27.4715H28.3605C28.3474 27.4715 28.3381 27.4561 28.3381 27.435V26.4647C28.3381 26.4475 28.3381 26.4302 28.3605 26.4302L28.3624 26.4264ZM30.835 24.1789H32.3024C32.3137 24.1789 32.3249 24.1942 32.3249 24.2153V25.1895C32.3249 25.2087 32.3137 25.2259 32.3024 25.2259H30.835C30.8238 25.2259 30.8125 25.2106 30.8125 25.1895V24.2153C30.8125 24.1923 30.8238 24.1789 30.835 24.1789ZM30.835 21.9276H32.3024C32.3137 21.9276 32.3249 21.9429 32.3249 21.964V22.9305C32.3249 22.9478 32.3137 22.967 32.3024 22.967H30.835C30.8238 22.967 30.8125 22.9497 30.8125 22.9305V21.9717C30.8125 21.9506 30.8238 21.9353 30.835 21.9353V21.9276ZM28.3605 19.6705H29.8261C29.8392 19.6705 29.8486 19.6878 29.8486 19.7089V20.6869C29.8486 20.7041 29.8486 20.7233 29.8261 20.7233H28.3605C28.3474 20.7233 28.3381 20.7061 28.3381 20.6869V19.7127C28.3381 19.6916 28.3381 19.6744 28.3605 19.6744V19.6705ZM28.3605 24.1751H29.8261C29.8392 24.1751 29.8486 24.1904 29.8486 24.2115V25.1857C29.8486 25.2048 29.8486 25.2221 29.8261 25.2221H28.3605C28.3474 25.2221 28.3381 25.2067 28.3381 25.1857V24.2153C28.3381 24.1923 28.3381 24.1789 28.3605 24.1789V24.1751ZM28.3605 21.9238H29.8261C29.8392 21.9238 29.8486 21.9391 29.8486 21.9602V22.9305C29.8486 22.9478 29.8486 22.967 29.8261 22.967H28.3605C28.3474 22.967 28.3381 22.9497 28.3381 22.9305V21.9717C28.3381 21.9506 28.3381 21.9353 28.3605 21.9353V21.9238ZM24.1341 32.3518H20.2035V28.5166H24.1341V32.3518ZM18.6275 14.1343H20.2222C20.2281 14.1343 20.2339 14.1355 20.2394 14.1378C20.2448 14.1402 20.2498 14.1435 20.254 14.1478C20.2581 14.1521 20.2614 14.1572 20.2637 14.1627C20.266 14.1683 20.2671 14.1743 20.2671 14.1804V15.8161C20.2671 15.8221 20.266 15.8281 20.2637 15.8337C20.2614 15.8393 20.2581 15.8444 20.254 15.8486C20.2498 15.8529 20.2448 15.8563 20.2394 15.8586C20.2339 15.8609 20.2281 15.8621 20.2222 15.8621H18.6275C18.6154 15.8621 18.6038 15.8573 18.595 15.8488C18.5863 15.8402 18.5812 15.8285 18.5807 15.8161V14.1823C18.5812 14.1699 18.5863 14.1582 18.595 14.1496C18.6038 14.141 18.6154 14.1362 18.6275 14.1363V14.1343ZM24.1098 14.1343H25.7064C25.7183 14.1343 25.7298 14.1392 25.7382 14.1478C25.7466 14.1564 25.7513 14.1682 25.7513 14.1804V15.8161C25.7513 15.8283 25.7466 15.84 25.7382 15.8486C25.7298 15.8573 25.7183 15.8621 25.7064 15.8621H24.1098C24.0979 15.8621 24.0865 15.8573 24.078 15.8486C24.0696 15.84 24.0649 15.8283 24.0649 15.8161V14.1823C24.0649 14.1701 24.0696 14.1584 24.078 14.1497C24.0865 14.1411 24.0979 14.1363 24.1098 14.1363V14.1343ZM21.3677 14.1343H22.9737C22.9856 14.1343 22.997 14.1392 23.0054 14.1478C23.0139 14.1564 23.0186 14.1682 23.0186 14.1804V15.8161C23.0186 15.8283 23.0139 15.84 23.0054 15.8486C22.997 15.8573 22.9856 15.8621 22.9737 15.8621H21.3677C21.3558 15.8621 21.3444 15.8573 21.3359 15.8486C21.3275 15.84 21.3228 15.8283 21.3228 15.8161V14.1823C21.3228 14.1701 21.3275 14.1584 21.3359 14.1497C21.3444 14.1411 21.3558 14.1363 21.3677 14.1363V14.1343ZM18.6275 17.6762H20.2222C20.2281 17.6762 20.2339 17.6774 20.2394 17.6797C20.2448 17.682 20.2498 17.6854 20.254 17.6897C20.2581 17.694 20.2614 17.699 20.2637 17.7046C20.266 17.7102 20.2671 17.7162 20.2671 17.7222V19.358C20.2671 19.364 20.266 19.37 20.2637 19.3756C20.2614 19.3812 20.2581 19.3862 20.254 19.3905C20.2498 19.3948 20.2448 19.3982 20.2394 19.4005C20.2339 19.4028 20.2281 19.404 20.2222 19.404H18.6275C18.6154 19.404 18.6038 19.3992 18.595 19.3906C18.5863 19.3821 18.5812 19.3703 18.5807 19.358V17.7222C18.5812 17.7098 18.5863 17.6981 18.595 17.6896C18.6038 17.681 18.6154 17.6762 18.6275 17.6762ZM24.1098 17.6762H25.7064C25.7183 17.6762 25.7298 17.6811 25.7382 17.6897C25.7466 17.6983 25.7513 17.71 25.7513 17.7222V19.358C25.7513 19.3702 25.7466 19.3819 25.7382 19.3905C25.7298 19.3991 25.7183 19.404 25.7064 19.404H24.1098C24.0979 19.404 24.0865 19.3991 24.078 19.3905C24.0696 19.3819 24.0649 19.3702 24.0649 19.358V17.7222C24.0649 17.71 24.0696 17.6983 24.078 17.6897C24.0865 17.6811 24.0979 17.6762 24.1098 17.6762ZM21.3677 17.6762H22.9737C22.9856 17.6762 22.997 17.6811 23.0054 17.6897C23.0139 17.6983 23.0186 17.71 23.0186 17.7222V19.358C23.0186 19.3702 23.0139 19.3819 23.0054 19.3905C22.997 19.3991 22.9856 19.404 22.9737 19.404H21.3677C21.3558 19.404 21.3444 19.3991 21.3359 19.3905C21.3275 19.3819 21.3228 19.3702 21.3228 19.358V17.7222C21.3228 17.71 21.3275 17.6983 21.3359 17.6897C21.3444 17.6811 21.3558 17.6762 21.3677 17.6762ZM18.6275 24.758H20.2222C20.2341 24.758 20.2455 24.7629 20.254 24.7715C20.2624 24.7801 20.2671 24.7918 20.2671 24.804V26.4379C20.2671 26.4503 20.2625 26.4622 20.2541 26.4711C20.2457 26.48 20.2343 26.4853 20.2222 26.4858H19.4623C19.4586 26.4291 19.4511 26.3727 19.4398 26.3171C19.3935 26.073 19.2835 25.8464 19.1216 25.6612L18.5807 24.9766V24.804C18.5812 24.7917 18.5863 24.78 18.595 24.7714C18.6038 24.7628 18.6154 24.758 18.6275 24.758ZM24.1098 24.758H25.7064C25.7183 24.758 25.7298 24.7629 25.7382 24.7715C25.7466 24.7801 25.7513 24.7918 25.7513 24.804V26.4379C25.7513 26.4503 25.7467 26.4622 25.7383 26.4711C25.7299 26.48 25.7185 26.4853 25.7064 26.4858H24.1098C24.0977 26.4853 24.0863 26.48 24.0779 26.4711C24.0696 26.4622 24.0649 26.4503 24.0649 26.4379V24.804C24.0649 24.7918 24.0696 24.7801 24.078 24.7715C24.0865 24.7629 24.0979 24.758 24.1098 24.758ZM21.3677 24.758H22.9737C22.9856 24.758 22.997 24.7629 23.0054 24.7715C23.0139 24.7801 23.0186 24.7918 23.0186 24.804V26.4379C23.0186 26.4503 23.0139 26.4622 23.0055 26.4711C22.9972 26.48 22.9857 26.4853 22.9737 26.4858H21.3677C21.3556 26.4853 21.3442 26.48 21.3358 26.4711C21.3274 26.4622 21.3228 26.4503 21.3228 26.4379V24.804C21.3228 24.7918 21.3275 24.7801 21.3359 24.7715C21.3444 24.7629 21.3558 24.758 21.3677 24.758ZM18.6275 21.2181H20.2222C20.2281 21.2181 20.2339 21.2193 20.2394 21.2216C20.2448 21.2239 20.2498 21.2273 20.254 21.2316C20.2581 21.2358 20.2614 21.2409 20.2637 21.2465C20.266 21.2521 20.2671 21.2581 20.2671 21.2641V22.8979C20.2671 22.904 20.266 22.9099 20.2637 22.9155C20.2614 22.9211 20.2581 22.9262 20.254 22.9305C20.2498 22.9347 20.2448 22.9381 20.2394 22.9404C20.2339 22.9428 20.2281 22.9439 20.2222 22.9439H18.6275C18.6154 22.944 18.6038 22.9392 18.595 22.9306C18.5863 22.922 18.5812 22.9103 18.5807 22.8979V21.2641C18.5812 21.2517 18.5863 21.24 18.595 21.2314C18.6038 21.2228 18.6154 21.2181 18.6275 21.2181ZM24.1098 21.2181H25.7064C25.7183 21.2181 25.7298 21.2229 25.7382 21.2316C25.7466 21.2402 25.7513 21.2519 25.7513 21.2641V22.8979C25.7513 22.9101 25.7466 22.9218 25.7382 22.9305C25.7298 22.9391 25.7183 22.9439 25.7064 22.9439H24.1098C24.0979 22.9439 24.0865 22.9391 24.078 22.9305C24.0696 22.9218 24.0649 22.9101 24.0649 22.8979V21.2641C24.0649 21.2519 24.0696 21.2402 24.078 21.2316C24.0865 21.2229 24.0979 21.2181 24.1098 21.2181ZM21.3677 21.2181H22.9737C22.9856 21.2181 22.997 21.2229 23.0054 21.2316C23.0139 21.2402 23.0186 21.2519 23.0186 21.2641V22.8979C23.0186 22.9101 23.0139 22.9218 23.0054 22.9305C22.997 22.9391 22.9856 22.9439 22.9737 22.9439H21.3677C21.3558 22.9439 21.3444 22.9391 21.3359 22.9305C21.3275 22.9218 21.3228 22.9101 21.3228 22.8979V21.2641C21.3228 21.2519 21.3275 21.2402 21.3359 21.2316C21.3444 21.2229 21.3558 21.2181 21.3677 21.2181Z" fill="#AE5AA6"/>
</svg>
