<svg width="18" height="18" viewBox="0 0 18 18" fill="none" xmlns="http://www.w3.org/2000/svg">
<path d="M7.32253 0H7.32487V0.00105176C9.34623 0.00165277 11.1766 0.842611 12.5011 2.20149C13.8234 3.55841 14.6426 5.43415 14.6439 7.50582H14.6449V7.51077V7.51678H14.6439C14.6432 8.35173 14.5096 9.15528 14.2639 9.90458C14.2227 10.0303 14.1797 10.1511 14.1354 10.2665V10.2676C13.9236 10.8175 13.6498 11.3374 13.3229 11.8162L17.583 15.7437L17.5856 15.7461L17.6086 15.768L17.6102 15.7696C17.8507 16.0045 17.9817 16.319 17.9983 16.6381C18.0144 16.9536 17.9187 17.2764 17.7084 17.5353L17.7068 17.5377L17.6811 17.5682L17.676 17.5734L17.6546 17.5975L17.6523 17.6006C17.423 17.8473 17.117 17.9814 16.8056 17.9982C16.4984 18.0149 16.1834 17.917 15.9309 17.701L15.9287 17.6993L15.8988 17.673L15.8946 17.6694L11.5374 13.6526C11.4085 13.7458 11.2769 13.8343 11.1438 13.9178C10.9631 14.0312 10.7761 14.1381 10.5852 14.2356C9.6039 14.7377 8.495 15.0202 7.32267 15.0202V15.0212H7.32033V15.0202C5.29897 15.0196 3.46834 14.1786 2.14382 12.8198C0.821052 11.4628 0.00234377 9.5868 0.0010254 7.51573H0V7.51077V7.50837H0.0010254C0.00161134 5.43505 0.821492 3.55736 2.14631 2.19878C3.46922 0.842611 5.29795 0.00240402 7.31769 0.00105176V0H7.32253ZM7.32487 1.68432V1.68537H7.32253H7.31769V1.68432C5.75235 1.68537 4.33349 2.33791 3.30633 3.39103C2.27932 4.44414 1.64254 5.90098 1.6421 7.50852H1.64313V7.51092V7.51588H1.6421C1.64313 9.12147 2.27888 10.5761 3.30604 11.6299C4.33275 12.6835 5.75308 13.3366 7.32018 13.3369V13.3359H7.32253H7.32736V13.3369C8.89271 13.3359 10.311 12.6836 11.3384 11.6302C12.3654 10.5771 13.0022 9.12072 13.0025 7.51333H13.0016V7.51092V7.50597H13.0025C13.0016 5.90038 12.3653 4.44504 11.3387 3.39148C10.312 2.33791 8.89212 1.68477 7.32487 1.68432Z" fill="#222114"/>
</svg>
