<svg width="45" height="45" viewBox="0 0 45 45" fill="none" xmlns="http://www.w3.org/2000/svg">
<rect width="45" height="45" fill="#F8F3F3"/>
<g clip-path="url(#clip0_3003_7870)">
<path d="M17.2052 32.3518H16.6437V32.9578H33.7364C33.772 32.9581 33.8072 32.9511 33.8402 32.9374C33.8731 32.9236 33.903 32.9033 33.9282 32.8776C33.9535 32.852 33.9735 32.8214 33.9871 32.7878C34.0008 32.7542 34.0078 32.7181 34.0078 32.6817V18.2994C34.0076 18.1922 33.9659 18.0894 33.8918 18.0137C33.8174 17.9371 33.7165 17.8937 33.611 17.8929H27.7338V12.4871C27.7338 12.3683 27.6912 12.2536 27.614 12.1649L27.5934 12.1419C27.5492 12.0966 27.4967 12.0607 27.4388 12.0363C27.381 12.0119 27.319 11.9996 27.2565 12H17.0873C17.0248 11.9998 16.9628 12.0122 16.905 12.0366C16.8472 12.0609 16.7947 12.0967 16.7504 12.1419C16.6721 12.2228 16.6243 12.3295 16.6156 12.443V20.3858L17.2071 21.2833V12.6079H27.1404V32.3595H27.7319V18.4778H33.4332V32.3518H31.685V29.4505C31.6853 29.4231 31.6802 29.396 31.6702 29.3706C31.6601 29.3453 31.6453 29.3222 31.6265 29.3028C31.6077 29.2833 31.5853 29.2679 31.5607 29.2574C31.536 29.2469 31.5096 29.2414 31.4829 29.2414H29.19C29.1359 29.2414 29.084 29.2635 29.0457 29.3027C29.0074 29.3419 28.986 29.395 28.986 29.4505V32.3557H24.6809V28.2443C24.6809 28.2078 24.6739 28.1716 24.6603 28.1379C24.6466 28.1041 24.6266 28.0735 24.6014 28.0477C24.5762 28.0218 24.5463 28.0014 24.5134 27.9874C24.4805 27.9734 24.4452 27.9662 24.4095 27.9662H19.9323C19.8968 27.9662 19.8616 27.9734 19.8287 27.9874C19.7959 28.0014 19.7661 28.0219 19.7411 28.0478C19.716 28.0736 19.6962 28.1043 19.6828 28.138C19.6693 28.1717 19.6625 28.2079 19.6628 28.2443V28.6834L19.7414 28.7831C19.7576 28.8026 19.7726 28.8231 19.7863 28.8445C19.909 29.0238 19.9845 29.2325 20.0053 29.4505C20.0299 29.6611 20.0081 29.8747 19.9417 30.0756C19.8831 30.254 19.7881 30.4174 19.6628 30.555V32.3557H16.6362V30.9251H17.1977V32.3518H17.2052ZM11.4739 30.0047C11.0004 30.0526 10.8974 29.6422 11.1014 29.3028L12.932 26.9844L12.8796 26.9269H11.8988C11.545 26.9844 11.4121 26.5683 11.6293 26.2768L13.6002 23.7839H13.0237C12.6625 23.7839 12.5745 23.4349 12.8047 23.0974L14.6035 20.3014C14.7251 20.1442 14.8561 19.9179 15.0695 19.9179C15.2567 19.9179 15.3653 20.1097 15.4738 20.2458L17.383 23.1395C17.4335 23.2 17.4652 23.2745 17.4742 23.3535C17.4832 23.4326 17.469 23.5126 17.4335 23.5833C17.3979 23.654 17.3427 23.7124 17.2747 23.7508C17.2067 23.7893 17.1291 23.8061 17.0517 23.7992H16.537L18.4873 26.2768C18.5392 26.327 18.5774 26.3903 18.5982 26.4602C18.6191 26.5302 18.6218 26.6045 18.6061 26.6759C18.5904 26.7472 18.5569 26.8132 18.5089 26.8673C18.4608 26.9214 18.3999 26.9617 18.332 26.9844H17.2014L18.9066 29.1475L19.0938 29.3853C19.1312 29.4387 19.1552 29.5009 19.1634 29.5661C19.1716 29.6314 19.1638 29.6977 19.1408 29.7591C19.1178 29.8205 19.0802 29.8751 19.0315 29.918C18.9828 29.9609 18.9244 29.9906 18.8617 30.0047H15.7808V33H14.3377V30.0047H11.4739ZM31.2788 32.3518H29.3921V29.6537H31.2788V32.3518ZM30.8409 19.6705H32.3083C32.3195 19.6705 32.3308 19.6878 32.3308 19.7089V20.6869C32.3308 20.7041 32.3195 20.7233 32.3083 20.7233H30.8409C30.8296 20.7233 30.8184 20.7061 30.8184 20.6869V19.7127C30.8184 19.6916 30.8296 19.6744 30.8409 19.6744V19.6705ZM30.8409 26.4264H32.3083C32.3195 26.4264 32.3308 26.4436 32.3308 26.4609V27.435C32.3308 27.4542 32.3195 27.4715 32.3083 27.4715H30.8409C30.8296 27.4715 30.8184 27.4561 30.8184 27.435V26.4647C30.8184 26.4475 30.8296 26.4302 30.8409 26.4302V26.4264ZM28.3683 26.4264H29.8339C29.847 26.4264 29.8563 26.4436 29.8563 26.4609V27.435C29.8563 27.4542 29.8563 27.4715 29.8339 27.4715H28.3664C28.3533 27.4715 28.3439 27.4561 28.3439 27.435V26.4647C28.3439 26.4475 28.3439 26.4302 28.3664 26.4302L28.3683 26.4264ZM30.8409 24.1789H32.3083C32.3195 24.1789 32.3308 24.1942 32.3308 24.2153V25.1895C32.3308 25.2087 32.3195 25.2259 32.3083 25.2259H30.8409C30.8296 25.2259 30.8184 25.2106 30.8184 25.1895V24.2153C30.8184 24.1923 30.8296 24.1789 30.8409 24.1789ZM30.8409 21.9276H32.3083C32.3195 21.9276 32.3308 21.9429 32.3308 21.964V22.9305C32.3308 22.9478 32.3195 22.967 32.3083 22.967H30.8409C30.8296 22.967 30.8184 22.9497 30.8184 22.9305V21.9717C30.8184 21.9506 30.8296 21.9353 30.8409 21.9353V21.9276ZM28.3664 19.6705H29.832C29.8451 19.6705 29.8544 19.6878 29.8544 19.7089V20.6869C29.8544 20.7041 29.8544 20.7233 29.832 20.7233H28.3664C28.3533 20.7233 28.3439 20.7061 28.3439 20.6869V19.7127C28.3439 19.6916 28.3439 19.6744 28.3664 19.6744V19.6705ZM28.3664 24.1751H29.832C29.8451 24.1751 29.8544 24.1904 29.8544 24.2115V25.1857C29.8544 25.2048 29.8544 25.2221 29.832 25.2221H28.3664C28.3533 25.2221 28.3439 25.2067 28.3439 25.1857V24.2153C28.3439 24.1923 28.3439 24.1789 28.3664 24.1789V24.1751ZM28.3664 21.9238H29.832C29.8451 21.9238 29.8544 21.9391 29.8544 21.9602V22.9305C29.8544 22.9478 29.8544 22.967 29.832 22.967H28.3664C28.3533 22.967 28.3439 22.9497 28.3439 22.9305V21.9717C28.3439 21.9506 28.3439 21.9353 28.3664 21.9353V21.9238ZM24.14 32.3518H20.2093V28.5166H24.14V32.3518ZM18.6333 14.1343H20.2281C20.234 14.1343 20.2398 14.1355 20.2452 14.1378C20.2507 14.1402 20.2557 14.1435 20.2598 14.1478C20.264 14.1521 20.2673 14.1572 20.2696 14.1627C20.2718 14.1683 20.273 14.1743 20.273 14.1804V15.8161C20.273 15.8221 20.2718 15.8281 20.2696 15.8337C20.2673 15.8393 20.264 15.8444 20.2598 15.8486C20.2557 15.8529 20.2507 15.8563 20.2452 15.8586C20.2398 15.8609 20.234 15.8621 20.2281 15.8621H18.6333C18.6212 15.8621 18.6096 15.8573 18.6009 15.8488C18.5922 15.8402 18.587 15.8285 18.5865 15.8161V14.1823C18.587 14.1699 18.5922 14.1582 18.6009 14.1496C18.6096 14.141 18.6212 14.1362 18.6333 14.1363V14.1343ZM24.1157 14.1343H25.7123C25.7242 14.1343 25.7356 14.1392 25.744 14.1478C25.7525 14.1564 25.7572 14.1682 25.7572 14.1804V15.8161C25.7572 15.8283 25.7525 15.84 25.744 15.8486C25.7356 15.8573 25.7242 15.8621 25.7123 15.8621H24.1157C24.1038 15.8621 24.0923 15.8573 24.0839 15.8486C24.0755 15.84 24.0707 15.8283 24.0707 15.8161V14.1823C24.0707 14.1701 24.0755 14.1584 24.0839 14.1497C24.0923 14.1411 24.1038 14.1363 24.1157 14.1363V14.1343ZM21.3736 14.1343H22.9795C22.9914 14.1343 23.0029 14.1392 23.0113 14.1478C23.0197 14.1564 23.0244 14.1682 23.0244 14.1804V15.8161C23.0244 15.8283 23.0197 15.84 23.0113 15.8486C23.0029 15.8573 22.9914 15.8621 22.9795 15.8621H21.3736C21.3617 15.8621 21.3502 15.8573 21.3418 15.8486C21.3334 15.84 21.3286 15.8283 21.3286 15.8161V14.1823C21.3286 14.1701 21.3334 14.1584 21.3418 14.1497C21.3502 14.1411 21.3617 14.1363 21.3736 14.1363V14.1343ZM18.6333 17.6762H20.2281C20.234 17.6762 20.2398 17.6774 20.2452 17.6797C20.2507 17.682 20.2557 17.6854 20.2598 17.6897C20.264 17.694 20.2673 17.699 20.2696 17.7046C20.2718 17.7102 20.273 17.7162 20.273 17.7222V19.358C20.273 19.364 20.2718 19.37 20.2696 19.3756C20.2673 19.3812 20.264 19.3862 20.2598 19.3905C20.2557 19.3948 20.2507 19.3982 20.2452 19.4005C20.2398 19.4028 20.234 19.404 20.2281 19.404H18.6333C18.6212 19.404 18.6096 19.3992 18.6009 19.3906C18.5922 19.3821 18.587 19.3703 18.5865 19.358V17.7222C18.587 17.7098 18.5922 17.6981 18.6009 17.6896C18.6096 17.681 18.6212 17.6762 18.6333 17.6762ZM24.1157 17.6762H25.7123C25.7242 17.6762 25.7356 17.6811 25.744 17.6897C25.7525 17.6983 25.7572 17.71 25.7572 17.7222V19.358C25.7572 19.3702 25.7525 19.3819 25.744 19.3905C25.7356 19.3991 25.7242 19.404 25.7123 19.404H24.1157C24.1038 19.404 24.0923 19.3991 24.0839 19.3905C24.0755 19.3819 24.0707 19.3702 24.0707 19.358V17.7222C24.0707 17.71 24.0755 17.6983 24.0839 17.6897C24.0923 17.6811 24.1038 17.6762 24.1157 17.6762ZM21.3736 17.6762H22.9795C22.9914 17.6762 23.0029 17.6811 23.0113 17.6897C23.0197 17.6983 23.0244 17.71 23.0244 17.7222V19.358C23.0244 19.3702 23.0197 19.3819 23.0113 19.3905C23.0029 19.3991 22.9914 19.404 22.9795 19.404H21.3736C21.3617 19.404 21.3502 19.3991 21.3418 19.3905C21.3334 19.3819 21.3286 19.3702 21.3286 19.358V17.7222C21.3286 17.71 21.3334 17.6983 21.3418 17.6897C21.3502 17.6811 21.3617 17.6762 21.3736 17.6762ZM18.6333 24.758H20.2281C20.24 24.758 20.2514 24.7629 20.2598 24.7715C20.2682 24.7801 20.273 24.7918 20.273 24.804V26.4379C20.273 26.4503 20.2683 26.4622 20.2599 26.4711C20.2516 26.48 20.2401 26.4853 20.2281 26.4858H19.4681C19.4645 26.4291 19.4569 26.3727 19.4457 26.3171C19.3993 26.073 19.2894 25.8464 19.1275 25.6612L18.5865 24.9766V24.804C18.587 24.7917 18.5922 24.78 18.6009 24.7714C18.6096 24.7628 18.6212 24.758 18.6333 24.758ZM24.1157 24.758H25.7123C25.7242 24.758 25.7356 24.7629 25.744 24.7715C25.7525 24.7801 25.7572 24.7918 25.7572 24.804V26.4379C25.7572 26.4503 25.7525 26.4622 25.7442 26.4711C25.7358 26.48 25.7244 26.4853 25.7123 26.4858H24.1157C24.1036 26.4853 24.0922 26.48 24.0838 26.4711C24.0754 26.4622 24.0707 26.4503 24.0707 26.4379V24.804C24.0707 24.7918 24.0755 24.7801 24.0839 24.7715C24.0923 24.7629 24.1038 24.758 24.1157 24.758ZM21.3736 24.758H22.9795C22.9914 24.758 23.0029 24.7629 23.0113 24.7715C23.0197 24.7801 23.0244 24.7918 23.0244 24.804V26.4379C23.0245 26.4503 23.0198 26.4622 23.0114 26.4711C23.003 26.48 22.9916 26.4853 22.9795 26.4858H21.3736C21.3615 26.4853 21.3501 26.48 21.3417 26.4711C21.3333 26.4622 21.3286 26.4503 21.3286 26.4379V24.804C21.3286 24.7918 21.3334 24.7801 21.3418 24.7715C21.3502 24.7629 21.3617 24.758 21.3736 24.758ZM18.6333 21.2181H20.2281C20.234 21.2181 20.2398 21.2193 20.2452 21.2216C20.2507 21.2239 20.2557 21.2273 20.2598 21.2316C20.264 21.2358 20.2673 21.2409 20.2696 21.2465C20.2718 21.2521 20.273 21.2581 20.273 21.2641V22.8979C20.273 22.904 20.2718 22.9099 20.2696 22.9155C20.2673 22.9211 20.264 22.9262 20.2598 22.9305C20.2557 22.9347 20.2507 22.9381 20.2452 22.9404C20.2398 22.9428 20.234 22.9439 20.2281 22.9439H18.6333C18.6212 22.944 18.6096 22.9392 18.6009 22.9306C18.5922 22.922 18.587 22.9103 18.5865 22.8979V21.2641C18.587 21.2517 18.5922 21.24 18.6009 21.2314C18.6096 21.2228 18.6212 21.2181 18.6333 21.2181ZM24.1157 21.2181H25.7123C25.7242 21.2181 25.7356 21.2229 25.744 21.2316C25.7525 21.2402 25.7572 21.2519 25.7572 21.2641V22.8979C25.7572 22.9101 25.7525 22.9218 25.744 22.9305C25.7356 22.9391 25.7242 22.9439 25.7123 22.9439H24.1157C24.1038 22.9439 24.0923 22.9391 24.0839 22.9305C24.0755 22.9218 24.0707 22.9101 24.0707 22.8979V21.2641C24.0707 21.2519 24.0755 21.2402 24.0839 21.2316C24.0923 21.2229 24.1038 21.2181 24.1157 21.2181ZM21.3736 21.2181H22.9795C22.9914 21.2181 23.0029 21.2229 23.0113 21.2316C23.0197 21.2402 23.0244 21.2519 23.0244 21.2641V22.8979C23.0244 22.9101 23.0197 22.9218 23.0113 22.9305C23.0029 22.9391 22.9914 22.9439 22.9795 22.9439H21.3736C21.3617 22.9439 21.3502 22.9391 21.3418 22.9305C21.3334 22.9218 21.3286 22.9101 21.3286 22.8979V21.2641C21.3286 21.2519 21.3334 21.2402 21.3418 21.2316C21.3502 21.2229 21.3617 21.2181 21.3736 21.2181Z" fill="#984242"/>
</g>
<defs>
<clipPath id="clip0_3003_7870">
<rect width="23" height="21" fill="white" transform="translate(11 12)"/>
</clipPath>
</defs>
</svg>
