<svg width="24" height="24" viewBox="0 0 24 24" fill="none" xmlns="http://www.w3.org/2000/svg">
<path d="M9.76337 0H9.7665V0.00140235C12.4616 0.00220369 14.9021 1.12348 16.6681 2.93531C18.4312 4.74454 19.5234 7.24553 19.5252 10.0078H19.5265V10.0144V10.0224H19.5252C19.5242 11.1356 19.3461 12.207 19.0185 13.2061C18.9636 13.3738 18.9062 13.5349 18.8472 13.6887V13.6901C18.5648 14.4233 18.1998 15.1165 17.7638 15.755L23.444 20.9915L23.4475 20.9947L23.4781 21.024L23.4803 21.0262C23.801 21.3393 23.9756 21.7586 23.9977 22.1841C24.0192 22.6048 23.8916 23.0352 23.6112 23.3803L23.609 23.3835L23.5748 23.4242L23.568 23.4312L23.5395 23.4633L23.5363 23.4675C23.2307 23.7964 22.8227 23.9751 22.4074 23.9976C21.9979 24.0198 21.5779 23.8894 21.2412 23.6013L21.2383 23.5991L21.1984 23.564L21.1928 23.5592L15.3831 18.2035C15.2113 18.3277 15.0359 18.4457 14.8583 18.5571C14.6175 18.7083 14.3681 18.8508 14.1136 18.9808C12.8052 19.6503 11.3267 20.0269 9.76357 20.0269V20.0283H9.76044V20.0269C7.0653 20.0261 4.62446 18.9048 2.85842 17.093C1.09474 15.2838 0.00312503 12.7824 0.0013672 10.021H0V10.0144V10.0112H0.0013672C0.00214846 7.24673 1.09532 4.74314 2.86174 2.93171C4.62563 1.12348 7.06393 0.00320537 9.75692 0.00140235V0H9.76337ZM9.7665 2.24576V2.24716H9.76337H9.75692V2.24576C7.6698 2.24716 5.77798 3.11722 4.40844 4.52137C3.03909 5.92552 2.19006 7.86797 2.18947 10.0114H2.19084V10.0146V10.0212H2.18947C2.19084 12.162 3.0385 14.1014 4.40805 15.5066C5.77701 16.9113 7.67077 17.7822 9.76025 17.7826V17.7812H9.76337H9.76982V17.7826C11.8569 17.7812 13.748 16.9115 15.1179 15.507C16.4873 14.1028 17.3363 12.161 17.3367 10.0178H17.3355V10.0146V10.008H17.3367C17.3355 7.86717 16.4871 5.92672 15.1183 4.52197C13.7493 3.11722 11.8562 2.24636 9.7665 2.24576Z" fill="white"/>
</svg>
