<svg width="45" height="45" viewBox="0 0 45 45" fill="none" xmlns="http://www.w3.org/2000/svg">
<rect width="45" height="45" fill="#F3F2F9"/>
<path fill-rule="evenodd" clip-rule="evenodd" d="M15.5711 29.3516C15.5726 28.7285 15.9267 28.1192 16.5034 27.4373L13.1682 25.3283C12.9579 25.237 12.9625 25.1087 13.0847 24.9572L13.7913 24.3541C13.9197 24.2753 14.0557 24.2412 14.2026 24.2814L18.3187 24.9773L21.7483 21.2631L13.7418 15.8466C13.5393 15.7275 13.5223 15.593 13.731 15.4369L14.8861 14.5153L25.3232 17.4485L28.4064 14.1519C29.4409 13.2566 30.4459 12.8561 31.2175 13.0463C31.6427 13.1515 31.7927 13.2783 31.9241 13.6772C32.1793 14.4596 31.7834 15.5111 30.848 16.5935L27.5514 19.6767L30.4846 30.1139L29.563 31.269C29.4069 31.4762 29.2723 31.4592 29.1533 31.2581L23.7352 23.2532L20.0211 26.6812L20.717 30.7974C20.7572 30.9427 20.7247 31.0788 20.6443 31.2087L20.0413 31.9153C19.8913 32.0375 19.7614 32.0421 19.6702 31.8318L17.5611 28.4965C16.8761 29.0748 16.2669 29.4289 15.6406 29.4289C15.5834 29.4274 15.5711 29.4073 15.5711 29.3516Z" fill="#4837A4"/>
</svg>
