<svg width="23" height="24" viewBox="0 0 23 24" fill="none" xmlns="http://www.w3.org/2000/svg">
<path d="M21.062 3.19632C21.0903 2.88536 20.8298 2.62484 20.5188 2.65311L3.98479 4.1562C3.39866 4.20949 3.37018 5.05535 3.95141 5.14793L16.2009 7.09908C16.4145 7.1331 16.582 7.30061 16.6161 7.51421L18.5672 19.7637C18.6598 20.345 19.5057 20.3165 19.5589 19.7304L21.062 3.19632Z" fill="white"/>
<path d="M13.468 6.48481C14.2054 5.55438 15.5864 5.46749 16.4346 6.29814L16.9651 6.81756C17.805 7.64003 17.7578 9.00605 16.8632 9.76863L5.70987 19.2755C5.31496 19.6121 4.72215 19.5657 4.38441 19.1718C4.09101 18.8296 4.08134 18.3275 4.36133 17.9742L13.468 6.48481Z" fill="white"/>
</svg>
