<svg width="122" height="40" viewBox="0 0 122 40" fill="none" xmlns="http://www.w3.org/2000/svg">
<rect y="7" width="21" height="26" rx="5" fill="#F3DFFC"/>
<path fill-rule="evenodd" clip-rule="evenodd" d="M6.51919 13.0747C5.00908 14.5482 4.61329 16.3897 5.38335 18.3588C5.99884 19.9324 6.05433 19.9539 6.83061 18.9224C7.27453 18.3323 7.63748 17.3063 7.63748 16.6417C7.63748 15.2576 9.00094 13.9261 9.87745 14.4549C10.81 15.0173 10.5716 16.1411 9.27839 17.2837C8.62327 17.8616 7.72411 19.0207 7.28019 19.8589C6.59224 21.1567 6.58771 21.597 7.24905 22.8286L8.02534 24.2745L9.19968 22.4109C9.99296 21.1523 10.2766 20.0092 10.0728 18.8898C9.78969 17.3323 9.82196 17.2964 10.6118 18.2986C11.4346 19.3434 11.4657 19.3395 12.1316 18.1262C13.0443 16.4621 13.0692 13.8731 12.1837 12.8316C11.1526 11.6189 7.86623 11.7603 6.51919 13.0747ZM13.0426 13.5267C13.7702 14.9493 13.7691 15.4273 13.0324 17.4654C12.2222 19.7047 11.4167 19.8589 13.3127 19.4384C14.4321 19.4384 14.4321 19.3373 14.4321 19.6373C14.4321 19.9379 13.683 20.344 12.7674 20.5401C10.9583 20.9412 10.6934 21.5733 9.9035 22.8794C8.87977 24.5723 8.8022 25.0911 9.37238 26.4336C9.73929 27.2983 10.2002 28.0033 10.3955 28C11.0676 27.9889 15.6557 19.5992 15.9394 17.8632C16.1421 16.6234 15.846 15.5869 14.9027 14.2361C13.1853 11.7752 11.896 11.2835 13.0426 13.5267Z" fill="#222141"/>
<path d="M31.275 29V13.7H34.95V29H31.275ZM26.225 15.5V11.975H40.1V15.5H26.225ZM42.7197 16.775L43.6697 20.15V29H40.0197V16.775H42.7197ZM42.8697 22.175L42.2447 21.9V19.075L42.4697 18.775C42.6697 18.4917 42.9531 18.1667 43.3197 17.8C43.7031 17.4333 44.1447 17.125 44.6447 16.875C45.1614 16.6083 45.6864 16.475 46.2197 16.475C46.4864 16.475 46.7281 16.4917 46.9447 16.525C47.1614 16.5583 47.3364 16.6167 47.4697 16.7V20.025H46.6447C45.5781 20.025 44.7364 20.2 44.1197 20.55C43.5197 20.8833 43.1031 21.425 42.8697 22.175ZM52.3141 29.325C51.4307 29.325 50.6474 29.1583 49.9641 28.825C49.2974 28.475 48.7807 27.9917 48.4141 27.375C48.0474 26.7583 47.8641 26.0417 47.8641 25.225C47.8641 24.3583 48.0641 23.625 48.4641 23.025C48.8641 22.4083 49.3974 21.9333 50.0641 21.6C50.7474 21.2667 51.5057 21.1 52.3391 21.1C53.5557 21.1 54.5391 21.375 55.2891 21.925C56.0391 22.475 56.5391 23.2667 56.7891 24.3L55.2141 24.025V21.175C55.2141 20.725 55.0557 20.3333 54.7391 20C54.4224 19.6667 53.9141 19.5 53.2141 19.5C52.7641 19.5 52.2474 19.5583 51.6641 19.675C51.0807 19.775 50.4807 19.975 49.8641 20.275L48.7891 17.675C49.5224 17.3083 50.3057 17.0167 51.1391 16.8C51.9891 16.5833 52.8557 16.475 53.7391 16.475C54.8724 16.475 55.8224 16.675 56.5891 17.075C57.3557 17.475 57.9224 18.0417 58.2891 18.775C58.6724 19.5083 58.8641 20.3583 58.8641 21.325V29H55.8891L55.1641 26.625L56.7891 26.125C56.5224 27.125 56.0141 27.9083 55.2641 28.475C54.5141 29.0417 53.5307 29.325 52.3141 29.325ZM53.4391 26.725C53.9891 26.725 54.4224 26.5833 54.7391 26.3C55.0724 26.0167 55.2391 25.6583 55.2391 25.225C55.2391 24.7583 55.0724 24.3917 54.7391 24.125C54.4224 23.8583 53.9891 23.725 53.4391 23.725C52.8891 23.725 52.4557 23.8583 52.1391 24.125C51.8224 24.3917 51.6641 24.7583 51.6641 25.225C51.6641 25.6583 51.8224 26.0167 52.1391 26.3C52.4557 26.5833 52.8891 26.725 53.4391 26.725ZM72.467 16.775L68.067 29H64.542L59.917 16.775H63.667L66.792 26.05H65.792L68.792 16.775H72.467ZM77.1676 29.325C76.2842 29.325 75.5009 29.1583 74.8176 28.825C74.1509 28.475 73.6342 27.9917 73.2676 27.375C72.9009 26.7583 72.7176 26.0417 72.7176 25.225C72.7176 24.3583 72.9176 23.625 73.3176 23.025C73.7176 22.4083 74.2509 21.9333 74.9176 21.6C75.6009 21.2667 76.3592 21.1 77.1926 21.1C78.4092 21.1 79.3926 21.375 80.1426 21.925C80.8926 22.475 81.3926 23.2667 81.6426 24.3L80.0676 24.025V21.175C80.0676 20.725 79.9092 20.3333 79.5926 20C79.2759 19.6667 78.7676 19.5 78.0676 19.5C77.6176 19.5 77.1009 19.5583 76.5176 19.675C75.9342 19.775 75.3342 19.975 74.7176 20.275L73.6426 17.675C74.3759 17.3083 75.1592 17.0167 75.9926 16.8C76.8426 16.5833 77.7092 16.475 78.5926 16.475C79.7259 16.475 80.6759 16.675 81.4426 17.075C82.2092 17.475 82.7759 18.0417 83.1426 18.775C83.5259 19.5083 83.7176 20.3583 83.7176 21.325V29H80.7426L80.0176 26.625L81.6426 26.125C81.3759 27.125 80.8676 27.9083 80.1176 28.475C79.3676 29.0417 78.3842 29.325 77.1676 29.325ZM78.2926 26.725C78.8426 26.725 79.2759 26.5833 79.5926 26.3C79.9259 26.0167 80.0926 25.6583 80.0926 25.225C80.0926 24.7583 79.9259 24.3917 79.5926 24.125C79.2759 23.8583 78.8426 23.725 78.2926 23.725C77.7426 23.725 77.3092 23.8583 76.9926 24.125C76.6759 24.3917 76.5176 24.7583 76.5176 25.225C76.5176 25.6583 76.6759 26.0167 76.9926 26.3C77.3092 26.5833 77.7426 26.725 78.2926 26.725ZM91.6629 29.3C90.4129 29.3 89.3129 29.025 88.3629 28.475C87.4296 27.925 86.7046 27.1667 86.1879 26.2C85.6712 25.2333 85.4129 24.125 85.4129 22.875C85.4129 21.625 85.6712 20.525 86.1879 19.575C86.7046 18.6083 87.4296 17.85 88.3629 17.3C89.3129 16.75 90.4129 16.475 91.6629 16.475C93.0296 16.475 94.2129 16.8083 95.2129 17.475C96.2129 18.1417 96.9296 19.0417 97.3629 20.175L94.0629 21.65C93.8296 21.1333 93.5212 20.7333 93.1379 20.45C92.7546 20.15 92.2712 20 91.6879 20C90.9546 20 90.3379 20.2583 89.8379 20.775C89.3379 21.275 89.0879 21.975 89.0879 22.875C89.0879 23.775 89.3379 24.4833 89.8379 25C90.3379 25.5 90.9546 25.75 91.6879 25.75C92.2712 25.75 92.7546 25.6083 93.1379 25.325C93.5212 25.0417 93.8296 24.6417 94.0629 24.125L97.3629 25.575C96.9296 26.7083 96.2046 27.6167 95.1879 28.3C94.1712 28.9667 92.9962 29.3 91.6629 29.3ZM104.411 29.3C103.144 29.3 102.028 29.0333 101.061 28.5C100.094 27.95 99.3445 27.1917 98.8111 26.225C98.2778 25.2583 98.0111 24.15 98.0111 22.9C98.0111 21.6333 98.2778 20.5167 98.8111 19.55C99.3445 18.5833 100.094 17.8333 101.061 17.3C102.028 16.75 103.144 16.475 104.411 16.475C105.694 16.475 106.819 16.75 107.786 17.3C108.753 17.8333 109.503 18.5833 110.036 19.55C110.586 20.5167 110.861 21.6333 110.861 22.9C110.861 24.15 110.586 25.2583 110.036 26.225C109.503 27.1917 108.753 27.95 107.786 28.5C106.819 29.0333 105.694 29.3 104.411 29.3ZM104.411 25.75C105.228 25.75 105.886 25.4917 106.386 24.975C106.903 24.4417 107.161 23.75 107.161 22.9C107.161 22.0333 106.903 21.3333 106.386 20.8C105.886 20.2667 105.228 20 104.411 20C103.628 20 102.978 20.2667 102.461 20.8C101.961 21.3167 101.711 22.0083 101.711 22.875C101.711 23.7417 101.961 24.4417 102.461 24.975C102.978 25.4917 103.628 25.75 104.411 25.75ZM117.882 29.2C116.532 29.2 115.466 28.8667 114.682 28.2C113.916 27.5333 113.532 26.4417 113.532 24.925V16.925L113.482 16.775L114.232 13.825H117.182V24.125C117.182 24.6917 117.316 25.1 117.582 25.35C117.849 25.5833 118.199 25.7 118.632 25.7C118.882 25.7 119.116 25.6833 119.332 25.65C119.566 25.6 119.757 25.55 119.907 25.5V28.925C119.624 29.0083 119.316 29.075 118.982 29.125C118.666 29.175 118.299 29.2 117.882 29.2ZM111.632 20.125V16.775H119.907V20.125H111.632Z" fill="#222141"/>
</svg>
