<svg width="36" height="44" viewBox="0 0 36 44" fill="none" xmlns="http://www.w3.org/2000/svg">
<rect width="36" height="44" rx="10" fill="#222141"/>
<path fill-rule="evenodd" clip-rule="evenodd" d="M10.7622 9.01507C8.01651 11.7779 7.2969 15.2307 8.69701 18.9228C9.81606 21.8732 9.91696 21.9136 11.3284 19.9795C12.1355 18.8731 12.7954 16.9493 12.7954 15.7031C12.7954 13.1081 15.2744 10.6115 16.8681 11.6029C18.5637 12.6574 18.1302 14.7645 15.7789 16.9069C14.5878 17.9905 12.9529 20.1639 12.1458 21.7354C10.895 24.1688 10.8867 24.9945 12.0892 27.3036L13.5006 30.0146L15.6358 26.5204C17.0781 24.1605 17.5939 22.0172 17.2233 19.9183C16.7085 16.998 16.7672 16.9307 18.2033 18.8099C19.6992 20.7689 19.7558 20.7616 20.9665 18.4867C22.626 15.3664 22.6713 10.512 21.0612 8.55926C19.1865 6.28537 13.2113 6.55057 10.7622 9.01507ZM22.623 9.86247C23.9459 12.53 23.9438 13.4261 22.6044 17.2477C21.1312 21.4464 19.6667 21.7354 23.114 20.947C25.1493 20.947 25.1493 20.7575 25.1493 21.32C25.1493 21.8835 23.7873 22.6449 22.1226 23.0127C18.8333 23.7647 18.3516 24.9499 16.9154 27.3989C15.0541 30.573 14.9131 31.5457 15.9498 34.0631C16.6169 35.6843 17.4549 37.0062 17.8101 37C19.0321 36.9793 27.3741 21.2485 27.8898 17.9936C28.2584 15.6689 27.72 13.7255 26.0048 11.1926C22.8824 6.57854 20.5382 5.65655 22.623 9.86247Z" fill="#F9F4FF"/>
</svg>
