<svg width="22" height="32" viewBox="0 0 22 32" fill="none" xmlns="http://www.w3.org/2000/svg">
<path fill-rule="evenodd" clip-rule="evenodd" d="M3.03839 2.14941C0.0181644 5.09645 -0.773413 8.77943 0.766707 12.7177C1.99767 15.8647 2.10865 15.9078 3.66123 13.8448C4.54906 12.6646 5.27496 10.6126 5.27496 9.28331C5.27496 6.51528 8.00188 3.85222 9.7549 4.90971C11.62 6.0346 11.1433 8.28218 8.55678 10.5673C7.24654 11.7232 5.44822 14.0415 4.56039 15.7177C3.18447 18.3134 3.17541 19.1941 4.4981 21.6571L6.05068 24.5489L8.39937 20.8218C9.98592 18.3046 10.5533 16.0183 10.1456 13.7796C9.57937 10.6646 9.64392 10.5927 11.2237 12.5972C12.8691 14.6868 12.9314 14.679 14.2632 12.2525C16.0886 8.92419 16.1385 3.74614 14.3673 1.66321C12.3052 -0.762275 5.73246 -0.479394 3.03839 2.14941ZM16.0852 3.0533C17.5404 5.89869 17.5382 6.85452 16.0649 10.9309C14.4443 15.4095 12.8333 15.7177 16.6254 14.8768C18.8643 14.8768 18.8643 14.6746 18.8643 15.2746C18.8643 15.8758 17.366 16.6879 15.5349 17.0802C11.9167 17.8824 11.3867 19.1466 9.80699 21.7588C7.75954 25.1445 7.60439 26.1821 8.74476 28.8673C9.47858 30.5966 10.4004 32.0066 10.7911 32C12.1353 31.9779 21.3115 15.1984 21.8788 11.7265C22.2842 9.24685 21.692 7.17386 19.8053 4.47213C16.3706 -0.449559 13.7921 -1.43301 16.0852 3.0533Z" fill="white"/>
</svg>
