<svg width="128" height="40" viewBox="0 0 128 40" fill="none" xmlns="http://www.w3.org/2000/svg">
<rect y="4" width="27" height="32" rx="5" fill="#F3DFFC"/>
<path fill-rule="evenodd" clip-rule="evenodd" d="M8.07163 10.4777C6.01238 12.5038 5.47267 15.0359 6.52276 17.7434C7.36205 19.907 7.43772 19.9366 8.49629 18.5183C9.10163 17.7069 9.59656 16.2962 9.59656 15.3823C9.59656 13.4793 11.4558 11.6484 12.6511 12.3754C13.9227 13.1488 13.5977 14.694 11.8342 16.265C10.9408 17.0597 9.7147 18.6535 9.10936 19.806C8.17123 21.5905 8.16505 22.1959 9.06689 23.8893L10.1255 25.8774L11.7268 23.315C12.8086 21.5844 13.1954 20.0126 12.9174 18.4735C12.5314 16.3319 12.5754 16.2825 13.6525 17.6606C14.7744 19.0972 14.8169 19.0918 15.7249 17.4236C16.9695 15.1354 17.0035 11.5755 15.7959 10.1435C14.3899 8.47594 9.9085 8.67042 8.07163 10.4777ZM16.9672 11.0991C17.9594 13.0553 17.9578 13.7125 16.9533 16.515C15.8484 19.594 14.75 19.806 17.3355 19.2278C18.862 19.2278 18.862 19.0888 18.862 19.5013C18.862 19.9146 17.8405 20.473 16.592 20.7426C14.125 21.2941 13.7637 22.1633 12.6866 23.9592C11.2906 26.2869 11.1848 27.0002 11.9623 28.8463C12.4627 30.0352 13.0912 31.0045 13.3576 31C14.2741 30.9848 20.5306 19.4489 20.9174 17.062C21.1938 15.3572 20.79 13.932 19.5036 12.0746C17.1618 8.69093 15.4037 8.0148 16.9672 11.0991Z" fill="#222141"/>
<path d="M37.275 29V13.7H40.95V29H37.275ZM32.225 15.5V11.975H46.1V15.5H32.225ZM48.7197 16.775L49.6697 20.15V29H46.0197V16.775H48.7197ZM48.8697 22.175L48.2447 21.9V19.075L48.4697 18.775C48.6697 18.4917 48.9531 18.1667 49.3197 17.8C49.7031 17.4333 50.1447 17.125 50.6447 16.875C51.1614 16.6083 51.6864 16.475 52.2197 16.475C52.4864 16.475 52.7281 16.4917 52.9447 16.525C53.1614 16.5583 53.3364 16.6167 53.4697 16.7V20.025H52.6447C51.5781 20.025 50.7364 20.2 50.1197 20.55C49.5197 20.8833 49.1031 21.425 48.8697 22.175ZM58.3141 29.325C57.4307 29.325 56.6474 29.1583 55.9641 28.825C55.2974 28.475 54.7807 27.9917 54.4141 27.375C54.0474 26.7583 53.8641 26.0417 53.8641 25.225C53.8641 24.3583 54.0641 23.625 54.4641 23.025C54.8641 22.4083 55.3974 21.9333 56.0641 21.6C56.7474 21.2667 57.5057 21.1 58.3391 21.1C59.5557 21.1 60.5391 21.375 61.2891 21.925C62.0391 22.475 62.5391 23.2667 62.7891 24.3L61.2141 24.025V21.175C61.2141 20.725 61.0557 20.3333 60.7391 20C60.4224 19.6667 59.9141 19.5 59.2141 19.5C58.7641 19.5 58.2474 19.5583 57.6641 19.675C57.0807 19.775 56.4807 19.975 55.8641 20.275L54.7891 17.675C55.5224 17.3083 56.3057 17.0167 57.1391 16.8C57.9891 16.5833 58.8557 16.475 59.7391 16.475C60.8724 16.475 61.8224 16.675 62.5891 17.075C63.3557 17.475 63.9224 18.0417 64.2891 18.775C64.6724 19.5083 64.8641 20.3583 64.8641 21.325V29H61.8891L61.1641 26.625L62.7891 26.125C62.5224 27.125 62.0141 27.9083 61.2641 28.475C60.5141 29.0417 59.5307 29.325 58.3141 29.325ZM59.4391 26.725C59.9891 26.725 60.4224 26.5833 60.7391 26.3C61.0724 26.0167 61.2391 25.6583 61.2391 25.225C61.2391 24.7583 61.0724 24.3917 60.7391 24.125C60.4224 23.8583 59.9891 23.725 59.4391 23.725C58.8891 23.725 58.4557 23.8583 58.1391 24.125C57.8224 24.3917 57.6641 24.7583 57.6641 25.225C57.6641 25.6583 57.8224 26.0167 58.1391 26.3C58.4557 26.5833 58.8891 26.725 59.4391 26.725ZM78.467 16.775L74.067 29H70.542L65.917 16.775H69.667L72.792 26.05H71.792L74.792 16.775H78.467ZM83.1676 29.325C82.2842 29.325 81.5009 29.1583 80.8176 28.825C80.1509 28.475 79.6342 27.9917 79.2676 27.375C78.9009 26.7583 78.7176 26.0417 78.7176 25.225C78.7176 24.3583 78.9176 23.625 79.3176 23.025C79.7176 22.4083 80.2509 21.9333 80.9176 21.6C81.6009 21.2667 82.3592 21.1 83.1926 21.1C84.4092 21.1 85.3926 21.375 86.1426 21.925C86.8926 22.475 87.3926 23.2667 87.6426 24.3L86.0676 24.025V21.175C86.0676 20.725 85.9092 20.3333 85.5926 20C85.2759 19.6667 84.7676 19.5 84.0676 19.5C83.6176 19.5 83.1009 19.5583 82.5176 19.675C81.9342 19.775 81.3342 19.975 80.7176 20.275L79.6426 17.675C80.3759 17.3083 81.1592 17.0167 81.9926 16.8C82.8426 16.5833 83.7092 16.475 84.5926 16.475C85.7259 16.475 86.6759 16.675 87.4426 17.075C88.2092 17.475 88.7759 18.0417 89.1426 18.775C89.5259 19.5083 89.7176 20.3583 89.7176 21.325V29H86.7426L86.0176 26.625L87.6426 26.125C87.3759 27.125 86.8676 27.9083 86.1176 28.475C85.3676 29.0417 84.3842 29.325 83.1676 29.325ZM84.2926 26.725C84.8426 26.725 85.2759 26.5833 85.5926 26.3C85.9259 26.0167 86.0926 25.6583 86.0926 25.225C86.0926 24.7583 85.9259 24.3917 85.5926 24.125C85.2759 23.8583 84.8426 23.725 84.2926 23.725C83.7426 23.725 83.3092 23.8583 82.9926 24.125C82.6759 24.3917 82.5176 24.7583 82.5176 25.225C82.5176 25.6583 82.6759 26.0167 82.9926 26.3C83.3092 26.5833 83.7426 26.725 84.2926 26.725ZM97.6629 29.3C96.4129 29.3 95.3129 29.025 94.3629 28.475C93.4296 27.925 92.7046 27.1667 92.1879 26.2C91.6712 25.2333 91.4129 24.125 91.4129 22.875C91.4129 21.625 91.6712 20.525 92.1879 19.575C92.7046 18.6083 93.4296 17.85 94.3629 17.3C95.3129 16.75 96.4129 16.475 97.6629 16.475C99.0296 16.475 100.213 16.8083 101.213 17.475C102.213 18.1417 102.93 19.0417 103.363 20.175L100.063 21.65C99.8296 21.1333 99.5212 20.7333 99.1379 20.45C98.7546 20.15 98.2712 20 97.6879 20C96.9546 20 96.3379 20.2583 95.8379 20.775C95.3379 21.275 95.0879 21.975 95.0879 22.875C95.0879 23.775 95.3379 24.4833 95.8379 25C96.3379 25.5 96.9546 25.75 97.6879 25.75C98.2712 25.75 98.7546 25.6083 99.1379 25.325C99.5212 25.0417 99.8296 24.6417 100.063 24.125L103.363 25.575C102.93 26.7083 102.205 27.6167 101.188 28.3C100.171 28.9667 98.9962 29.3 97.6629 29.3ZM110.411 29.3C109.144 29.3 108.028 29.0333 107.061 28.5C106.094 27.95 105.344 27.1917 104.811 26.225C104.278 25.2583 104.011 24.15 104.011 22.9C104.011 21.6333 104.278 20.5167 104.811 19.55C105.344 18.5833 106.094 17.8333 107.061 17.3C108.028 16.75 109.144 16.475 110.411 16.475C111.694 16.475 112.819 16.75 113.786 17.3C114.753 17.8333 115.503 18.5833 116.036 19.55C116.586 20.5167 116.861 21.6333 116.861 22.9C116.861 24.15 116.586 25.2583 116.036 26.225C115.503 27.1917 114.753 27.95 113.786 28.5C112.819 29.0333 111.694 29.3 110.411 29.3ZM110.411 25.75C111.228 25.75 111.886 25.4917 112.386 24.975C112.903 24.4417 113.161 23.75 113.161 22.9C113.161 22.0333 112.903 21.3333 112.386 20.8C111.886 20.2667 111.228 20 110.411 20C109.628 20 108.978 20.2667 108.461 20.8C107.961 21.3167 107.711 22.0083 107.711 22.875C107.711 23.7417 107.961 24.4417 108.461 24.975C108.978 25.4917 109.628 25.75 110.411 25.75ZM123.882 29.2C122.532 29.2 121.466 28.8667 120.682 28.2C119.916 27.5333 119.532 26.4417 119.532 24.925V16.925L119.482 16.775L120.232 13.825H123.182V24.125C123.182 24.6917 123.316 25.1 123.582 25.35C123.849 25.5833 124.199 25.7 124.632 25.7C124.882 25.7 125.116 25.6833 125.332 25.65C125.566 25.6 125.757 25.55 125.907 25.5V28.925C125.624 29.0083 125.316 29.075 124.982 29.125C124.666 29.175 124.299 29.2 123.882 29.2ZM117.632 20.125V16.775H125.907V20.125H117.632Z" fill="#222141"/>
</svg>
